<svg width="70" height="70" viewBox="0 0 70 70" fill="none" xmlns="http://www.w3.org/2000/svg">
<g style="mix-blend-mode:hard-light" filter="url(#filter0_f)">
<mask id="path-1-inside-1" fill="white">
<path d="M44.1667 24H25.8333C24.8067 24 24 24.8006 24 25.8196V44.0153C24 45.0343 24.8067 45.8349 25.8333 45.8349H34.2667H38.6667H44.1667C45.1933 45.8349 46 45.0343 46 44.0153V25.8196C46 24.8006 45.1933 24 44.1667 24ZM35 45.107V37.8288H32.0667V34.9174H35V32.3701C35 30.2957 36.6133 28.549 38.6667 28.367H41.9667V31.2783H39.0333C38.41 31.2783 37.9333 31.7514 37.9333 32.3701V34.9174H41.6V37.8288H37.9333V45.1071H35V45.107ZM45.2667 44.0153C45.2667 44.634 44.79 45.107 44.1667 45.107H38.6667V38.5566H42.3333V34.1896H38.6667V32.37C38.6667 32.1517 38.8133 32.0061 39.0333 32.0061H42.7V27.6391H38.63C36.1733 27.8575 34.2667 29.9318 34.2667 32.37V34.1896H31.3333V38.5566H34.2667V45.107H25.8333C25.21 45.107 24.7333 44.634 24.7333 44.0153V25.8196C24.7333 25.2009 25.21 24.7278 25.8333 24.7278H44.1667C44.79 24.7278 45.2667 25.2009 45.2667 25.8196V44.0153H45.2667Z"/>
</mask>
<path d="M35 37.8288H38.3935V34.4353H35V37.8288ZM32.0667 37.8288H28.6732V41.2223H32.0667V37.8288ZM32.0667 34.9174V31.524H28.6732V34.9174H32.0667ZM35 34.9174V38.3109H38.3935V34.9174H35ZM38.6667 28.367V24.9735H38.5166L38.3671 24.9867L38.6667 28.367ZM41.9667 28.367H45.3601V24.9735H41.9667V28.367ZM41.9667 31.2783V34.6718H45.3601V31.2783H41.9667ZM37.9333 34.9174H34.5398V38.3109H37.9333V34.9174ZM41.6 34.9174H44.9935V31.524H41.6V34.9174ZM41.6 37.8288V41.2223H44.9935V37.8288H41.6ZM37.9333 37.8288V34.4353H34.5399V37.8288H37.9333ZM37.9333 45.1071V48.5006H41.3268V45.1071H37.9333ZM35 45.1071H31.6065V48.5006H35V45.1071ZM45.2667 44.0153V40.6218H41.8732V44.0153H45.2667ZM38.6667 45.107H35.2732V48.5005H38.6667V45.107ZM38.6667 38.5566V35.1631H35.2732V38.5566H38.6667ZM42.3333 38.5566V41.9501H45.7268V38.5566H42.3333ZM42.3333 34.1896H45.7268V30.7961H42.3333V34.1896ZM38.6667 34.1896H35.2732V37.5831H38.6667V34.1896ZM42.7 32.0061V35.3996H46.0935V32.0061H42.7ZM42.7 27.6391H46.0935V24.2456H42.7V27.6391ZM38.63 27.6391V24.2456H38.4795L38.3296 24.259L38.63 27.6391ZM34.2667 34.1896V37.5831H37.6601V34.1896H34.2667ZM31.3333 34.1896V30.7961H27.9398V34.1896H31.3333ZM31.3333 38.5566H27.9398V41.9501H31.3333V38.5566ZM34.2667 38.5566H37.6601V35.1631H34.2667V38.5566ZM34.2667 45.107V48.5005H37.6601V45.107H34.2667ZM45.2667 44.0153V47.4088H48.6602V44.0153H45.2667ZM44.1667 20.6065H25.8333V27.3935H44.1667V20.6065ZM25.8333 20.6065C22.9566 20.6065 20.6065 22.9024 20.6065 25.8196H27.3935C27.3935 26.6988 26.6567 27.3935 25.8333 27.3935V20.6065ZM20.6065 25.8196V44.0153H27.3935V25.8196H20.6065ZM20.6065 44.0153C20.6065 46.9326 22.9567 49.2284 25.8333 49.2284V42.4414C26.6566 42.4414 27.3935 43.136 27.3935 44.0153H20.6065ZM25.8333 49.2284H34.2667V42.4414H25.8333V49.2284ZM34.2667 49.2284H38.6667V42.4414H34.2667V49.2284ZM38.6667 49.2284H44.1667V42.4414H38.6667V49.2284ZM44.1667 49.2284C47.0434 49.2284 49.3935 46.9325 49.3935 44.0153H42.6065C42.6065 43.1361 43.3433 42.4414 44.1667 42.4414V49.2284ZM49.3935 44.0153V25.8196H42.6065V44.0153H49.3935ZM49.3935 25.8196C49.3935 22.9024 47.0434 20.6065 44.1667 20.6065V27.3935C43.3433 27.3935 42.6065 26.6988 42.6065 25.8196H49.3935ZM38.3935 45.107V37.8288H31.6065V45.107H38.3935ZM35 34.4353H32.0667V41.2223H35V34.4353ZM35.4601 37.8288V34.9174H28.6732V37.8288H35.4601ZM32.0667 38.3109H35V31.524H32.0667V38.3109ZM38.3935 34.9174V32.3701H31.6065V34.9174H38.3935ZM38.3935 32.3701C38.3935 32.2267 38.4475 32.0798 38.5628 31.9541C38.6792 31.8274 38.8239 31.7598 38.9662 31.7472L38.3671 24.9867C34.5725 25.323 31.6065 28.5277 31.6065 32.3701H38.3935ZM38.6667 31.7605H41.9667V24.9735H38.6667V31.7605ZM38.5732 28.367V31.2783H45.3601V28.367H38.5732ZM41.9667 27.8848H39.0333V34.6718H41.9667V27.8848ZM39.0333 27.8848C36.5599 27.8848 34.5398 29.8532 34.5398 32.3701H41.3268C41.3268 33.6496 40.26 34.6718 39.0333 34.6718V27.8848ZM34.5398 32.3701V34.9174H41.3268V32.3701H34.5398ZM37.9333 38.3109H41.6V31.524H37.9333V38.3109ZM38.2065 34.9174V37.8288H44.9935V34.9174H38.2065ZM41.6 34.4353H37.9333V41.2223H41.6V34.4353ZM34.5399 37.8288V45.1071H41.3268V37.8288H34.5399ZM37.9333 41.7136H35V48.5006H37.9333V41.7136ZM38.3935 45.1071V45.107H31.6065V45.1071H38.3935ZM41.8732 44.0153C41.8732 42.7357 42.94 41.7136 44.1667 41.7136V48.5005C46.64 48.5005 48.6601 46.5322 48.6601 44.0153H41.8732ZM44.1667 41.7136H38.6667V48.5005H44.1667V41.7136ZM42.0601 45.107V38.5566H35.2732V45.107H42.0601ZM38.6667 41.9501H42.3333V35.1631H38.6667V41.9501ZM45.7268 38.5566V34.1896H38.9398V38.5566H45.7268ZM42.3333 30.7961H38.6667V37.5831H42.3333V30.7961ZM42.0601 34.1896V32.37H35.2732V34.1896H42.0601ZM42.0601 32.37C42.0601 33.0396 41.8198 33.8579 41.158 34.5148C40.4985 35.1693 39.6867 35.3996 39.0333 35.3996V28.6126C38.1599 28.6126 37.1648 28.9157 36.377 29.6976C35.5869 30.4818 35.2732 31.482 35.2732 32.37H42.0601ZM39.0333 35.3996H42.7V28.6126H39.0333V35.3996ZM46.0935 32.0061V27.6391H39.3065V32.0061H46.0935ZM42.7 24.2456H38.63V31.0326H42.7V24.2456ZM38.3296 24.259C34.143 24.6311 30.8732 28.1531 30.8732 32.37H37.6601C37.6601 31.7105 38.2037 31.0839 38.9304 31.0193L38.3296 24.259ZM30.8732 32.37V34.1896H37.6601V32.37H30.8732ZM34.2667 30.7961H31.3333V37.5831H34.2667V30.7961ZM27.9398 34.1896V38.5566H34.7268V34.1896H27.9398ZM31.3333 41.9501H34.2667V35.1631H31.3333V41.9501ZM30.8732 38.5566V45.107H37.6601V38.5566H30.8732ZM34.2667 41.7136H25.8333V48.5005H34.2667V41.7136ZM25.8333 41.7136C27.06 41.7136 28.1268 42.7357 28.1268 44.0153H21.3399C21.3399 46.5322 23.36 48.5005 25.8333 48.5005V41.7136ZM28.1268 44.0153V25.8196H21.3399V44.0153H28.1268ZM28.1268 25.8196C28.1268 27.0991 27.06 28.1213 25.8333 28.1213V21.3344C23.36 21.3344 21.3399 23.3027 21.3399 25.8196H28.1268ZM25.8333 28.1213H44.1667V21.3344H25.8333V28.1213ZM44.1667 28.1213C42.94 28.1213 41.8732 27.0991 41.8732 25.8196H48.6602C48.6602 23.3027 46.6401 21.3344 44.1667 21.3344V28.1213ZM41.8732 25.8196V44.0153H48.6602V25.8196H41.8732ZM45.2667 40.6218H45.2667V47.4088H45.2667V40.6218Z" fill="#FFAB2D" mask="url(#path-1-inside-1)"/>
</g>
<g style="mix-blend-mode:hard-light" filter="url(#filter1_f)">
<mask id="path-3-inside-2" fill="white">
<path d="M44.1667 24H25.8333C24.8067 24 24 24.8006 24 25.8196V44.0153C24 45.0343 24.8067 45.8349 25.8333 45.8349H34.2667H38.6667H44.1667C45.1933 45.8349 46 45.0343 46 44.0153V25.8196C46 24.8006 45.1933 24 44.1667 24ZM35 45.107V37.8288H32.0667V34.9174H35V32.3701C35 30.2957 36.6133 28.549 38.6667 28.367H41.9667V31.2783H39.0333C38.41 31.2783 37.9333 31.7514 37.9333 32.3701V34.9174H41.6V37.8288H37.9333V45.1071H35V45.107ZM45.2667 44.0153C45.2667 44.634 44.79 45.107 44.1667 45.107H38.6667V38.5566H42.3333V34.1896H38.6667V32.37C38.6667 32.1517 38.8133 32.0061 39.0333 32.0061H42.7V27.6391H38.63C36.1733 27.8575 34.2667 29.9318 34.2667 32.37V34.1896H31.3333V38.5566H34.2667V45.107H25.8333C25.21 45.107 24.7333 44.634 24.7333 44.0153V25.8196C24.7333 25.2009 25.21 24.7278 25.8333 24.7278H44.1667C44.79 24.7278 45.2667 25.2009 45.2667 25.8196V44.0153H45.2667Z"/>
</mask>
<path d="M35 37.8288H39.4376V33.3911H35V37.8288ZM32.0667 37.8288H27.629V42.2664H32.0667V37.8288ZM32.0667 34.9174V30.4798H27.629V34.9174H32.0667ZM35 34.9174V39.3551H39.4376V34.9174H35ZM38.6667 28.367V23.9293H38.4704L38.2749 23.9467L38.6667 28.367ZM41.9667 28.367H46.4043V23.9293H41.9667V28.367ZM41.9667 31.2783V35.716H46.4043V31.2783H41.9667ZM37.9333 34.9174H33.4957V39.3551H37.9333V34.9174ZM41.6 34.9174H46.0376V30.4798H41.6V34.9174ZM41.6 37.8288V42.2664H46.0376V37.8288H41.6ZM37.9333 37.8288V33.3911H33.4957V37.8288H37.9333ZM37.9333 45.1071V49.5447H42.371V45.1071H37.9333ZM35 45.1071H30.5624V49.5447H35V45.1071ZM45.2667 44.0153V39.5777H40.829V44.0153H45.2667ZM38.6667 45.107H34.229V49.5447H38.6667V45.107ZM38.6667 38.5566V34.1189H34.229V38.5566H38.6667ZM42.3333 38.5566V42.9942H46.7709V38.5566H42.3333ZM42.3333 34.1896H46.7709V29.752H42.3333V34.1896ZM38.6667 34.1896H34.229V38.6272H38.6667V34.1896ZM42.7 32.0061V36.4438H47.1376V32.0061H42.7ZM42.7 27.6391H47.1376V23.2015H42.7V27.6391ZM38.63 27.6391V23.2015H38.4332L38.2371 23.2189L38.63 27.6391ZM34.2667 34.1896V38.6272H38.7043V34.1896H34.2667ZM31.3333 34.1896V29.752H26.8957V34.1896H31.3333ZM31.3333 38.5566H26.8957V42.9942H31.3333V38.5566ZM34.2667 38.5566H38.7043V34.1189H34.2667V38.5566ZM34.2667 45.107V49.5447H38.7043V45.107H34.2667ZM45.2667 44.0153V48.4529H49.7043V44.0153H45.2667ZM44.1667 19.5624H25.8333V28.4376H44.1667V19.5624ZM25.8333 19.5624C22.3874 19.5624 19.5624 22.3183 19.5624 25.8196H28.4376C28.4376 27.2829 27.2259 28.4376 25.8333 28.4376V19.5624ZM19.5624 25.8196V44.0153H28.4376V25.8196H19.5624ZM19.5624 44.0153C19.5624 47.5167 22.3875 50.2725 25.8333 50.2725V41.3973C27.2258 41.3973 28.4376 42.5519 28.4376 44.0153H19.5624ZM25.8333 50.2725H34.2667V41.3973H25.8333V50.2725ZM34.2667 50.2725H38.6667V41.3973H34.2667V50.2725ZM38.6667 50.2725H44.1667V41.3973H38.6667V50.2725ZM44.1667 50.2725C47.6127 50.2725 50.4376 47.5165 50.4376 44.0153H41.5624C41.5624 42.5521 42.774 41.3973 44.1667 41.3973V50.2725ZM50.4376 44.0153V25.8196H41.5624V44.0153H50.4376ZM50.4376 25.8196C50.4376 22.3183 47.6126 19.5624 44.1667 19.5624V28.4376C42.7741 28.4376 41.5624 27.2829 41.5624 25.8196H50.4376ZM39.4376 45.107V37.8288H30.5624V45.107H39.4376ZM35 33.3911H32.0667V42.2664H35V33.3911ZM36.5043 37.8288V34.9174H27.629V37.8288H36.5043ZM32.0667 39.3551H35V30.4798H32.0667V39.3551ZM39.4376 34.9174V32.3701H30.5624V34.9174H39.4376ZM39.4376 32.3701C39.4376 32.5017 39.3842 32.6035 39.3319 32.6604C39.2811 32.7158 39.1882 32.7758 39.0584 32.7873L38.2749 23.9467C33.9445 24.3304 30.5624 27.9837 30.5624 32.3701H39.4376ZM38.6667 32.8046H41.9667V23.9293H38.6667V32.8046ZM37.529 28.367V31.2783H46.4043V28.367H37.529ZM41.9667 26.8407H39.0333V35.716H41.9667V26.8407ZM39.0333 26.8407C35.9907 26.8407 33.4957 29.2691 33.4957 32.3701H42.3709C42.3709 34.2337 40.8292 35.716 39.0333 35.716V26.8407ZM33.4957 32.3701V34.9174H42.3709V32.3701H33.4957ZM37.9333 39.3551H41.6V30.4798H37.9333V39.3551ZM37.1624 34.9174V37.8288H46.0376V34.9174H37.1624ZM41.6 33.3911H37.9333V42.2664H41.6V33.3911ZM33.4957 37.8288V45.1071H42.371V37.8288H33.4957ZM37.9333 40.6695H35V49.5447H37.9333V40.6695ZM39.4376 45.1071V45.107H30.5624V45.1071H39.4376ZM40.829 44.0153C40.829 42.1517 42.3707 40.6694 44.1667 40.6694V49.5447C47.2093 49.5447 49.7043 47.1163 49.7043 44.0153H40.829ZM44.1667 40.6694H38.6667V49.5447H44.1667V40.6694ZM43.1043 45.107V38.5566H34.229V45.107H43.1043ZM38.6667 42.9942H42.3333V34.1189H38.6667V42.9942ZM46.7709 38.5566V34.1896H37.8957V38.5566H46.7709ZM42.3333 29.752H38.6667V38.6272H42.3333V29.752ZM43.1043 34.1896V32.37H34.229V34.1896H43.1043ZM43.1043 32.37C43.1043 33.2793 42.7787 34.3774 41.8935 35.2559C41.0114 36.1314 39.9216 36.4438 39.0333 36.4438V27.5685C37.925 27.5685 36.6519 27.9536 35.6414 28.9565C34.628 29.9624 34.229 31.2424 34.229 32.37H43.1043ZM39.0333 36.4438H42.7V27.5685H39.0333V36.4438ZM47.1376 32.0061V27.6391H38.2624V32.0061H47.1376ZM42.7 23.2015H38.63V32.0768H42.7V23.2015ZM38.2371 23.2189C33.5183 23.6383 29.829 27.6058 29.829 32.37H38.7043C38.7043 32.3253 38.7201 32.2557 38.7907 32.1791C38.861 32.1027 38.9436 32.0664 39.0229 32.0593L38.2371 23.2189ZM29.829 32.37V34.1896H38.7043V32.37H29.829ZM34.2667 29.752H31.3333V38.6272H34.2667V29.752ZM26.8957 34.1896V38.5566H35.7709V34.1896H26.8957ZM31.3333 42.9942H34.2667V34.1189H31.3333V42.9942ZM29.829 38.5566V45.107H38.7043V38.5566H29.829ZM34.2667 40.6694H25.8333V49.5447H34.2667V40.6694ZM25.8333 40.6694C27.6293 40.6694 29.171 42.1517 29.171 44.0153H20.2957C20.2957 47.1163 22.7907 49.5447 25.8333 49.5447V40.6694ZM29.171 44.0153V25.8196H20.2957V44.0153H29.171ZM29.171 25.8196C29.171 27.6832 27.6293 29.1655 25.8333 29.1655V20.2902C22.7907 20.2902 20.2957 22.7186 20.2957 25.8196H29.171ZM25.8333 29.1655H44.1667V20.2902H25.8333V29.1655ZM44.1667 29.1655C42.3708 29.1655 40.8291 27.6832 40.8291 25.8196H49.7043C49.7043 22.7186 47.2093 20.2902 44.1667 20.2902V29.1655ZM40.8291 25.8196V44.0153H49.7043V25.8196H40.8291ZM45.2667 39.5777H45.2667V48.4529H45.2667V39.5777Z" fill="#FFAB2D" mask="url(#path-3-inside-2)"/>
</g>
<g style="mix-blend-mode:hard-light" filter="url(#filter2_ddi)">
<mask id="path-5-inside-3" fill="white">
<path d="M44.1667 24H25.8333C24.8067 24 24 24.8006 24 25.8196V44.0153C24 45.0343 24.8067 45.8349 25.8333 45.8349H34.2667H38.6667H44.1667C45.1933 45.8349 46 45.0343 46 44.0153V25.8196C46 24.8006 45.1933 24 44.1667 24ZM35 45.107V37.8288H32.0667V34.9174H35V32.3701C35 30.2957 36.6133 28.549 38.6667 28.367H41.9667V31.2783H39.0333C38.41 31.2783 37.9333 31.7514 37.9333 32.3701V34.9174H41.6V37.8288H37.9333V45.1071H35V45.107ZM45.2667 44.0153C45.2667 44.634 44.79 45.107 44.1667 45.107H38.6667V38.5566H42.3333V34.1896H38.6667V32.37C38.6667 32.1517 38.8133 32.0061 39.0333 32.0061H42.7V27.6391H38.63C36.1733 27.8575 34.2667 29.9318 34.2667 32.37V34.1896H31.3333V38.5566H34.2667V45.107H25.8333C25.21 45.107 24.7333 44.634 24.7333 44.0153V25.8196C24.7333 25.2009 25.21 24.7278 25.8333 24.7278H44.1667C44.79 24.7278 45.2667 25.2009 45.2667 25.8196V44.0153H45.2667Z"/>
</mask>
<path d="M35 37.8288H38.3935V34.4353H35V37.8288ZM32.0667 37.8288H28.6732V41.2223H32.0667V37.8288ZM32.0667 34.9174V31.524H28.6732V34.9174H32.0667ZM35 34.9174V38.3109H38.3935V34.9174H35ZM38.6667 28.367V24.9735H38.5166L38.3671 24.9867L38.6667 28.367ZM41.9667 28.367H45.3601V24.9735H41.9667V28.367ZM41.9667 31.2783V34.6718H45.3601V31.2783H41.9667ZM37.9333 34.9174H34.5398V38.3109H37.9333V34.9174ZM41.6 34.9174H44.9935V31.524H41.6V34.9174ZM41.6 37.8288V41.2223H44.9935V37.8288H41.6ZM37.9333 37.8288V34.4353H34.5399V37.8288H37.9333ZM37.9333 45.1071V48.5006H41.3268V45.1071H37.9333ZM35 45.1071H31.6065V48.5006H35V45.1071ZM45.2667 44.0153V40.6218H41.8732V44.0153H45.2667ZM38.6667 45.107H35.2732V48.5005H38.6667V45.107ZM38.6667 38.5566V35.1631H35.2732V38.5566H38.6667ZM42.3333 38.5566V41.9501H45.7268V38.5566H42.3333ZM42.3333 34.1896H45.7268V30.7961H42.3333V34.1896ZM38.6667 34.1896H35.2732V37.5831H38.6667V34.1896ZM42.7 32.0061V35.3996H46.0935V32.0061H42.7ZM42.7 27.6391H46.0935V24.2456H42.7V27.6391ZM38.63 27.6391V24.2456H38.4795L38.3296 24.259L38.63 27.6391ZM34.2667 34.1896V37.5831H37.6601V34.1896H34.2667ZM31.3333 34.1896V30.7961H27.9398V34.1896H31.3333ZM31.3333 38.5566H27.9398V41.9501H31.3333V38.5566ZM34.2667 38.5566H37.6601V35.1631H34.2667V38.5566ZM34.2667 45.107V48.5005H37.6601V45.107H34.2667ZM45.2667 44.0153V47.4088H48.6602V44.0153H45.2667ZM44.1667 20.6065H25.8333V27.3935H44.1667V20.6065ZM25.8333 20.6065C22.9566 20.6065 20.6065 22.9024 20.6065 25.8196H27.3935C27.3935 26.6988 26.6567 27.3935 25.8333 27.3935V20.6065ZM20.6065 25.8196V44.0153H27.3935V25.8196H20.6065ZM20.6065 44.0153C20.6065 46.9326 22.9567 49.2284 25.8333 49.2284V42.4414C26.6566 42.4414 27.3935 43.136 27.3935 44.0153H20.6065ZM25.8333 49.2284H34.2667V42.4414H25.8333V49.2284ZM34.2667 49.2284H38.6667V42.4414H34.2667V49.2284ZM38.6667 49.2284H44.1667V42.4414H38.6667V49.2284ZM44.1667 49.2284C47.0434 49.2284 49.3935 46.9325 49.3935 44.0153H42.6065C42.6065 43.1361 43.3433 42.4414 44.1667 42.4414V49.2284ZM49.3935 44.0153V25.8196H42.6065V44.0153H49.3935ZM49.3935 25.8196C49.3935 22.9024 47.0434 20.6065 44.1667 20.6065V27.3935C43.3433 27.3935 42.6065 26.6988 42.6065 25.8196H49.3935ZM38.3935 45.107V37.8288H31.6065V45.107H38.3935ZM35 34.4353H32.0667V41.2223H35V34.4353ZM35.4601 37.8288V34.9174H28.6732V37.8288H35.4601ZM32.0667 38.3109H35V31.524H32.0667V38.3109ZM38.3935 34.9174V32.3701H31.6065V34.9174H38.3935ZM38.3935 32.3701C38.3935 32.2267 38.4475 32.0798 38.5628 31.9541C38.6792 31.8274 38.8239 31.7598 38.9662 31.7472L38.3671 24.9867C34.5725 25.323 31.6065 28.5277 31.6065 32.3701H38.3935ZM38.6667 31.7605H41.9667V24.9735H38.6667V31.7605ZM38.5732 28.367V31.2783H45.3601V28.367H38.5732ZM41.9667 27.8848H39.0333V34.6718H41.9667V27.8848ZM39.0333 27.8848C36.5599 27.8848 34.5398 29.8532 34.5398 32.3701H41.3268C41.3268 33.6496 40.26 34.6718 39.0333 34.6718V27.8848ZM34.5398 32.3701V34.9174H41.3268V32.3701H34.5398ZM37.9333 38.3109H41.6V31.524H37.9333V38.3109ZM38.2065 34.9174V37.8288H44.9935V34.9174H38.2065ZM41.6 34.4353H37.9333V41.2223H41.6V34.4353ZM34.5399 37.8288V45.1071H41.3268V37.8288H34.5399ZM37.9333 41.7136H35V48.5006H37.9333V41.7136ZM38.3935 45.1071V45.107H31.6065V45.1071H38.3935ZM41.8732 44.0153C41.8732 42.7357 42.94 41.7136 44.1667 41.7136V48.5005C46.64 48.5005 48.6601 46.5322 48.6601 44.0153H41.8732ZM44.1667 41.7136H38.6667V48.5005H44.1667V41.7136ZM42.0601 45.107V38.5566H35.2732V45.107H42.0601ZM38.6667 41.9501H42.3333V35.1631H38.6667V41.9501ZM45.7268 38.5566V34.1896H38.9398V38.5566H45.7268ZM42.3333 30.7961H38.6667V37.5831H42.3333V30.7961ZM42.0601 34.1896V32.37H35.2732V34.1896H42.0601ZM42.0601 32.37C42.0601 33.0396 41.8198 33.8579 41.158 34.5148C40.4985 35.1693 39.6867 35.3996 39.0333 35.3996V28.6126C38.1599 28.6126 37.1648 28.9157 36.377 29.6976C35.5869 30.4818 35.2732 31.482 35.2732 32.37H42.0601ZM39.0333 35.3996H42.7V28.6126H39.0333V35.3996ZM46.0935 32.0061V27.6391H39.3065V32.0061H46.0935ZM42.7 24.2456H38.63V31.0326H42.7V24.2456ZM38.3296 24.259C34.143 24.6311 30.8732 28.1531 30.8732 32.37H37.6601C37.6601 31.7105 38.2037 31.0839 38.9304 31.0193L38.3296 24.259ZM30.8732 32.37V34.1896H37.6601V32.37H30.8732ZM34.2667 30.7961H31.3333V37.5831H34.2667V30.7961ZM27.9398 34.1896V38.5566H34.7268V34.1896H27.9398ZM31.3333 41.9501H34.2667V35.1631H31.3333V41.9501ZM30.8732 38.5566V45.107H37.6601V38.5566H30.8732ZM34.2667 41.7136H25.8333V48.5005H34.2667V41.7136ZM25.8333 41.7136C27.06 41.7136 28.1268 42.7357 28.1268 44.0153H21.3399C21.3399 46.5322 23.36 48.5005 25.8333 48.5005V41.7136ZM28.1268 44.0153V25.8196H21.3399V44.0153H28.1268ZM28.1268 25.8196C28.1268 27.0991 27.06 28.1213 25.8333 28.1213V21.3344C23.36 21.3344 21.3399 23.3027 21.3399 25.8196H28.1268ZM25.8333 28.1213H44.1667V21.3344H25.8333V28.1213ZM44.1667 28.1213C42.94 28.1213 41.8732 27.0991 41.8732 25.8196H48.6602C48.6602 23.3027 46.6401 21.3344 44.1667 21.3344V28.1213ZM41.8732 25.8196V44.0153H48.6602V25.8196H41.8732ZM45.2667 40.6218H45.2667V47.4088H45.2667V40.6218Z" fill="#FFC940" fill-opacity="0.2" mask="url(#path-5-inside-3)"/>
</g>
<g filter="url(#filter3_f)">
<mask id="path-7-inside-4" fill="white">
<path d="M44.1667 24H25.8333C24.8067 24 24 24.8006 24 25.8196V44.0153C24 45.0343 24.8067 45.8349 25.8333 45.8349H34.2667H38.6667H44.1667C45.1933 45.8349 46 45.0343 46 44.0153V25.8196C46 24.8006 45.1933 24 44.1667 24ZM35 45.107V37.8288H32.0667V34.9174H35V32.3701C35 30.2957 36.6133 28.549 38.6667 28.367H41.9667V31.2783H39.0333C38.41 31.2783 37.9333 31.7514 37.9333 32.3701V34.9174H41.6V37.8288H37.9333V45.1071H35V45.107ZM45.2667 44.0153C45.2667 44.634 44.79 45.107 44.1667 45.107H38.6667V38.5566H42.3333V34.1896H38.6667V32.37C38.6667 32.1517 38.8133 32.0061 39.0333 32.0061H42.7V27.6391H38.63C36.1733 27.8575 34.2667 29.9318 34.2667 32.37V34.1896H31.3333V38.5566H34.2667V45.107H25.8333C25.21 45.107 24.7333 44.634 24.7333 44.0153V25.8196C24.7333 25.2009 25.21 24.7278 25.8333 24.7278H44.1667C44.79 24.7278 45.2667 25.2009 45.2667 25.8196V44.0153H45.2667Z"/>
</mask>
<path d="M35 37.8288H37.0883V35.7405H35V37.8288ZM32.0667 37.8288H29.9784V39.9171H32.0667V37.8288ZM32.0667 34.9174V32.8291H29.9784V34.9174H32.0667ZM35 34.9174V37.0057H37.0883V34.9174H35ZM38.6667 28.367V26.2787H38.5743L38.4823 26.2868L38.6667 28.367ZM41.9667 28.367H44.055V26.2787H41.9667V28.367ZM41.9667 31.2783V33.3666H44.055V31.2783H41.9667ZM37.9333 34.9174H35.845V37.0057H37.9333V34.9174ZM41.6 34.9174H43.6883V32.8291H41.6V34.9174ZM41.6 37.8288V39.9171H43.6883V37.8288H41.6ZM37.9333 37.8288V35.7405H35.845V37.8288H37.9333ZM37.9333 45.1071V47.1954H40.0216V45.1071H37.9333ZM35 45.1071H32.9117V47.1954H35V45.1071ZM45.2667 44.0153V41.927H43.1784V44.0153H45.2667ZM38.6667 45.107H36.5784V47.1953H38.6667V45.107ZM38.6667 38.5566V36.4683H36.5784V38.5566H38.6667ZM42.3333 38.5566V40.6449H44.4216V38.5566H42.3333ZM42.3333 34.1896H44.4216V32.1013H42.3333V34.1896ZM38.6667 34.1896H36.5784V36.2779H38.6667V34.1896ZM42.7 32.0061V34.0944H44.7883V32.0061H42.7ZM42.7 27.6391H44.7883V25.5508H42.7V27.6391ZM38.63 27.6391V25.5508H38.5374L38.4451 25.559L38.63 27.6391ZM34.2667 34.1896V36.2779H36.355V34.1896H34.2667ZM31.3333 34.1896V32.1013H29.245V34.1896H31.3333ZM31.3333 38.5566H29.245V40.6449H31.3333V38.5566ZM34.2667 38.5566H36.355V36.4683H34.2667V38.5566ZM34.2667 45.107V47.1953H36.355V45.107H34.2667ZM45.2667 44.0153V46.1036H47.355V44.0153H45.2667ZM44.1667 21.9117H25.8333V26.0883H44.1667V21.9117ZM25.8333 21.9117C23.6682 21.9117 21.9117 23.6325 21.9117 25.8196H26.0883C26.0883 25.8753 26.0616 25.9515 26.0027 26.0099C25.9444 26.0678 25.875 26.0883 25.8333 26.0883V21.9117ZM21.9117 25.8196V44.0153H26.0883V25.8196H21.9117ZM21.9117 44.0153C21.9117 46.2025 23.6682 47.9232 25.8333 47.9232V43.7466C25.875 43.7466 25.9443 43.7671 26.0027 43.825C26.0616 43.8834 26.0883 43.9596 26.0883 44.0153H21.9117ZM25.8333 47.9232H34.2667V43.7466H25.8333V47.9232ZM34.2667 47.9232H38.6667V43.7466H34.2667V47.9232ZM38.6667 47.9232H44.1667V43.7466H38.6667V47.9232ZM44.1667 47.9232C46.3319 47.9232 48.0883 46.2024 48.0883 44.0153H43.9117C43.9117 43.9596 43.9384 43.8834 43.9973 43.825C44.0556 43.7671 44.125 43.7466 44.1667 43.7466V47.9232ZM48.0883 44.0153V25.8196H43.9117V44.0153H48.0883ZM48.0883 25.8196C48.0883 23.6325 46.3318 21.9117 44.1667 21.9117V26.0883C44.125 26.0883 44.0556 26.0678 43.9973 26.0099C43.9384 25.9515 43.9117 25.8753 43.9117 25.8196H48.0883ZM37.0883 45.107V37.8288H32.9117V45.107H37.0883ZM35 35.7405H32.0667V39.9171H35V35.7405ZM34.155 37.8288V34.9174H29.9784V37.8288H34.155ZM32.0667 37.0057H35V32.8291H32.0667V37.0057ZM37.0883 34.9174V32.3701H32.9117V34.9174H37.0883ZM37.0883 32.3701C37.0883 31.3838 37.8693 30.5341 38.851 30.4471L38.4823 26.2868C35.3574 26.5638 32.9117 29.2077 32.9117 32.3701H37.0883ZM38.6667 30.4553H41.9667V26.2787H38.6667V30.4553ZM39.8784 28.367V31.2783H44.055V28.367H39.8784ZM41.9667 29.19H39.0333V33.3666H41.9667V29.19ZM39.0333 29.19C37.2715 29.19 35.845 30.5832 35.845 32.3701H40.0216C40.0216 32.612 39.9224 32.8742 39.7206 33.0744C39.5195 33.274 39.2628 33.3666 39.0333 33.3666V29.19ZM35.845 32.3701V34.9174H40.0216V32.3701H35.845ZM37.9333 37.0057H41.6V32.8291H37.9333V37.0057ZM39.5117 34.9174V37.8288H43.6883V34.9174H39.5117ZM41.6 35.7405H37.9333V39.9171H41.6V35.7405ZM35.845 37.8288V45.1071H40.0216V37.8288H35.845ZM37.9333 43.0188H35V47.1954H37.9333V43.0188ZM37.0883 45.1071V45.107H32.9117V45.1071H37.0883ZM43.1784 44.0153C43.1784 43.7734 43.2776 43.5112 43.4793 43.311C43.6804 43.1114 43.9372 43.0187 44.1667 43.0187V47.1953C45.9285 47.1953 47.355 45.8021 47.355 44.0153H43.1784ZM44.1667 43.0187H38.6667V47.1953H44.1667V43.0187ZM40.755 45.107V38.5566H36.5784V45.107H40.755ZM38.6667 40.6449H42.3333V36.4683H38.6667V40.6449ZM44.4216 38.5566V34.1896H40.245V38.5566H44.4216ZM42.3333 32.1013H38.6667V36.2779H42.3333V32.1013ZM40.755 34.1896V32.37H36.5784V34.1896H40.755ZM40.755 32.37C40.755 32.7401 40.6211 33.2087 40.2386 33.5884C39.8574 33.9667 39.3931 34.0944 39.0333 34.0944V29.9178C38.4535 29.9178 37.8059 30.1183 37.2964 30.624C36.7855 31.131 36.5784 31.7816 36.5784 32.37H40.755ZM39.0333 34.0944H42.7V29.9178H39.0333V34.0944ZM44.7883 32.0061V27.6391H40.6117V32.0061H44.7883ZM42.7 25.5508H38.63V29.7274H42.7V25.5508ZM38.4451 25.559C34.9239 25.872 32.1784 28.8372 32.1784 32.37H36.355C36.355 31.0264 37.4228 29.843 38.8149 29.7192L38.4451 25.559ZM32.1784 32.37V34.1896H36.355V32.37H32.1784ZM34.2667 32.1013H31.3333V36.2779H34.2667V32.1013ZM29.245 34.1896V38.5566H33.4216V34.1896H29.245ZM31.3333 40.6449H34.2667V36.4683H31.3333V40.6449ZM32.1784 38.5566V45.107H36.355V38.5566H32.1784ZM34.2667 43.0187H25.8333V47.1953H34.2667V43.0187ZM25.8333 43.0187C26.0628 43.0187 26.3196 43.1114 26.5207 43.311C26.7224 43.5112 26.8216 43.7734 26.8216 44.0153H22.645C22.645 45.8021 24.0715 47.1953 25.8333 47.1953V43.0187ZM26.8216 44.0153V25.8196H22.645V44.0153H26.8216ZM26.8216 25.8196C26.8216 26.0615 26.7224 26.3237 26.5207 26.5239C26.3196 26.7235 26.0628 26.8161 25.8333 26.8161V22.6395C24.0715 22.6395 22.645 24.0328 22.645 25.8196H26.8216ZM25.8333 26.8161H44.1667V22.6395H25.8333V26.8161ZM44.1667 26.8161C43.9372 26.8161 43.6805 26.7235 43.4794 26.5239C43.2776 26.3237 43.1784 26.0615 43.1784 25.8196H47.355C47.355 24.0328 45.9285 22.6395 44.1667 22.6395V26.8161ZM43.1784 25.8196V44.0153H47.355V25.8196H43.1784ZM45.2667 41.927H45.2667V46.1036H45.2667V41.927Z" fill="#FFD56A" mask="url(#path-7-inside-4)"/>
</g>
<g filter="url(#filter4_f)">
<mask id="path-9-inside-5" fill="white">
<path d="M44.1667 24H25.8333C24.8067 24 24 24.8006 24 25.8196V44.0153C24 45.0343 24.8067 45.8349 25.8333 45.8349H34.2667H38.6667H44.1667C45.1933 45.8349 46 45.0343 46 44.0153V25.8196C46 24.8006 45.1933 24 44.1667 24ZM35 45.107V37.8288H32.0667V34.9174H35V32.3701C35 30.2957 36.6133 28.549 38.6667 28.367H41.9667V31.2783H39.0333C38.41 31.2783 37.9333 31.7514 37.9333 32.3701V34.9174H41.6V37.8288H37.9333V45.1071H35V45.107ZM45.2667 44.0153C45.2667 44.634 44.79 45.107 44.1667 45.107H38.6667V38.5566H42.3333V34.1896H38.6667V32.37C38.6667 32.1517 38.8133 32.0061 39.0333 32.0061H42.7V27.6391H38.63C36.1733 27.8575 34.2667 29.9318 34.2667 32.37V34.1896H31.3333V38.5566H34.2667V45.107H25.8333C25.21 45.107 24.7333 44.634 24.7333 44.0153V25.8196C24.7333 25.2009 25.21 24.7278 25.8333 24.7278H44.1667C44.79 24.7278 45.2667 25.2009 45.2667 25.8196V44.0153H45.2667Z"/>
</mask>
<path d="M35 37.8288H36.0442V36.7846H35V37.8288ZM32.0667 37.8288H31.0225V38.8729H32.0667V37.8288ZM32.0667 34.9174V33.8733H31.0225V34.9174H32.0667ZM35 34.9174V35.9616H36.0442V34.9174H35ZM38.6667 28.367V27.3228H38.6205L38.5745 27.3269L38.6667 28.367ZM41.9667 28.367H43.0108V27.3228H41.9667V28.367ZM41.9667 31.2783V32.3225H43.0108V31.2783H41.9667ZM37.9333 34.9174H36.8892V35.9616H37.9333V34.9174ZM41.6 34.9174H42.6441V33.8733H41.6V34.9174ZM41.6 37.8288V38.8729H42.6441V37.8288H41.6ZM37.9333 37.8288V36.7846H36.8892V37.8288H37.9333ZM37.9333 45.1071V46.1512H38.9775V45.1071H37.9333ZM35 45.1071H33.9558V46.1512H35V45.1071ZM45.2667 44.0153V42.9712H44.2225V44.0153H45.2667ZM38.6667 45.107H37.6225V46.1512H38.6667V45.107ZM38.6667 38.5566V37.5124H37.6225V38.5566H38.6667ZM42.3333 38.5566V39.6007H43.3775V38.5566H42.3333ZM42.3333 34.1896H43.3775V33.1455H42.3333V34.1896ZM38.6667 34.1896H37.6225V35.2338H38.6667V34.1896ZM42.7 32.0061V33.0503H43.7442V32.0061H42.7ZM42.7 27.6391H43.7442V26.595H42.7V27.6391ZM38.63 27.6391V26.595H38.5837L38.5376 26.5991L38.63 27.6391ZM34.2667 34.1896V35.2338H35.3108V34.1896H34.2667ZM31.3333 34.1896V33.1455H30.2892V34.1896H31.3333ZM31.3333 38.5566H30.2892V39.6007H31.3333V38.5566ZM34.2667 38.5566H35.3108V37.5124H34.2667V38.5566ZM34.2667 45.107V46.1512H35.3108V45.107H34.2667ZM45.2667 44.0153V45.0595H46.3108V44.0153H45.2667ZM44.1667 22.9558H25.8333V25.0442H44.1667V22.9558ZM25.8333 22.9558C24.2374 22.9558 22.9558 24.2165 22.9558 25.8196H25.0442C25.0442 25.3847 25.3759 25.0442 25.8333 25.0442V22.9558ZM22.9558 25.8196V44.0153H25.0442V25.8196H22.9558ZM22.9558 44.0153C22.9558 45.6184 24.2374 46.879 25.8333 46.879V44.7907C25.3759 44.7907 25.0442 44.4502 25.0442 44.0153H22.9558ZM25.8333 46.879H34.2667V44.7907H25.8333V46.879ZM34.2667 46.879H38.6667V44.7907H34.2667V46.879ZM38.6667 46.879H44.1667V44.7907H38.6667V46.879ZM44.1667 46.879C45.7626 46.879 47.0441 45.6183 47.0441 44.0153H44.9559C44.9559 44.4502 44.6241 44.7907 44.1667 44.7907V46.879ZM47.0441 44.0153V25.8196H44.9559V44.0153H47.0441ZM47.0441 25.8196C47.0441 24.2165 45.7626 22.9558 44.1667 22.9558V25.0442C44.6241 25.0442 44.9559 25.3847 44.9559 25.8196H47.0441ZM36.0442 45.107V37.8288H33.9558V45.107H36.0442ZM35 36.7846H32.0667V38.8729H35V36.7846ZM33.1108 37.8288V34.9174H31.0225V37.8288H33.1108ZM32.0667 35.9616H35V33.8733H32.0667V35.9616ZM36.0442 34.9174V32.3701H33.9558V34.9174H36.0442ZM36.0442 32.3701C36.0442 30.8397 37.2413 29.5415 38.7588 29.4071L38.5745 27.3269C35.9854 27.5564 33.9558 29.7517 33.9558 32.3701H36.0442ZM38.6667 29.4111H41.9667V27.3228H38.6667V29.4111ZM40.9225 28.367V31.2783H43.0108V28.367H40.9225ZM41.9667 30.2342H39.0333V32.3225H41.9667V30.2342ZM39.0333 30.2342C37.8407 30.2342 36.8892 31.1673 36.8892 32.3701H38.9775C38.9775 32.3506 38.981 32.341 38.9821 32.3382C38.9835 32.3349 38.9846 32.3338 38.9851 32.3333C38.9856 32.3328 38.9877 32.3308 38.993 32.3286C38.998 32.3266 39.0105 32.3225 39.0333 32.3225V30.2342ZM36.8892 32.3701V34.9174H38.9775V32.3701H36.8892ZM37.9333 35.9616H41.6V33.8733H37.9333V35.9616ZM40.5559 34.9174V37.8288H42.6441V34.9174H40.5559ZM41.6 36.7846H37.9333V38.8729H41.6V36.7846ZM36.8892 37.8288V45.1071H38.9775V37.8288H36.8892ZM37.9333 44.0629H35V46.1512H37.9333V44.0629ZM36.0442 45.1071V45.107H33.9558V45.1071H36.0442ZM44.2225 44.0153C44.2225 44.0348 44.219 44.0444 44.2178 44.0472C44.2165 44.0504 44.2154 44.0516 44.2149 44.0521C44.2143 44.0526 44.2123 44.0545 44.2069 44.0567C44.2019 44.0588 44.1894 44.0629 44.1667 44.0629V46.1512C45.3592 46.1512 46.3108 45.218 46.3108 44.0153H44.2225ZM44.1667 44.0629H38.6667V46.1512H44.1667V44.0629ZM39.7108 45.107V38.5566H37.6225V45.107H39.7108ZM38.6667 39.6007H42.3333V37.5124H38.6667V39.6007ZM43.3775 38.5566V34.1896H41.2892V38.5566H43.3775ZM42.3333 33.1455H38.6667V35.2338H42.3333V33.1455ZM39.7108 34.1896V32.37H37.6225V34.1896H39.7108ZM39.7108 32.37C39.7108 32.5005 39.6622 32.6893 39.503 32.8473C39.3445 33.0046 39.1582 33.0503 39.0333 33.0503V30.962C38.6884 30.962 38.3188 31.0804 38.0319 31.3651C37.7444 31.6505 37.6225 32.0212 37.6225 32.37H39.7108ZM39.0333 33.0503H42.7V30.962H39.0333V33.0503ZM43.7442 32.0061V27.6391H41.6558V32.0061H43.7442ZM42.7 26.595H38.63V28.6833H42.7V26.595ZM38.5376 26.5991C35.5486 26.8647 33.2225 29.3845 33.2225 32.37H35.3108C35.3108 30.4791 36.7981 28.8502 38.7224 28.6792L38.5376 26.5991ZM33.2225 32.37V34.1896H35.3108V32.37H33.2225ZM34.2667 33.1455H31.3333V35.2338H34.2667V33.1455ZM30.2892 34.1896V38.5566H32.3775V34.1896H30.2892ZM31.3333 39.6007H34.2667V37.5124H31.3333V39.6007ZM33.2225 38.5566V45.107H35.3108V38.5566H33.2225ZM34.2667 44.0629H25.8333V46.1512H34.2667V44.0629ZM25.8333 44.0629C25.8106 44.0629 25.7981 44.0588 25.7931 44.0567C25.7877 44.0545 25.7857 44.0526 25.7851 44.0521C25.7846 44.0516 25.7835 44.0504 25.7822 44.0472C25.781 44.0444 25.7775 44.0348 25.7775 44.0153H23.6892C23.6892 45.218 24.6408 46.1512 25.8333 46.1512V44.0629ZM25.7775 44.0153V25.8196H23.6892V44.0153H25.7775ZM25.7775 25.8196C25.7775 25.8001 25.781 25.7905 25.7822 25.7877C25.7835 25.7845 25.7846 25.7833 25.7851 25.7828C25.7857 25.7823 25.7877 25.7803 25.7931 25.7782C25.7981 25.7761 25.8106 25.772 25.8333 25.772V23.6837C24.6408 23.6837 23.6892 24.6168 23.6892 25.8196H25.7775ZM25.8333 25.772H44.1667V23.6837H25.8333V25.772ZM44.1667 25.772C44.1895 25.772 44.202 25.7761 44.207 25.7782C44.2123 25.7803 44.2144 25.7823 44.2149 25.7828C44.2154 25.7833 44.2165 25.7845 44.2179 25.7877C44.219 25.7905 44.2225 25.8001 44.2225 25.8196H46.3108C46.3108 24.6169 45.3593 23.6837 44.1667 23.6837V25.772ZM44.2225 25.8196V44.0153H46.3108V25.8196H44.2225ZM45.2667 42.9712H45.2667V45.0595H45.2667V42.9712Z" fill="white" mask="url(#path-9-inside-5)"/>
</g>
<defs>
<filter id="filter0_f" x="0.50662" y="0.50662" width="68.9868" height="68.8217" filterUnits="userSpaceOnUse" color-interpolation-filters="sRGB">
<feFlood flood-opacity="0" result="BackgroundImageFix"/>
<feBlend mode="normal" in="SourceGraphic" in2="BackgroundImageFix" result="shape"/>
<feGaussianBlur stdDeviation="11.7467" result="effect1_foregroundBlur"/>
</filter>
<filter id="filter1_f" x="16.1689" y="16.1689" width="37.6623" height="37.4971" filterUnits="userSpaceOnUse" color-interpolation-filters="sRGB">
<feFlood flood-opacity="0" result="BackgroundImageFix"/>
<feBlend mode="normal" in="SourceGraphic" in2="BackgroundImageFix" result="shape"/>
<feGaussianBlur stdDeviation="3.91556" result="effect1_foregroundBlur"/>
</filter>
<filter id="filter2_ddi" x="13.8195" y="21.6507" width="42.3609" height="42.1958" filterUnits="userSpaceOnUse" color-interpolation-filters="sRGB">
<feFlood flood-opacity="0" result="BackgroundImageFix"/>
<feColorMatrix in="SourceAlpha" type="matrix" values="0 0 0 0 0 0 0 0 0 0 0 0 0 0 0 0 0 0 127 0"/>
<feOffset dy="3.39349"/>
<feGaussianBlur stdDeviation="1.30519"/>
<feColorMatrix type="matrix" values="0 0 0 0 0.224 0 0 0 0 0.15 0 0 0 0 0 0 0 0 0.7 0"/>
<feBlend mode="multiply" in2="BackgroundImageFix" result="effect1_dropShadow"/>
<feColorMatrix in="SourceAlpha" type="matrix" values="0 0 0 0 0 0 0 0 0 0 0 0 0 0 0 0 0 0 127 0"/>
<feOffset dy="7.83113"/>
<feGaussianBlur stdDeviation="5.09023"/>
<feColorMatrix type="matrix" values="0 0 0 0 0.56 0 0 0 0 0.44 0 0 0 0 0 0 0 0 1 0"/>
<feBlend mode="color-dodge" in2="effect1_dropShadow" result="effect2_dropShadow"/>
<feBlend mode="normal" in="SourceGraphic" in2="effect2_dropShadow" result="shape"/>
<feColorMatrix in="SourceAlpha" type="matrix" values="0 0 0 0 0 0 0 0 0 0 0 0 0 0 0 0 0 0 127 0" result="hardAlpha"/>
<feOffset dx="-0.339349" dy="0.678698"/>
<feGaussianBlur stdDeviation="0.169674"/>
<feComposite in2="hardAlpha" operator="arithmetic" k2="-1" k3="1"/>
<feColorMatrix type="matrix" values="0 0 0 0 1 0 0 0 0 1 0 0 0 0 1 0 0 0 0.5 0"/>
<feBlend mode="normal" in2="shape" result="effect3_innerShadow"/>
</filter>
<filter id="filter3_f" x="23.4779" y="23.4779" width="23.0442" height="22.879" filterUnits="userSpaceOnUse" color-interpolation-filters="sRGB">
<feFlood flood-opacity="0" result="BackgroundImageFix"/>
<feBlend mode="normal" in="SourceGraphic" in2="BackgroundImageFix" result="shape"/>
<feGaussianBlur stdDeviation="0.261038" result="effect1_foregroundBlur"/>
</filter>
<filter id="filter4_f" x="23.6519" y="23.6519" width="22.6961" height="22.531" filterUnits="userSpaceOnUse" color-interpolation-filters="sRGB">
<feFlood flood-opacity="0" result="BackgroundImageFix"/>
<feBlend mode="normal" in="SourceGraphic" in2="BackgroundImageFix" result="shape"/>
<feGaussianBlur stdDeviation="0.174025" result="effect1_foregroundBlur"/>
</filter>
</defs>
</svg>
