<svg width="395" height="50" viewBox="0 0 395 50" fill="none" xmlns="http://www.w3.org/2000/svg">
<path d="M257 45H394V39" stroke="#FFE600"/>
<path d="M208.352 46.016V48H207.056V46L204.888 42.4H206.264L207.76 44.888L209.256 42.4H210.528L208.352 46.016ZM213.54 48.096C212.959 48.096 212.433 47.9707 211.964 47.72C211.5 47.4693 211.135 47.1253 210.868 46.688C210.607 46.2453 210.476 45.7493 210.476 45.2C210.476 44.6507 210.607 44.1573 210.868 43.72C211.135 43.2773 211.5 42.9307 211.964 42.68C212.433 42.4293 212.959 42.304 213.54 42.304C214.121 42.304 214.644 42.4293 215.108 42.68C215.572 42.9307 215.937 43.2773 216.204 43.72C216.471 44.1573 216.604 44.6507 216.604 45.2C216.604 45.7493 216.471 46.2453 216.204 46.688C215.937 47.1253 215.572 47.4693 215.108 47.72C214.644 47.9707 214.121 48.096 213.54 48.096ZM213.54 46.992C213.871 46.992 214.169 46.9173 214.436 46.768C214.703 46.6133 214.911 46.4 215.06 46.128C215.215 45.856 215.292 45.5467 215.292 45.2C215.292 44.8533 215.215 44.544 215.06 44.272C214.911 44 214.703 43.7893 214.436 43.64C214.169 43.4853 213.871 43.408 213.54 43.408C213.209 43.408 212.911 43.4853 212.644 43.64C212.377 43.7893 212.167 44 212.012 44.272C211.863 44.544 211.788 44.8533 211.788 45.2C211.788 45.5467 211.863 45.856 212.012 46.128C212.167 46.4 212.377 46.6133 212.644 46.768C212.911 46.9173 213.209 46.992 213.54 46.992ZM220.066 48.096C219.266 48.096 218.642 47.8747 218.194 47.432C217.751 46.9893 217.53 46.3573 217.53 45.536V42.4H218.826V45.488C218.826 46.4907 219.242 46.992 220.074 46.992C220.479 46.992 220.789 46.872 221.002 46.632C221.215 46.3867 221.322 46.0053 221.322 45.488V42.4H222.602V45.536C222.602 46.3573 222.378 46.9893 221.93 47.432C221.487 47.8747 220.866 48.096 220.066 48.096ZM224.949 43.456H223.157V42.4H228.037V43.456H226.245V48H224.949V43.456ZM231.129 48.096C230.329 48.096 229.705 47.8747 229.257 47.432C228.814 46.9893 228.593 46.3573 228.593 45.536V42.4H229.889V45.488C229.889 46.4907 230.305 46.992 231.137 46.992C231.542 46.992 231.851 46.872 232.065 46.632C232.278 46.3867 232.385 46.0053 232.385 45.488V42.4H233.665V45.536C233.665 46.3573 233.441 46.9893 232.993 47.432C232.55 47.8747 231.929 48.096 231.129 48.096ZM239.057 45.088C239.377 45.1893 239.628 45.36 239.809 45.6C239.991 45.8347 240.081 46.1253 240.081 46.472C240.081 46.9627 239.889 47.3413 239.505 47.608C239.127 47.8693 238.572 48 237.841 48H234.945V42.4H237.681C238.364 42.4 238.887 42.5307 239.249 42.792C239.617 43.0533 239.801 43.408 239.801 43.856C239.801 44.128 239.735 44.3707 239.601 44.584C239.473 44.7973 239.292 44.9653 239.057 45.088ZM236.233 43.376V44.696H237.521C237.841 44.696 238.084 44.64 238.249 44.528C238.415 44.416 238.497 44.2507 238.497 44.032C238.497 43.8133 238.415 43.6507 238.249 43.544C238.084 43.432 237.841 43.376 237.521 43.376H236.233ZM237.745 47.024C238.087 47.024 238.343 46.968 238.513 46.856C238.689 46.744 238.777 46.5707 238.777 46.336C238.777 45.872 238.433 45.64 237.745 45.64H236.233V47.024H237.745ZM245.398 46.96V48H241.062V42.4H245.294V43.44H242.35V44.656H244.95V45.664H242.35V46.96H245.398Z" fill="#FFE600"/>
<path d="M195.5 45.0028H190.5L178.5 34.5028L176.627 22.5028H120.51M120.51 22.5028V1.00281H80.5M120.51 22.5028V31.1401L112.196 38.4146H97.647M5.15685 38.4146H0.999985V11.395L9.31371 1.00281H40.4902M40.4902 1.00281V38.4146M40.4902 1.00281H80.5M40.4902 38.4146H47.7647H17.6274H40.4902ZM80.5 1.00281V38.4146M80.5 38.4146H85.1765H59.1961H80.5Z" stroke="#FFE600"/>
</svg>
