<svg width="143" height="86" viewBox="0 0 143 86" fill="none" xmlns="http://www.w3.org/2000/svg">
<path d="M1 0V52.1594H34V59" stroke="url(#paint0_linear)"/>
<path d="M43.9297 72.0292V78.3057H48.15V82.1682H62.6864V72.0292H65.9689" stroke="#FFE600"/>
<path d="M42.5229 72.5121V82.6511" stroke="#FFE600"/>
<path d="M73.0022 58.9935H76.7535V61.7644H80.036V69.6153H88.9454" stroke="#FFE600"/>
<path d="M103.951 56.8864V55.1307H110.516V67.4204H112.861V69.615H119.895" stroke="#FFE600"/>
<path d="M80.0366 68.1666H85.6636" stroke="#FFE600"/>
<g filter="url(#filter0_d)">
<path d="M32.2255 75.7342V73.2342H29.7255V70.7342H34.7255V73.2342H42.2255V68.2342H34.7255V65.7342H37.2255V63.2342H39.7255V60.7342H32.2255V58.2342H47.2255V60.7342H44.7255V63.2342H42.2255V65.7342H44.7255V68.2342H47.2255V73.2342H44.7255V75.7342H32.2255ZM65.0255 75.7342V73.2342H62.5255V70.7342H60.0255V63.2342H62.5255V60.7342H65.0255V58.2342H72.5255V60.7342H75.0255V63.2342H77.5255V70.7342H75.0255V73.2342H72.5255V75.7342H65.0255ZM67.5255 73.2342H72.5255V63.2342H70.0255V60.7342H65.0255V70.7342H67.5255V73.2342ZM92.8255 75.7342V73.2342H90.3255V70.7342H95.3255V73.2342H102.826V68.2342H95.3255V65.7342H97.8255V63.2342H100.326V60.7342H92.8255V58.2342H107.826V60.7342H105.326V63.2342H102.826V65.7342H105.326V68.2342H107.826V73.2342H105.326V75.7342H92.8255ZM125.626 75.7342V73.2342H123.126V70.7342H120.626V63.2342H123.126V60.7342H125.626V58.2342H133.126V60.7342H135.626V63.2342H138.126V70.7342H135.626V73.2342H133.126V75.7342H125.626ZM128.126 73.2342H133.126V63.2342H130.626V60.7342H125.626V70.7342H128.126V73.2342Z" fill="#FB2740"/>
</g>
<g filter="url(#filter1_d)">
<path d="M30.3498 73.8028V71.3028H27.8498V68.8028H32.8498V71.3028H40.3498V66.3028H32.8498V63.8028H35.3498V61.3028H37.8498V58.8028H30.3498V56.3028H45.3498V58.8028H42.8498V61.3028H40.3498V63.8028H42.8498V66.3028H45.3498V71.3028H42.8498V73.8028H30.3498ZM63.1498 73.8028V71.3028H60.6498V68.8028H58.1498V61.3028H60.6498V58.8028H63.1498V56.3028H70.6498V58.8028H73.1498V61.3028H75.6498V68.8028H73.1498V71.3028H70.6498V73.8028H63.1498ZM65.6498 71.3028H70.6498V61.3028H68.1498V58.8028H63.1498V68.8028H65.6498V71.3028ZM90.9498 73.8028V71.3028H88.4498V68.8028H93.4498V71.3028H100.95V66.3028H93.4498V63.8028H95.9498V61.3028H98.4498V58.8028H90.9498V56.3028H105.95V58.8028H103.45V61.3028H100.95V63.8028H103.45V66.3028H105.95V71.3028H103.45V73.8028H90.9498ZM123.75 73.8028V71.3028H121.25V68.8028H118.75V61.3028H121.25V58.8028H123.75V56.3028H131.25V58.8028H133.75V61.3028H136.25V68.8028H133.75V71.3028H131.25V73.8028H123.75ZM126.25 71.3028H131.25V61.3028H128.75V58.8028H123.75V68.8028H126.25V71.3028Z" fill="#FFE600"/>
</g>
<defs>
<filter id="filter0_d" x="25.7256" y="58.2342" width="116.4" height="25.5" filterUnits="userSpaceOnUse" color-interpolation-filters="sRGB">
<feFlood flood-opacity="0" result="BackgroundImageFix"/>
<feColorMatrix in="SourceAlpha" type="matrix" values="0 0 0 0 0 0 0 0 0 0 0 0 0 0 0 0 0 0 127 0"/>
<feOffset dy="4"/>
<feGaussianBlur stdDeviation="2"/>
<feColorMatrix type="matrix" values="0 0 0 0 0 0 0 0 0 0 0 0 0 0 0 0 0 0 0.25 0"/>
<feBlend mode="normal" in2="BackgroundImageFix" result="effect1_dropShadow"/>
<feBlend mode="normal" in="SourceGraphic" in2="effect1_dropShadow" result="shape"/>
</filter>
<filter id="filter1_d" x="23.8499" y="56.3028" width="116.4" height="25.5" filterUnits="userSpaceOnUse" color-interpolation-filters="sRGB">
<feFlood flood-opacity="0" result="BackgroundImageFix"/>
<feColorMatrix in="SourceAlpha" type="matrix" values="0 0 0 0 0 0 0 0 0 0 0 0 0 0 0 0 0 0 127 0"/>
<feOffset dy="4"/>
<feGaussianBlur stdDeviation="2"/>
<feColorMatrix type="matrix" values="0 0 0 0 0 0 0 0 0 0 0 0 0 0 0 0 0 0 0.25 0"/>
<feBlend mode="normal" in2="BackgroundImageFix" result="effect1_dropShadow"/>
<feBlend mode="normal" in="SourceGraphic" in2="effect1_dropShadow" result="shape"/>
</filter>
<linearGradient id="paint0_linear" x1="17.5" y1="0" x2="17.5" y2="59" gradientUnits="userSpaceOnUse">
<stop stop-color="#FB2740"/>
<stop offset="1" stop-color="#FFE600"/>
</linearGradient>
</defs>
</svg>
