<svg width="346" height="76" viewBox="0 0 346 76" fill="none" xmlns="http://www.w3.org/2000/svg">
<g style="mix-blend-mode:hard-light" filter="url(#filter0_f)">
<mask id="path-1-outside-1" maskUnits="userSpaceOnUse" x="12" y="12.0073" width="323" height="52" fill="black">
<rect fill="white" x="12" y="12.0073" width="323" height="52"/>
<path d="M22.9991 53.0008V48.0017H18V43.0027H22.9991V28.0055H18V23.0064H22.9991V18.0073H32.9972V23.0064H37.9963V18.0073H47.9944V23.0064H52.9935V28.0055H47.9944V43.0027H52.9935V48.0017H47.9944V53.0008H37.9963V48.0017H32.9972V53.0008H22.9991ZM32.9972 43.0027H37.9963V28.0055H32.9972V43.0027Z"/>
<path d="M78.9887 28.0055H83.9877V33.0045H88.9868V38.0036H93.9859V48.0017H98.9849V53.0008H88.9868V48.0017H83.9877V38.0036H73.9896V53.0008H63.9914V18.0073H73.9896V33.0045H78.9887V28.0055ZM98.9849 18.0073V23.0064H93.9859V28.0055H83.9877V23.0064H88.9868V18.0073H98.9849Z"/>
<path d="M114.982 53.0008V48.0017H109.983V23.0064H114.982V18.0073H139.977V23.0064H144.976V48.0017H139.977V53.0008H114.982ZM119.981 48.0017H134.978V23.0064H119.981V48.0017Z"/>
<path d="M155.974 53.0008V43.0027H160.973V38.0036H165.972V18.0073H190.968V53.0008H180.97V23.0064H170.972V48.0017H165.972V53.0008H155.974Z"/>
<path d="M201.966 53.0008V18.0073H211.964V28.0055H231.96V33.0045H236.959V48.0017H231.96V53.0008H201.966ZM211.964 48.0017H226.961V33.0045H211.964V48.0017Z"/>
<path d="M272.953 57.9999V53.0008H247.957V18.0073H257.955V48.0017H267.954V18.0073H277.952V48.0017H282.951V57.9999H272.953Z"/>
<path d="M298.948 53.0008V48.0017H293.949V23.0064H298.948V18.0073H323.943V23.0064H328.942V48.0017H323.943V53.0008H298.948ZM303.947 48.0017H318.944V23.0064H303.947V48.0017Z"/>
</mask>
<path d="M22.9991 53.0008H17.8895V58.1104H22.9991V53.0008ZM22.9991 48.0017H28.1087V42.8921H22.9991V48.0017ZM18 48.0017H12.8904V53.1114H18V48.0017ZM18 43.0027V37.8931H12.8904V43.0027H18ZM22.9991 43.0027V48.1123H28.1087V43.0027H22.9991ZM22.9991 28.0055H28.1087V22.8959H22.9991V28.0055ZM18 28.0055H12.8904V33.1151H18V28.0055ZM18 23.0064V17.8968H12.8904V23.0064H18ZM22.9991 23.0064V28.116H28.1087V23.0064H22.9991ZM22.9991 18.0073V12.8977H17.8895V18.0073H22.9991ZM32.9972 18.0073H38.1068V12.8977H32.9972V18.0073ZM32.9972 23.0064H27.8876V28.116H32.9972V23.0064ZM37.9963 23.0064V28.116H43.1059V23.0064H37.9963ZM37.9963 18.0073V12.8977H32.8867V18.0073H37.9963ZM47.9944 18.0073H53.104V12.8977H47.9944V18.0073ZM47.9944 23.0064H42.8848V28.116H47.9944V23.0064ZM52.9935 23.0064H58.1031V17.8968H52.9935V23.0064ZM52.9935 28.0055V33.1151H58.1031V28.0055H52.9935ZM47.9944 28.0055V22.8959H42.8848V28.0055H47.9944ZM47.9944 43.0027H42.8848V48.1123H47.9944V43.0027ZM52.9935 43.0027H58.1031V37.8931H52.9935V43.0027ZM52.9935 48.0017V53.1114H58.1031V48.0017H52.9935ZM47.9944 48.0017V42.8921H42.8848V48.0017H47.9944ZM47.9944 53.0008V58.1104H53.104V53.0008H47.9944ZM37.9963 53.0008H32.8867V58.1104H37.9963V53.0008ZM37.9963 48.0017H43.1059V42.8921H37.9963V48.0017ZM32.9972 48.0017V42.8921H27.8876V48.0017H32.9972ZM32.9972 53.0008V58.1104H38.1068V53.0008H32.9972ZM32.9972 43.0027H27.8876V48.1123H32.9972V43.0027ZM37.9963 43.0027V48.1123H43.1059V43.0027H37.9963ZM37.9963 28.0055H43.1059V22.8959H37.9963V28.0055ZM32.9972 28.0055V22.8959H27.8876V28.0055H32.9972ZM78.9887 28.0055V22.8959H73.879V28.0055H78.9887ZM83.9877 33.0045H78.8781V38.1141H83.9877V33.0045ZM88.9868 33.0045H94.0964V27.8949H88.9868V33.0045ZM88.9868 38.0036H83.8772V43.1132H88.9868V38.0036ZM93.9859 38.0036H99.0955V32.894H93.9859V38.0036ZM93.9859 48.0017H88.8763V53.1114H93.9859V48.0017ZM98.9849 48.0017H104.095V42.8921H98.9849V48.0017ZM98.9849 53.0008V58.1104H104.095V53.0008H98.9849ZM88.9868 53.0008H83.8772V58.1104H88.9868V53.0008ZM88.9868 48.0017H94.0964V42.8921H88.9868V48.0017ZM83.9877 48.0017H78.8781V53.1114H83.9877V48.0017ZM83.9877 38.0036H89.0973V32.894H83.9877V38.0036ZM73.9896 38.0036V32.894H68.88V38.0036H73.9896ZM73.9896 53.0008V58.1104H79.0992V53.0008H73.9896ZM63.9914 53.0008H58.8818V58.1104H63.9914V53.0008ZM63.9914 18.0073V12.8977H58.8818V18.0073H63.9914ZM73.9896 18.0073H79.0992V12.8977H73.9896V18.0073ZM73.9896 33.0045H68.88V38.1141H73.9896V33.0045ZM78.9887 33.0045V38.1141H84.0983V33.0045H78.9887ZM98.9849 18.0073H104.095V12.8977H98.9849V18.0073ZM98.9849 23.0064V28.116H104.095V23.0064H98.9849ZM93.9859 23.0064V17.8968H88.8763V23.0064H93.9859ZM93.9859 28.0055V33.1151H99.0955V28.0055H93.9859ZM83.9877 23.0064V17.8968H78.8781V23.0064H83.9877ZM88.9868 23.0064V28.116H94.0964V23.0064H88.9868ZM88.9868 18.0073V12.8977H83.8772V18.0073H88.9868ZM114.982 53.0008H109.872V58.1104H114.982V53.0008ZM114.982 48.0017H120.092V42.8921H114.982V48.0017ZM109.983 48.0017H104.873V53.1114H109.983V48.0017ZM109.983 23.0064V17.8968H104.873V23.0064H109.983ZM114.982 23.0064V28.116H120.092V23.0064H114.982ZM114.982 18.0073V12.8977H109.872V18.0073H114.982ZM139.977 18.0073H145.087V12.8977H139.977V18.0073ZM139.977 23.0064H134.868V28.116H139.977V23.0064ZM144.976 23.0064H150.086V17.8968H144.976V23.0064ZM144.976 48.0017V53.1114H150.086V48.0017H144.976ZM139.977 48.0017V42.8921H134.868V48.0017H139.977ZM139.977 53.0008V58.1104H145.087V53.0008H139.977ZM119.981 48.0017H114.871V53.1114H119.981V48.0017ZM134.978 48.0017V53.1114H140.088V48.0017H134.978ZM134.978 23.0064H140.088V17.8968H134.978V23.0064ZM119.981 23.0064V17.8968H114.871V23.0064H119.981ZM155.974 53.0008H150.865V58.1104H155.974V53.0008ZM155.974 43.0027V37.8931H150.865V43.0027H155.974ZM160.973 43.0027V48.1123H166.083V43.0027H160.973ZM160.973 38.0036V32.894H155.864V38.0036H160.973ZM165.972 38.0036V43.1132H171.082V38.0036H165.972ZM165.972 18.0073V12.8977H160.863V18.0073H165.972ZM190.968 18.0073H196.077V12.8977H190.968V18.0073ZM190.968 53.0008V58.1104H196.077V53.0008H190.968ZM180.97 53.0008H175.86V58.1104H180.97V53.0008ZM180.97 23.0064H186.079V17.8968H180.97V23.0064ZM170.972 23.0064V17.8968H165.862V23.0064H170.972ZM170.972 48.0017V53.1114H176.081V48.0017H170.972ZM165.972 48.0017V42.8921H160.863V48.0017H165.972ZM165.972 53.0008V58.1104H171.082V53.0008H165.972ZM201.966 53.0008H196.856V58.1104H201.966V53.0008ZM201.966 18.0073V12.8977H196.856V18.0073H201.966ZM211.964 18.0073H217.074V12.8977H211.964V18.0073ZM211.964 28.0055H206.854V33.1151H211.964V28.0055ZM231.96 28.0055H237.07V22.8959H231.96V28.0055ZM231.96 33.0045H226.851V38.1141H231.96V33.0045ZM236.959 33.0045H242.069V27.8949H236.959V33.0045ZM236.959 48.0017V53.1114H242.069V48.0017H236.959ZM231.96 48.0017V42.8921H226.851V48.0017H231.96ZM231.96 53.0008V58.1104H237.07V53.0008H231.96ZM211.964 48.0017H206.854V53.1114H211.964V48.0017ZM226.961 48.0017V53.1114H232.071V48.0017H226.961ZM226.961 33.0045H232.071V27.8949H226.961V33.0045ZM211.964 33.0045V27.8949H206.854V33.0045H211.964ZM272.953 57.9999H267.843V63.1095H272.953V57.9999ZM272.953 53.0008H278.062V47.8912H272.953V53.0008ZM247.957 53.0008H242.848V58.1104H247.957V53.0008ZM247.957 18.0073V12.8977H242.848V18.0073H247.957ZM257.955 18.0073H263.065V12.8977H257.955V18.0073ZM257.955 48.0017H252.846V53.1114H257.955V48.0017ZM267.954 48.0017V53.1114H273.063V48.0017H267.954ZM267.954 18.0073V12.8977H262.844V18.0073H267.954ZM277.952 18.0073H283.061V12.8977H277.952V18.0073ZM277.952 48.0017H272.842V53.1114H277.952V48.0017ZM282.951 48.0017H288.06V42.8921H282.951V48.0017ZM282.951 57.9999V63.1095H288.06V57.9999H282.951ZM298.948 53.0008H293.838V58.1104H298.948V53.0008ZM298.948 48.0017H304.057V42.8921H298.948V48.0017ZM293.949 48.0017H288.839V53.1114H293.949V48.0017ZM293.949 23.0064V17.8968H288.839V23.0064H293.949ZM298.948 23.0064V28.116H304.057V23.0064H298.948ZM298.948 18.0073V12.8977H293.838V18.0073H298.948ZM323.943 18.0073H329.053V12.8977H323.943V18.0073ZM323.943 23.0064H318.833V28.116H323.943V23.0064ZM328.942 23.0064H334.052V17.8968H328.942V23.0064ZM328.942 48.0017V53.1114H334.052V48.0017H328.942ZM323.943 48.0017V42.8921H318.833V48.0017H323.943ZM323.943 53.0008V58.1104H329.053V53.0008H323.943ZM303.947 48.0017H298.837V53.1114H303.947V48.0017ZM318.944 48.0017V53.1114H324.054V48.0017H318.944ZM318.944 23.0064H324.054V17.8968H318.944V23.0064ZM303.947 23.0064V17.8968H298.837V23.0064H303.947ZM28.1087 53.0008V48.0017H17.8895V53.0008H28.1087ZM22.9991 42.8921H18V53.1114H22.9991V42.8921ZM23.1096 48.0017V43.0027H12.8904V48.0017H23.1096ZM18 48.1123H22.9991V37.8931H18V48.1123ZM28.1087 43.0027V28.0055H17.8895V43.0027H28.1087ZM22.9991 22.8959H18V33.1151H22.9991V22.8959ZM23.1096 28.0055V23.0064H12.8904V28.0055H23.1096ZM18 28.116H22.9991V17.8968H18V28.116ZM28.1087 23.0064V18.0073H17.8895V23.0064H28.1087ZM22.9991 23.1169H32.9972V12.8977H22.9991V23.1169ZM27.8876 18.0073V23.0064H38.1068V18.0073H27.8876ZM32.9972 28.116H37.9963V17.8968H32.9972V28.116ZM43.1059 23.0064V18.0073H32.8867V23.0064H43.1059ZM37.9963 23.1169H47.9944V12.8977H37.9963V23.1169ZM42.8848 18.0073V23.0064H53.104V18.0073H42.8848ZM47.9944 28.116H52.9935V17.8968H47.9944V28.116ZM47.8839 23.0064V28.0055H58.1031V23.0064H47.8839ZM52.9935 22.8959H47.9944V33.1151H52.9935V22.8959ZM42.8848 28.0055V43.0027H53.104V28.0055H42.8848ZM47.9944 48.1123H52.9935V37.8931H47.9944V48.1123ZM47.8839 43.0027V48.0017H58.1031V43.0027H47.8839ZM52.9935 42.8921H47.9944V53.1114H52.9935V42.8921ZM42.8848 48.0017V53.0008H53.104V48.0017H42.8848ZM47.9944 47.8912H37.9963V58.1104H47.9944V47.8912ZM43.1059 53.0008V48.0017H32.8867V53.0008H43.1059ZM37.9963 42.8921H32.9972V53.1114H37.9963V42.8921ZM27.8876 48.0017V53.0008H38.1068V48.0017H27.8876ZM32.9972 47.8912H22.9991V58.1104H32.9972V47.8912ZM32.9972 48.1123H37.9963V37.8931H32.9972V48.1123ZM43.1059 43.0027V28.0055H32.8867V43.0027H43.1059ZM37.9963 22.8959H32.9972V33.1151H37.9963V22.8959ZM27.8876 28.0055V43.0027H38.1068V28.0055H27.8876ZM78.9887 33.1151H83.9877V22.8959H78.9887V33.1151ZM78.8781 28.0055V33.0045H89.0973V28.0055H78.8781ZM83.9877 38.1141H88.9868V27.8949H83.9877V38.1141ZM83.8772 33.0045V38.0036H94.0964V33.0045H83.8772ZM88.9868 43.1132H93.9859V32.894H88.9868V43.1132ZM88.8763 38.0036V48.0017H99.0955V38.0036H88.8763ZM93.9859 53.1114H98.9849V42.8921H93.9859V53.1114ZM93.8753 48.0017V53.0008H104.095V48.0017H93.8753ZM98.9849 47.8912H88.9868V58.1104H98.9849V47.8912ZM94.0964 53.0008V48.0017H83.8772V53.0008H94.0964ZM88.9868 42.8921H83.9877V53.1114H88.9868V42.8921ZM89.0973 48.0017V38.0036H78.8781V48.0017H89.0973ZM83.9877 32.894H73.9896V43.1132H83.9877V32.894ZM68.88 38.0036V53.0008H79.0992V38.0036H68.88ZM73.9896 47.8912H63.9914V58.1104H73.9896V47.8912ZM69.1011 53.0008V18.0073H58.8818V53.0008H69.1011ZM63.9914 23.1169H73.9896V12.8977H63.9914V23.1169ZM68.88 18.0073V33.0045H79.0992V18.0073H68.88ZM73.9896 38.1141H78.9887V27.8949H73.9896V38.1141ZM84.0983 33.0045V28.0055H73.879V33.0045H84.0983ZM93.8753 18.0073V23.0064H104.095V18.0073H93.8753ZM98.9849 17.8968H93.9859V28.116H98.9849V17.8968ZM88.8763 23.0064V28.0055H99.0955V23.0064H88.8763ZM93.9859 22.8959H83.9877V33.1151H93.9859V22.8959ZM89.0973 28.0055V23.0064H78.8781V28.0055H89.0973ZM83.9877 28.116H88.9868V17.8968H83.9877V28.116ZM94.0964 23.0064V18.0073H83.8772V23.0064H94.0964ZM88.9868 23.1169H98.9849V12.8977H88.9868V23.1169ZM120.092 53.0008V48.0017H109.872V53.0008H120.092ZM114.982 42.8921H109.983V53.1114H114.982V42.8921ZM115.092 48.0017V23.0064H104.873V48.0017H115.092ZM109.983 28.116H114.982V17.8968H109.983V28.116ZM120.092 23.0064V18.0073H109.872V23.0064H120.092ZM114.982 23.1169H139.977V12.8977H114.982V23.1169ZM134.868 18.0073V23.0064H145.087V18.0073H134.868ZM139.977 28.116H144.976V17.8968H139.977V28.116ZM139.867 23.0064V48.0017H150.086V23.0064H139.867ZM144.976 42.8921H139.977V53.1114H144.976V42.8921ZM134.868 48.0017V53.0008H145.087V48.0017H134.868ZM139.977 47.8912H114.982V58.1104H139.977V47.8912ZM119.981 53.1114H134.978V42.8921H119.981V53.1114ZM140.088 48.0017V23.0064H129.869V48.0017H140.088ZM134.978 17.8968H119.981V28.116H134.978V17.8968ZM114.871 23.0064V48.0017H125.091V23.0064H114.871ZM161.084 53.0008V43.0027H150.865V53.0008H161.084ZM155.974 48.1123H160.973V37.8931H155.974V48.1123ZM166.083 43.0027V38.0036H155.864V43.0027H166.083ZM160.973 43.1132H165.972V32.894H160.973V43.1132ZM171.082 38.0036V18.0073H160.863V38.0036H171.082ZM165.972 23.1169H190.968V12.8977H165.972V23.1169ZM185.858 18.0073V53.0008H196.077V18.0073H185.858ZM190.968 47.8912H180.97V58.1104H190.968V47.8912ZM186.079 53.0008V23.0064H175.86V53.0008H186.079ZM180.97 17.8968H170.972V28.116H180.97V17.8968ZM165.862 23.0064V48.0017H176.081V23.0064H165.862ZM170.972 42.8921H165.972V53.1114H170.972V42.8921ZM160.863 48.0017V53.0008H171.082V48.0017H160.863ZM165.972 47.8912H155.974V58.1104H165.972V47.8912ZM207.075 53.0008V18.0073H196.856V53.0008H207.075ZM201.966 23.1169H211.964V12.8977H201.966V23.1169ZM206.854 18.0073V28.0055H217.074V18.0073H206.854ZM211.964 33.1151H231.96V22.8959H211.964V33.1151ZM226.851 28.0055V33.0045H237.07V28.0055H226.851ZM231.96 38.1141H236.959V27.8949H231.96V38.1141ZM231.85 33.0045V48.0017H242.069V33.0045H231.85ZM236.959 42.8921H231.96V53.1114H236.959V42.8921ZM226.851 48.0017V53.0008H237.07V48.0017H226.851ZM231.96 47.8912H201.966V58.1104H231.96V47.8912ZM211.964 53.1114H226.961V42.8921H211.964V53.1114ZM232.071 48.0017V33.0045H221.852V48.0017H232.071ZM226.961 27.8949H211.964V38.1141H226.961V27.8949ZM206.854 33.0045V48.0017H217.074V33.0045H206.854ZM278.062 57.9999V53.0008H267.843V57.9999H278.062ZM272.953 47.8912H247.957V58.1104H272.953V47.8912ZM253.067 53.0008V18.0073H242.848V53.0008H253.067ZM247.957 23.1169H257.955V12.8977H247.957V23.1169ZM252.846 18.0073V48.0017H263.065V18.0073H252.846ZM257.955 53.1114H267.954V42.8921H257.955V53.1114ZM273.063 48.0017V18.0073H262.844V48.0017H273.063ZM267.954 23.1169H277.952V12.8977H267.954V23.1169ZM272.842 18.0073V48.0017H283.061V18.0073H272.842ZM277.952 53.1114H282.951V42.8921H277.952V53.1114ZM277.841 48.0017V57.9999H288.06V48.0017H277.841ZM282.951 52.8903H272.953V63.1095H282.951V52.8903ZM304.057 53.0008V48.0017H293.838V53.0008H304.057ZM298.948 42.8921H293.949V53.1114H298.948V42.8921ZM299.058 48.0017V23.0064H288.839V48.0017H299.058ZM293.949 28.116H298.948V17.8968H293.949V28.116ZM304.057 23.0064V18.0073H293.838V23.0064H304.057ZM298.948 23.1169H323.943V12.8977H298.948V23.1169ZM318.833 18.0073V23.0064H329.053V18.0073H318.833ZM323.943 28.116H328.942V17.8968H323.943V28.116ZM323.833 23.0064V48.0017H334.052V23.0064H323.833ZM328.942 42.8921H323.943V53.1114H328.942V42.8921ZM318.833 48.0017V53.0008H329.053V48.0017H318.833ZM323.943 47.8912H298.948V58.1104H323.943V47.8912ZM303.947 53.1114H318.944V42.8921H303.947V53.1114ZM324.054 48.0017V23.0064H313.834V48.0017H324.054ZM318.944 17.8968H303.947V28.116H318.944V17.8968ZM298.837 23.0064V48.0017H309.056V23.0064H298.837Z" fill="#0094FF" mask="url(#path-1-outside-1)"/>
</g>
<g style="mix-blend-mode:hard-light" filter="url(#filter1_f)">
<mask id="path-3-outside-2" maskUnits="userSpaceOnUse" x="11" y="11.0073" width="325" height="54" fill="black">
<rect fill="white" x="11" y="11.0073" width="325" height="54"/>
<path d="M22.9991 53.0008V48.0017H18V43.0027H22.9991V28.0055H18V23.0064H22.9991V18.0073H32.9972V23.0064H37.9963V18.0073H47.9944V23.0064H52.9935V28.0055H47.9944V43.0027H52.9935V48.0017H47.9944V53.0008H37.9963V48.0017H32.9972V53.0008H22.9991ZM32.9972 43.0027H37.9963V28.0055H32.9972V43.0027Z"/>
<path d="M78.9887 28.0055H83.9877V33.0045H88.9868V38.0036H93.9859V48.0017H98.9849V53.0008H88.9868V48.0017H83.9877V38.0036H73.9896V53.0008H63.9914V18.0073H73.9896V33.0045H78.9887V28.0055ZM98.9849 18.0073V23.0064H93.9859V28.0055H83.9877V23.0064H88.9868V18.0073H98.9849Z"/>
<path d="M114.982 53.0008V48.0017H109.983V23.0064H114.982V18.0073H139.977V23.0064H144.976V48.0017H139.977V53.0008H114.982ZM119.981 48.0017H134.978V23.0064H119.981V48.0017Z"/>
<path d="M155.974 53.0008V43.0027H160.973V38.0036H165.972V18.0073H190.968V53.0008H180.97V23.0064H170.972V48.0017H165.972V53.0008H155.974Z"/>
<path d="M201.966 53.0008V18.0073H211.964V28.0055H231.96V33.0045H236.959V48.0017H231.96V53.0008H201.966ZM211.964 48.0017H226.961V33.0045H211.964V48.0017Z"/>
<path d="M272.953 57.9999V53.0008H247.957V18.0073H257.955V48.0017H267.954V18.0073H277.952V48.0017H282.951V57.9999H272.953Z"/>
<path d="M298.948 53.0008V48.0017H293.949V23.0064H298.948V18.0073H323.943V23.0064H328.942V48.0017H323.943V53.0008H298.948ZM303.947 48.0017H318.944V23.0064H303.947V48.0017Z"/>
</mask>
<path d="M22.9991 53.0008H16.3173V59.6826H22.9991V53.0008ZM22.9991 48.0017H29.6809V41.3199H22.9991V48.0017ZM18 48.0017H11.3182V54.6835H18V48.0017ZM18 43.0027V36.3209H11.3182V43.0027H18ZM22.9991 43.0027V49.6845H29.6809V43.0027H22.9991ZM22.9991 28.0055H29.6809V21.3237H22.9991V28.0055ZM18 28.0055H11.3182V34.6873H18V28.0055ZM18 23.0064V16.3246H11.3182V23.0064H18ZM22.9991 23.0064V29.6882H29.6809V23.0064H22.9991ZM22.9991 18.0073V11.3255H16.3173V18.0073H22.9991ZM32.9972 18.0073H39.679V11.3255H32.9972V18.0073ZM32.9972 23.0064H26.3154V29.6882H32.9972V23.0064ZM37.9963 23.0064V29.6882H44.6781V23.0064H37.9963ZM37.9963 18.0073V11.3255H31.3145V18.0073H37.9963ZM47.9944 18.0073H54.6762V11.3255H47.9944V18.0073ZM47.9944 23.0064H41.3126V29.6882H47.9944V23.0064ZM52.9935 23.0064H59.6753V16.3246H52.9935V23.0064ZM52.9935 28.0055V34.6873H59.6753V28.0055H52.9935ZM47.9944 28.0055V21.3237H41.3126V28.0055H47.9944ZM47.9944 43.0027H41.3126V49.6845H47.9944V43.0027ZM52.9935 43.0027H59.6753V36.3209H52.9935V43.0027ZM52.9935 48.0017V54.6835H59.6753V48.0017H52.9935ZM47.9944 48.0017V41.3199H41.3126V48.0017H47.9944ZM47.9944 53.0008V59.6826H54.6762V53.0008H47.9944ZM37.9963 53.0008H31.3145V59.6826H37.9963V53.0008ZM37.9963 48.0017H44.6781V41.3199H37.9963V48.0017ZM32.9972 48.0017V41.3199H26.3154V48.0017H32.9972ZM32.9972 53.0008V59.6826H39.679V53.0008H32.9972ZM32.9972 43.0027H26.3154V49.6845H32.9972V43.0027ZM37.9963 43.0027V49.6845H44.6781V43.0027H37.9963ZM37.9963 28.0055H44.6781V21.3237H37.9963V28.0055ZM32.9972 28.0055V21.3237H26.3154V28.0055H32.9972ZM78.9887 28.0055V21.3237H72.3069V28.0055H78.9887ZM83.9877 33.0045H77.3059V39.6863H83.9877V33.0045ZM88.9868 33.0045H95.6686V26.3227H88.9868V33.0045ZM88.9868 38.0036H82.305V44.6854H88.9868V38.0036ZM93.9859 38.0036H100.668V31.3218H93.9859V38.0036ZM93.9859 48.0017H87.3041V54.6835H93.9859V48.0017ZM98.9849 48.0017H105.667V41.3199H98.9849V48.0017ZM98.9849 53.0008V59.6826H105.667V53.0008H98.9849ZM88.9868 53.0008H82.305V59.6826H88.9868V53.0008ZM88.9868 48.0017H95.6686V41.3199H88.9868V48.0017ZM83.9877 48.0017H77.3059V54.6835H83.9877V48.0017ZM83.9877 38.0036H90.6695V31.3218H83.9877V38.0036ZM73.9896 38.0036V31.3218H67.3078V38.0036H73.9896ZM73.9896 53.0008V59.6826H80.6714V53.0008H73.9896ZM63.9914 53.0008H57.3096V59.6826H63.9914V53.0008ZM63.9914 18.0073V11.3255H57.3096V18.0073H63.9914ZM73.9896 18.0073H80.6714V11.3255H73.9896V18.0073ZM73.9896 33.0045H67.3078V39.6863H73.9896V33.0045ZM78.9887 33.0045V39.6863H85.6705V33.0045H78.9887ZM98.9849 18.0073H105.667V11.3255H98.9849V18.0073ZM98.9849 23.0064V29.6882H105.667V23.0064H98.9849ZM93.9859 23.0064V16.3246H87.3041V23.0064H93.9859ZM93.9859 28.0055V34.6873H100.668V28.0055H93.9859ZM83.9877 23.0064V16.3246H77.3059V23.0064H83.9877ZM88.9868 23.0064V29.6882H95.6686V23.0064H88.9868ZM88.9868 18.0073V11.3255H82.305V18.0073H88.9868ZM114.982 53.0008H108.3V59.6826H114.982V53.0008ZM114.982 48.0017H121.664V41.3199H114.982V48.0017ZM109.983 48.0017H103.301V54.6835H109.983V48.0017ZM109.983 23.0064V16.3246H103.301V23.0064H109.983ZM114.982 23.0064V29.6882H121.664V23.0064H114.982ZM114.982 18.0073V11.3255H108.3V18.0073H114.982ZM139.977 18.0073H146.659V11.3255H139.977V18.0073ZM139.977 23.0064H133.296V29.6882H139.977V23.0064ZM144.976 23.0064H151.658V16.3246H144.976V23.0064ZM144.976 48.0017V54.6835H151.658V48.0017H144.976ZM139.977 48.0017V41.3199H133.296V48.0017H139.977ZM139.977 53.0008V59.6826H146.659V53.0008H139.977ZM119.981 48.0017H113.299V54.6835H119.981V48.0017ZM134.978 48.0017V54.6835H141.66V48.0017H134.978ZM134.978 23.0064H141.66V16.3246H134.978V23.0064ZM119.981 23.0064V16.3246H113.299V23.0064H119.981ZM155.974 53.0008H149.293V59.6826H155.974V53.0008ZM155.974 43.0027V36.3209H149.293V43.0027H155.974ZM160.973 43.0027V49.6845H167.655V43.0027H160.973ZM160.973 38.0036V31.3218H154.292V38.0036H160.973ZM165.972 38.0036V44.6854H172.654V38.0036H165.972ZM165.972 18.0073V11.3255H159.291V18.0073H165.972ZM190.968 18.0073H197.65V11.3255H190.968V18.0073ZM190.968 53.0008V59.6826H197.65V53.0008H190.968ZM180.97 53.0008H174.288V59.6826H180.97V53.0008ZM180.97 23.0064H187.651V16.3246H180.97V23.0064ZM170.972 23.0064V16.3246H164.29V23.0064H170.972ZM170.972 48.0017V54.6835H177.653V48.0017H170.972ZM165.972 48.0017V41.3199H159.291V48.0017H165.972ZM165.972 53.0008V59.6826H172.654V53.0008H165.972ZM201.966 53.0008H195.284V59.6826H201.966V53.0008ZM201.966 18.0073V11.3255H195.284V18.0073H201.966ZM211.964 18.0073H218.646V11.3255H211.964V18.0073ZM211.964 28.0055H205.282V34.6873H211.964V28.0055ZM231.96 28.0055H238.642V21.3237H231.96V28.0055ZM231.96 33.0045H225.278V39.6863H231.96V33.0045ZM236.959 33.0045H243.641V26.3227H236.959V33.0045ZM236.959 48.0017V54.6835H243.641V48.0017H236.959ZM231.96 48.0017V41.3199H225.278V48.0017H231.96ZM231.96 53.0008V59.6826H238.642V53.0008H231.96ZM211.964 48.0017H205.282V54.6835H211.964V48.0017ZM226.961 48.0017V54.6835H233.643V48.0017H226.961ZM226.961 33.0045H233.643V26.3227H226.961V33.0045ZM211.964 33.0045V26.3227H205.282V33.0045H211.964ZM272.953 57.9999H266.271V64.6817H272.953V57.9999ZM272.953 53.0008H279.634V46.319H272.953V53.0008ZM247.957 53.0008H241.275V59.6826H247.957V53.0008ZM247.957 18.0073V11.3255H241.275V18.0073H247.957ZM257.955 18.0073H264.637V11.3255H257.955V18.0073ZM257.955 48.0017H251.274V54.6835H257.955V48.0017ZM267.954 48.0017V54.6835H274.635V48.0017H267.954ZM267.954 18.0073V11.3255H261.272V18.0073H267.954ZM277.952 18.0073H284.633V11.3255H277.952V18.0073ZM277.952 48.0017H271.27V54.6835H277.952V48.0017ZM282.951 48.0017H289.633V41.3199H282.951V48.0017ZM282.951 57.9999V64.6817H289.633V57.9999H282.951ZM298.948 53.0008H292.266V59.6826H298.948V53.0008ZM298.948 48.0017H305.63V41.3199H298.948V48.0017ZM293.949 48.0017H287.267V54.6835H293.949V48.0017ZM293.949 23.0064V16.3246H287.267V23.0064H293.949ZM298.948 23.0064V29.6882H305.63V23.0064H298.948ZM298.948 18.0073V11.3255H292.266V18.0073H298.948ZM323.943 18.0073H330.625V11.3255H323.943V18.0073ZM323.943 23.0064H317.261V29.6882H323.943V23.0064ZM328.942 23.0064H335.624V16.3246H328.942V23.0064ZM328.942 48.0017V54.6835H335.624V48.0017H328.942ZM323.943 48.0017V41.3199H317.261V48.0017H323.943ZM323.943 53.0008V59.6826H330.625V53.0008H323.943ZM303.947 48.0017H297.265V54.6835H303.947V48.0017ZM318.944 48.0017V54.6835H325.626V48.0017H318.944ZM318.944 23.0064H325.626V16.3246H318.944V23.0064ZM303.947 23.0064V16.3246H297.265V23.0064H303.947ZM29.6809 53.0008V48.0017H16.3173V53.0008H29.6809ZM22.9991 41.3199H18V54.6835H22.9991V41.3199ZM24.6818 48.0017V43.0027H11.3182V48.0017H24.6818ZM18 49.6845H22.9991V36.3209H18V49.6845ZM29.6809 43.0027V28.0055H16.3173V43.0027H29.6809ZM22.9991 21.3237H18V34.6873H22.9991V21.3237ZM24.6818 28.0055V23.0064H11.3182V28.0055H24.6818ZM18 29.6882H22.9991V16.3246H18V29.6882ZM29.6809 23.0064V18.0073H16.3173V23.0064H29.6809ZM22.9991 24.6891H32.9972V11.3255H22.9991V24.6891ZM26.3154 18.0073V23.0064H39.679V18.0073H26.3154ZM32.9972 29.6882H37.9963V16.3246H32.9972V29.6882ZM44.6781 23.0064V18.0073H31.3145V23.0064H44.6781ZM37.9963 24.6891H47.9944V11.3255H37.9963V24.6891ZM41.3126 18.0073V23.0064H54.6762V18.0073H41.3126ZM47.9944 29.6882H52.9935V16.3246H47.9944V29.6882ZM46.3117 23.0064V28.0055H59.6753V23.0064H46.3117ZM52.9935 21.3237H47.9944V34.6873H52.9935V21.3237ZM41.3126 28.0055V43.0027H54.6762V28.0055H41.3126ZM47.9944 49.6845H52.9935V36.3209H47.9944V49.6845ZM46.3117 43.0027V48.0017H59.6753V43.0027H46.3117ZM52.9935 41.3199H47.9944V54.6835H52.9935V41.3199ZM41.3126 48.0017V53.0008H54.6762V48.0017H41.3126ZM47.9944 46.319H37.9963V59.6826H47.9944V46.319ZM44.6781 53.0008V48.0017H31.3145V53.0008H44.6781ZM37.9963 41.3199H32.9972V54.6835H37.9963V41.3199ZM26.3154 48.0017V53.0008H39.679V48.0017H26.3154ZM32.9972 46.319H22.9991V59.6826H32.9972V46.319ZM32.9972 49.6845H37.9963V36.3209H32.9972V49.6845ZM44.6781 43.0027V28.0055H31.3145V43.0027H44.6781ZM37.9963 21.3237H32.9972V34.6873H37.9963V21.3237ZM26.3154 28.0055V43.0027H39.679V28.0055H26.3154ZM78.9887 34.6873H83.9877V21.3237H78.9887V34.6873ZM77.3059 28.0055V33.0045H90.6695V28.0055H77.3059ZM83.9877 39.6863H88.9868V26.3227H83.9877V39.6863ZM82.305 33.0045V38.0036H95.6686V33.0045H82.305ZM88.9868 44.6854H93.9859V31.3218H88.9868V44.6854ZM87.3041 38.0036V48.0017H100.668V38.0036H87.3041ZM93.9859 54.6835H98.9849V41.3199H93.9859V54.6835ZM92.3031 48.0017V53.0008H105.667V48.0017H92.3031ZM98.9849 46.319H88.9868V59.6826H98.9849V46.319ZM95.6686 53.0008V48.0017H82.305V53.0008H95.6686ZM88.9868 41.3199H83.9877V54.6835H88.9868V41.3199ZM90.6695 48.0017V38.0036H77.3059V48.0017H90.6695ZM83.9877 31.3218H73.9896V44.6854H83.9877V31.3218ZM67.3078 38.0036V53.0008H80.6714V38.0036H67.3078ZM73.9896 46.319H63.9914V59.6826H73.9896V46.319ZM70.6732 53.0008V18.0073H57.3096V53.0008H70.6732ZM63.9914 24.6891H73.9896V11.3255H63.9914V24.6891ZM67.3078 18.0073V33.0045H80.6714V18.0073H67.3078ZM73.9896 39.6863H78.9887V26.3227H73.9896V39.6863ZM85.6705 33.0045V28.0055H72.3069V33.0045H85.6705ZM92.3031 18.0073V23.0064H105.667V18.0073H92.3031ZM98.9849 16.3246H93.9859V29.6882H98.9849V16.3246ZM87.3041 23.0064V28.0055H100.668V23.0064H87.3041ZM93.9859 21.3237H83.9877V34.6873H93.9859V21.3237ZM90.6695 28.0055V23.0064H77.3059V28.0055H90.6695ZM83.9877 29.6882H88.9868V16.3246H83.9877V29.6882ZM95.6686 23.0064V18.0073H82.305V23.0064H95.6686ZM88.9868 24.6891H98.9849V11.3255H88.9868V24.6891ZM121.664 53.0008V48.0017H108.3V53.0008H121.664ZM114.982 41.3199H109.983V54.6835H114.982V41.3199ZM116.665 48.0017V23.0064H103.301V48.0017H116.665ZM109.983 29.6882H114.982V16.3246H109.983V29.6882ZM121.664 23.0064V18.0073H108.3V23.0064H121.664ZM114.982 24.6891H139.977V11.3255H114.982V24.6891ZM133.296 18.0073V23.0064H146.659V18.0073H133.296ZM139.977 29.6882H144.976V16.3246H139.977V29.6882ZM138.295 23.0064V48.0017H151.658V23.0064H138.295ZM144.976 41.3199H139.977V54.6835H144.976V41.3199ZM133.296 48.0017V53.0008H146.659V48.0017H133.296ZM139.977 46.319H114.982V59.6826H139.977V46.319ZM119.981 54.6835H134.978V41.3199H119.981V54.6835ZM141.66 48.0017V23.0064H128.296V48.0017H141.66ZM134.978 16.3246H119.981V29.6882H134.978V16.3246ZM113.299 23.0064V48.0017H126.663V23.0064H113.299ZM162.656 53.0008V43.0027H149.293V53.0008H162.656ZM155.974 49.6845H160.973V36.3209H155.974V49.6845ZM167.655 43.0027V38.0036H154.292V43.0027H167.655ZM160.973 44.6854H165.972V31.3218H160.973V44.6854ZM172.654 38.0036V18.0073H159.291V38.0036H172.654ZM165.972 24.6891H190.968V11.3255H165.972V24.6891ZM184.286 18.0073V53.0008H197.65V18.0073H184.286ZM190.968 46.319H180.97V59.6826H190.968V46.319ZM187.651 53.0008V23.0064H174.288V53.0008H187.651ZM180.97 16.3246H170.972V29.6882H180.97V16.3246ZM164.29 23.0064V48.0017H177.653V23.0064H164.29ZM170.972 41.3199H165.972V54.6835H170.972V41.3199ZM159.291 48.0017V53.0008H172.654V48.0017H159.291ZM165.972 46.319H155.974V59.6826H165.972V46.319ZM208.648 53.0008V18.0073H195.284V53.0008H208.648ZM201.966 24.6891H211.964V11.3255H201.966V24.6891ZM205.282 18.0073V28.0055H218.646V18.0073H205.282ZM211.964 34.6873H231.96V21.3237H211.964V34.6873ZM225.278 28.0055V33.0045H238.642V28.0055H225.278ZM231.96 39.6863H236.959V26.3227H231.96V39.6863ZM230.277 33.0045V48.0017H243.641V33.0045H230.277ZM236.959 41.3199H231.96V54.6835H236.959V41.3199ZM225.278 48.0017V53.0008H238.642V48.0017H225.278ZM231.96 46.319H201.966V59.6826H231.96V46.319ZM211.964 54.6835H226.961V41.3199H211.964V54.6835ZM233.643 48.0017V33.0045H220.279V48.0017H233.643ZM226.961 26.3227H211.964V39.6863H226.961V26.3227ZM205.282 33.0045V48.0017H218.646V33.0045H205.282ZM279.634 57.9999V53.0008H266.271V57.9999H279.634ZM272.953 46.319H247.957V59.6826H272.953V46.319ZM254.639 53.0008V18.0073H241.275V53.0008H254.639ZM247.957 24.6891H257.955V11.3255H247.957V24.6891ZM251.274 18.0073V48.0017H264.637V18.0073H251.274ZM257.955 54.6835H267.954V41.3199H257.955V54.6835ZM274.635 48.0017V18.0073H261.272V48.0017H274.635ZM267.954 24.6891H277.952V11.3255H267.954V24.6891ZM271.27 18.0073V48.0017H284.633V18.0073H271.27ZM277.952 54.6835H282.951V41.3199H277.952V54.6835ZM276.269 48.0017V57.9999H289.633V48.0017H276.269ZM282.951 51.3181H272.953V64.6817H282.951V51.3181ZM305.63 53.0008V48.0017H292.266V53.0008H305.63ZM298.948 41.3199H293.949V54.6835H298.948V41.3199ZM300.63 48.0017V23.0064H287.267V48.0017H300.63ZM293.949 29.6882H298.948V16.3246H293.949V29.6882ZM305.63 23.0064V18.0073H292.266V23.0064H305.63ZM298.948 24.6891H323.943V11.3255H298.948V24.6891ZM317.261 18.0073V23.0064H330.625V18.0073H317.261ZM323.943 29.6882H328.942V16.3246H323.943V29.6882ZM322.26 23.0064V48.0017H335.624V23.0064H322.26ZM328.942 41.3199H323.943V54.6835H328.942V41.3199ZM317.261 48.0017V53.0008H330.625V48.0017H317.261ZM323.943 46.319H298.948V59.6826H323.943V46.319ZM303.947 54.6835H318.944V41.3199H303.947V54.6835ZM325.626 48.0017V23.0064H312.262V48.0017H325.626ZM318.944 16.3246H303.947V29.6882H318.944V16.3246ZM297.265 23.0064V48.0017H310.629V23.0064H297.265Z" fill="#0094FF" mask="url(#path-3-outside-2)"/>
</g>
<g style="mix-blend-mode:hard-light" filter="url(#filter2_ddi)">
<mask id="path-5-outside-3" maskUnits="userSpaceOnUse" x="12" y="12.0073" width="323" height="52" fill="black">
<rect fill="white" x="12" y="12.0073" width="323" height="52"/>
<path d="M22.9991 53.0008V48.0017H18V43.0027H22.9991V28.0055H18V23.0064H22.9991V18.0073H32.9972V23.0064H37.9963V18.0073H47.9944V23.0064H52.9935V28.0055H47.9944V43.0027H52.9935V48.0017H47.9944V53.0008H37.9963V48.0017H32.9972V53.0008H22.9991ZM32.9972 43.0027H37.9963V28.0055H32.9972V43.0027Z"/>
<path d="M78.9887 28.0055H83.9877V33.0045H88.9868V38.0036H93.9859V48.0017H98.9849V53.0008H88.9868V48.0017H83.9877V38.0036H73.9896V53.0008H63.9914V18.0073H73.9896V33.0045H78.9887V28.0055ZM98.9849 18.0073V23.0064H93.9859V28.0055H83.9877V23.0064H88.9868V18.0073H98.9849Z"/>
<path d="M114.982 53.0008V48.0017H109.983V23.0064H114.982V18.0073H139.977V23.0064H144.976V48.0017H139.977V53.0008H114.982ZM119.981 48.0017H134.978V23.0064H119.981V48.0017Z"/>
<path d="M155.974 53.0008V43.0027H160.973V38.0036H165.972V18.0073H190.968V53.0008H180.97V23.0064H170.972V48.0017H165.972V53.0008H155.974Z"/>
<path d="M201.966 53.0008V18.0073H211.964V28.0055H231.96V33.0045H236.959V48.0017H231.96V53.0008H201.966ZM211.964 48.0017H226.961V33.0045H211.964V48.0017Z"/>
<path d="M272.953 57.9999V53.0008H247.957V18.0073H257.955V48.0017H267.954V18.0073H277.952V48.0017H282.951V57.9999H272.953Z"/>
<path d="M298.948 53.0008V48.0017H293.949V23.0064H298.948V18.0073H323.943V23.0064H328.942V48.0017H323.943V53.0008H298.948ZM303.947 48.0017H318.944V23.0064H303.947V48.0017Z"/>
</mask>
<path d="M22.9991 53.0008H17.8895V58.1104H22.9991V53.0008ZM22.9991 48.0017H28.1087V42.8921H22.9991V48.0017ZM18 48.0017H12.8904V53.1114H18V48.0017ZM18 43.0027V37.8931H12.8904V43.0027H18ZM22.9991 43.0027V48.1123H28.1087V43.0027H22.9991ZM22.9991 28.0055H28.1087V22.8959H22.9991V28.0055ZM18 28.0055H12.8904V33.1151H18V28.0055ZM18 23.0064V17.8968H12.8904V23.0064H18ZM22.9991 23.0064V28.116H28.1087V23.0064H22.9991ZM22.9991 18.0073V12.8977H17.8895V18.0073H22.9991ZM32.9972 18.0073H38.1068V12.8977H32.9972V18.0073ZM32.9972 23.0064H27.8876V28.116H32.9972V23.0064ZM37.9963 23.0064V28.116H43.1059V23.0064H37.9963ZM37.9963 18.0073V12.8977H32.8867V18.0073H37.9963ZM47.9944 18.0073H53.104V12.8977H47.9944V18.0073ZM47.9944 23.0064H42.8848V28.116H47.9944V23.0064ZM52.9935 23.0064H58.1031V17.8968H52.9935V23.0064ZM52.9935 28.0055V33.1151H58.1031V28.0055H52.9935ZM47.9944 28.0055V22.8959H42.8848V28.0055H47.9944ZM47.9944 43.0027H42.8848V48.1123H47.9944V43.0027ZM52.9935 43.0027H58.1031V37.8931H52.9935V43.0027ZM52.9935 48.0017V53.1114H58.1031V48.0017H52.9935ZM47.9944 48.0017V42.8921H42.8848V48.0017H47.9944ZM47.9944 53.0008V58.1104H53.104V53.0008H47.9944ZM37.9963 53.0008H32.8867V58.1104H37.9963V53.0008ZM37.9963 48.0017H43.1059V42.8921H37.9963V48.0017ZM32.9972 48.0017V42.8921H27.8876V48.0017H32.9972ZM32.9972 53.0008V58.1104H38.1068V53.0008H32.9972ZM32.9972 43.0027H27.8876V48.1123H32.9972V43.0027ZM37.9963 43.0027V48.1123H43.1059V43.0027H37.9963ZM37.9963 28.0055H43.1059V22.8959H37.9963V28.0055ZM32.9972 28.0055V22.8959H27.8876V28.0055H32.9972ZM78.9887 28.0055V22.8959H73.879V28.0055H78.9887ZM83.9877 33.0045H78.8781V38.1141H83.9877V33.0045ZM88.9868 33.0045H94.0964V27.8949H88.9868V33.0045ZM88.9868 38.0036H83.8772V43.1132H88.9868V38.0036ZM93.9859 38.0036H99.0955V32.894H93.9859V38.0036ZM93.9859 48.0017H88.8763V53.1114H93.9859V48.0017ZM98.9849 48.0017H104.095V42.8921H98.9849V48.0017ZM98.9849 53.0008V58.1104H104.095V53.0008H98.9849ZM88.9868 53.0008H83.8772V58.1104H88.9868V53.0008ZM88.9868 48.0017H94.0964V42.8921H88.9868V48.0017ZM83.9877 48.0017H78.8781V53.1114H83.9877V48.0017ZM83.9877 38.0036H89.0973V32.894H83.9877V38.0036ZM73.9896 38.0036V32.894H68.88V38.0036H73.9896ZM73.9896 53.0008V58.1104H79.0992V53.0008H73.9896ZM63.9914 53.0008H58.8818V58.1104H63.9914V53.0008ZM63.9914 18.0073V12.8977H58.8818V18.0073H63.9914ZM73.9896 18.0073H79.0992V12.8977H73.9896V18.0073ZM73.9896 33.0045H68.88V38.1141H73.9896V33.0045ZM78.9887 33.0045V38.1141H84.0983V33.0045H78.9887ZM98.9849 18.0073H104.095V12.8977H98.9849V18.0073ZM98.9849 23.0064V28.116H104.095V23.0064H98.9849ZM93.9859 23.0064V17.8968H88.8763V23.0064H93.9859ZM93.9859 28.0055V33.1151H99.0955V28.0055H93.9859ZM83.9877 23.0064V17.8968H78.8781V23.0064H83.9877ZM88.9868 23.0064V28.116H94.0964V23.0064H88.9868ZM88.9868 18.0073V12.8977H83.8772V18.0073H88.9868ZM114.982 53.0008H109.872V58.1104H114.982V53.0008ZM114.982 48.0017H120.092V42.8921H114.982V48.0017ZM109.983 48.0017H104.873V53.1114H109.983V48.0017ZM109.983 23.0064V17.8968H104.873V23.0064H109.983ZM114.982 23.0064V28.116H120.092V23.0064H114.982ZM114.982 18.0073V12.8977H109.872V18.0073H114.982ZM139.977 18.0073H145.087V12.8977H139.977V18.0073ZM139.977 23.0064H134.868V28.116H139.977V23.0064ZM144.976 23.0064H150.086V17.8968H144.976V23.0064ZM144.976 48.0017V53.1114H150.086V48.0017H144.976ZM139.977 48.0017V42.8921H134.868V48.0017H139.977ZM139.977 53.0008V58.1104H145.087V53.0008H139.977ZM119.981 48.0017H114.871V53.1114H119.981V48.0017ZM134.978 48.0017V53.1114H140.088V48.0017H134.978ZM134.978 23.0064H140.088V17.8968H134.978V23.0064ZM119.981 23.0064V17.8968H114.871V23.0064H119.981ZM155.974 53.0008H150.865V58.1104H155.974V53.0008ZM155.974 43.0027V37.8931H150.865V43.0027H155.974ZM160.973 43.0027V48.1123H166.083V43.0027H160.973ZM160.973 38.0036V32.894H155.864V38.0036H160.973ZM165.972 38.0036V43.1132H171.082V38.0036H165.972ZM165.972 18.0073V12.8977H160.863V18.0073H165.972ZM190.968 18.0073H196.077V12.8977H190.968V18.0073ZM190.968 53.0008V58.1104H196.077V53.0008H190.968ZM180.97 53.0008H175.86V58.1104H180.97V53.0008ZM180.97 23.0064H186.079V17.8968H180.97V23.0064ZM170.972 23.0064V17.8968H165.862V23.0064H170.972ZM170.972 48.0017V53.1114H176.081V48.0017H170.972ZM165.972 48.0017V42.8921H160.863V48.0017H165.972ZM165.972 53.0008V58.1104H171.082V53.0008H165.972ZM201.966 53.0008H196.856V58.1104H201.966V53.0008ZM201.966 18.0073V12.8977H196.856V18.0073H201.966ZM211.964 18.0073H217.074V12.8977H211.964V18.0073ZM211.964 28.0055H206.854V33.1151H211.964V28.0055ZM231.96 28.0055H237.07V22.8959H231.96V28.0055ZM231.96 33.0045H226.851V38.1141H231.96V33.0045ZM236.959 33.0045H242.069V27.8949H236.959V33.0045ZM236.959 48.0017V53.1114H242.069V48.0017H236.959ZM231.96 48.0017V42.8921H226.851V48.0017H231.96ZM231.96 53.0008V58.1104H237.07V53.0008H231.96ZM211.964 48.0017H206.854V53.1114H211.964V48.0017ZM226.961 48.0017V53.1114H232.071V48.0017H226.961ZM226.961 33.0045H232.071V27.8949H226.961V33.0045ZM211.964 33.0045V27.8949H206.854V33.0045H211.964ZM272.953 57.9999H267.843V63.1095H272.953V57.9999ZM272.953 53.0008H278.062V47.8912H272.953V53.0008ZM247.957 53.0008H242.848V58.1104H247.957V53.0008ZM247.957 18.0073V12.8977H242.848V18.0073H247.957ZM257.955 18.0073H263.065V12.8977H257.955V18.0073ZM257.955 48.0017H252.846V53.1114H257.955V48.0017ZM267.954 48.0017V53.1114H273.063V48.0017H267.954ZM267.954 18.0073V12.8977H262.844V18.0073H267.954ZM277.952 18.0073H283.061V12.8977H277.952V18.0073ZM277.952 48.0017H272.842V53.1114H277.952V48.0017ZM282.951 48.0017H288.06V42.8921H282.951V48.0017ZM282.951 57.9999V63.1095H288.06V57.9999H282.951ZM298.948 53.0008H293.838V58.1104H298.948V53.0008ZM298.948 48.0017H304.057V42.8921H298.948V48.0017ZM293.949 48.0017H288.839V53.1114H293.949V48.0017ZM293.949 23.0064V17.8968H288.839V23.0064H293.949ZM298.948 23.0064V28.116H304.057V23.0064H298.948ZM298.948 18.0073V12.8977H293.838V18.0073H298.948ZM323.943 18.0073H329.053V12.8977H323.943V18.0073ZM323.943 23.0064H318.833V28.116H323.943V23.0064ZM328.942 23.0064H334.052V17.8968H328.942V23.0064ZM328.942 48.0017V53.1114H334.052V48.0017H328.942ZM323.943 48.0017V42.8921H318.833V48.0017H323.943ZM323.943 53.0008V58.1104H329.053V53.0008H323.943ZM303.947 48.0017H298.837V53.1114H303.947V48.0017ZM318.944 48.0017V53.1114H324.054V48.0017H318.944ZM318.944 23.0064H324.054V17.8968H318.944V23.0064ZM303.947 23.0064V17.8968H298.837V23.0064H303.947ZM28.1087 53.0008V48.0017H17.8895V53.0008H28.1087ZM22.9991 42.8921H18V53.1114H22.9991V42.8921ZM23.1096 48.0017V43.0027H12.8904V48.0017H23.1096ZM18 48.1123H22.9991V37.8931H18V48.1123ZM28.1087 43.0027V28.0055H17.8895V43.0027H28.1087ZM22.9991 22.8959H18V33.1151H22.9991V22.8959ZM23.1096 28.0055V23.0064H12.8904V28.0055H23.1096ZM18 28.116H22.9991V17.8968H18V28.116ZM28.1087 23.0064V18.0073H17.8895V23.0064H28.1087ZM22.9991 23.1169H32.9972V12.8977H22.9991V23.1169ZM27.8876 18.0073V23.0064H38.1068V18.0073H27.8876ZM32.9972 28.116H37.9963V17.8968H32.9972V28.116ZM43.1059 23.0064V18.0073H32.8867V23.0064H43.1059ZM37.9963 23.1169H47.9944V12.8977H37.9963V23.1169ZM42.8848 18.0073V23.0064H53.104V18.0073H42.8848ZM47.9944 28.116H52.9935V17.8968H47.9944V28.116ZM47.8839 23.0064V28.0055H58.1031V23.0064H47.8839ZM52.9935 22.8959H47.9944V33.1151H52.9935V22.8959ZM42.8848 28.0055V43.0027H53.104V28.0055H42.8848ZM47.9944 48.1123H52.9935V37.8931H47.9944V48.1123ZM47.8839 43.0027V48.0017H58.1031V43.0027H47.8839ZM52.9935 42.8921H47.9944V53.1114H52.9935V42.8921ZM42.8848 48.0017V53.0008H53.104V48.0017H42.8848ZM47.9944 47.8912H37.9963V58.1104H47.9944V47.8912ZM43.1059 53.0008V48.0017H32.8867V53.0008H43.1059ZM37.9963 42.8921H32.9972V53.1114H37.9963V42.8921ZM27.8876 48.0017V53.0008H38.1068V48.0017H27.8876ZM32.9972 47.8912H22.9991V58.1104H32.9972V47.8912ZM32.9972 48.1123H37.9963V37.8931H32.9972V48.1123ZM43.1059 43.0027V28.0055H32.8867V43.0027H43.1059ZM37.9963 22.8959H32.9972V33.1151H37.9963V22.8959ZM27.8876 28.0055V43.0027H38.1068V28.0055H27.8876ZM78.9887 33.1151H83.9877V22.8959H78.9887V33.1151ZM78.8781 28.0055V33.0045H89.0973V28.0055H78.8781ZM83.9877 38.1141H88.9868V27.8949H83.9877V38.1141ZM83.8772 33.0045V38.0036H94.0964V33.0045H83.8772ZM88.9868 43.1132H93.9859V32.894H88.9868V43.1132ZM88.8763 38.0036V48.0017H99.0955V38.0036H88.8763ZM93.9859 53.1114H98.9849V42.8921H93.9859V53.1114ZM93.8753 48.0017V53.0008H104.095V48.0017H93.8753ZM98.9849 47.8912H88.9868V58.1104H98.9849V47.8912ZM94.0964 53.0008V48.0017H83.8772V53.0008H94.0964ZM88.9868 42.8921H83.9877V53.1114H88.9868V42.8921ZM89.0973 48.0017V38.0036H78.8781V48.0017H89.0973ZM83.9877 32.894H73.9896V43.1132H83.9877V32.894ZM68.88 38.0036V53.0008H79.0992V38.0036H68.88ZM73.9896 47.8912H63.9914V58.1104H73.9896V47.8912ZM69.1011 53.0008V18.0073H58.8818V53.0008H69.1011ZM63.9914 23.1169H73.9896V12.8977H63.9914V23.1169ZM68.88 18.0073V33.0045H79.0992V18.0073H68.88ZM73.9896 38.1141H78.9887V27.8949H73.9896V38.1141ZM84.0983 33.0045V28.0055H73.879V33.0045H84.0983ZM93.8753 18.0073V23.0064H104.095V18.0073H93.8753ZM98.9849 17.8968H93.9859V28.116H98.9849V17.8968ZM88.8763 23.0064V28.0055H99.0955V23.0064H88.8763ZM93.9859 22.8959H83.9877V33.1151H93.9859V22.8959ZM89.0973 28.0055V23.0064H78.8781V28.0055H89.0973ZM83.9877 28.116H88.9868V17.8968H83.9877V28.116ZM94.0964 23.0064V18.0073H83.8772V23.0064H94.0964ZM88.9868 23.1169H98.9849V12.8977H88.9868V23.1169ZM120.092 53.0008V48.0017H109.872V53.0008H120.092ZM114.982 42.8921H109.983V53.1114H114.982V42.8921ZM115.092 48.0017V23.0064H104.873V48.0017H115.092ZM109.983 28.116H114.982V17.8968H109.983V28.116ZM120.092 23.0064V18.0073H109.872V23.0064H120.092ZM114.982 23.1169H139.977V12.8977H114.982V23.1169ZM134.868 18.0073V23.0064H145.087V18.0073H134.868ZM139.977 28.116H144.976V17.8968H139.977V28.116ZM139.867 23.0064V48.0017H150.086V23.0064H139.867ZM144.976 42.8921H139.977V53.1114H144.976V42.8921ZM134.868 48.0017V53.0008H145.087V48.0017H134.868ZM139.977 47.8912H114.982V58.1104H139.977V47.8912ZM119.981 53.1114H134.978V42.8921H119.981V53.1114ZM140.088 48.0017V23.0064H129.869V48.0017H140.088ZM134.978 17.8968H119.981V28.116H134.978V17.8968ZM114.871 23.0064V48.0017H125.091V23.0064H114.871ZM161.084 53.0008V43.0027H150.865V53.0008H161.084ZM155.974 48.1123H160.973V37.8931H155.974V48.1123ZM166.083 43.0027V38.0036H155.864V43.0027H166.083ZM160.973 43.1132H165.972V32.894H160.973V43.1132ZM171.082 38.0036V18.0073H160.863V38.0036H171.082ZM165.972 23.1169H190.968V12.8977H165.972V23.1169ZM185.858 18.0073V53.0008H196.077V18.0073H185.858ZM190.968 47.8912H180.97V58.1104H190.968V47.8912ZM186.079 53.0008V23.0064H175.86V53.0008H186.079ZM180.97 17.8968H170.972V28.116H180.97V17.8968ZM165.862 23.0064V48.0017H176.081V23.0064H165.862ZM170.972 42.8921H165.972V53.1114H170.972V42.8921ZM160.863 48.0017V53.0008H171.082V48.0017H160.863ZM165.972 47.8912H155.974V58.1104H165.972V47.8912ZM207.075 53.0008V18.0073H196.856V53.0008H207.075ZM201.966 23.1169H211.964V12.8977H201.966V23.1169ZM206.854 18.0073V28.0055H217.074V18.0073H206.854ZM211.964 33.1151H231.96V22.8959H211.964V33.1151ZM226.851 28.0055V33.0045H237.07V28.0055H226.851ZM231.96 38.1141H236.959V27.8949H231.96V38.1141ZM231.85 33.0045V48.0017H242.069V33.0045H231.85ZM236.959 42.8921H231.96V53.1114H236.959V42.8921ZM226.851 48.0017V53.0008H237.07V48.0017H226.851ZM231.96 47.8912H201.966V58.1104H231.96V47.8912ZM211.964 53.1114H226.961V42.8921H211.964V53.1114ZM232.071 48.0017V33.0045H221.852V48.0017H232.071ZM226.961 27.8949H211.964V38.1141H226.961V27.8949ZM206.854 33.0045V48.0017H217.074V33.0045H206.854ZM278.062 57.9999V53.0008H267.843V57.9999H278.062ZM272.953 47.8912H247.957V58.1104H272.953V47.8912ZM253.067 53.0008V18.0073H242.848V53.0008H253.067ZM247.957 23.1169H257.955V12.8977H247.957V23.1169ZM252.846 18.0073V48.0017H263.065V18.0073H252.846ZM257.955 53.1114H267.954V42.8921H257.955V53.1114ZM273.063 48.0017V18.0073H262.844V48.0017H273.063ZM267.954 23.1169H277.952V12.8977H267.954V23.1169ZM272.842 18.0073V48.0017H283.061V18.0073H272.842ZM277.952 53.1114H282.951V42.8921H277.952V53.1114ZM277.841 48.0017V57.9999H288.06V48.0017H277.841ZM282.951 52.8903H272.953V63.1095H282.951V52.8903ZM304.057 53.0008V48.0017H293.838V53.0008H304.057ZM298.948 42.8921H293.949V53.1114H298.948V42.8921ZM299.058 48.0017V23.0064H288.839V48.0017H299.058ZM293.949 28.116H298.948V17.8968H293.949V28.116ZM304.057 23.0064V18.0073H293.838V23.0064H304.057ZM298.948 23.1169H323.943V12.8977H298.948V23.1169ZM318.833 18.0073V23.0064H329.053V18.0073H318.833ZM323.943 28.116H328.942V17.8968H323.943V28.116ZM323.833 23.0064V48.0017H334.052V23.0064H323.833ZM328.942 42.8921H323.943V53.1114H328.942V42.8921ZM318.833 48.0017V53.0008H329.053V48.0017H318.833ZM323.943 47.8912H298.948V58.1104H323.943V47.8912ZM303.947 53.1114H318.944V42.8921H303.947V53.1114ZM324.054 48.0017V23.0064H313.834V48.0017H324.054ZM318.944 17.8968H303.947V28.116H318.944V17.8968ZM298.837 23.0064V48.0017H309.056V23.0064H298.837Z" fill="#00B3FF" fill-opacity="0.2" mask="url(#path-5-outside-3)"/>
</g>
<g filter="url(#filter3_f)">
<mask id="path-7-outside-4" maskUnits="userSpaceOnUse" x="14" y="14.0073" width="319" height="48" fill="black">
<rect fill="white" x="14" y="14.0073" width="319" height="48"/>
<path d="M22.9991 53.0008V48.0017H18V43.0027H22.9991V28.0055H18V23.0064H22.9991V18.0073H32.9972V23.0064H37.9963V18.0073H47.9944V23.0064H52.9935V28.0055H47.9944V43.0027H52.9935V48.0017H47.9944V53.0008H37.9963V48.0017H32.9972V53.0008H22.9991ZM32.9972 43.0027H37.9963V28.0055H32.9972V43.0027Z"/>
<path d="M78.9887 28.0055H83.9877V33.0045H88.9868V38.0036H93.9859V48.0017H98.9849V53.0008H88.9868V48.0017H83.9877V38.0036H73.9896V53.0008H63.9914V18.0073H73.9896V33.0045H78.9887V28.0055ZM98.9849 18.0073V23.0064H93.9859V28.0055H83.9877V23.0064H88.9868V18.0073H98.9849Z"/>
<path d="M114.982 53.0008V48.0017H109.983V23.0064H114.982V18.0073H139.977V23.0064H144.976V48.0017H139.977V53.0008H114.982ZM119.981 48.0017H134.978V23.0064H119.981V48.0017Z"/>
<path d="M155.974 53.0008V43.0027H160.973V38.0036H165.972V18.0073H190.968V53.0008H180.97V23.0064H170.972V48.0017H165.972V53.0008H155.974Z"/>
<path d="M201.966 53.0008V18.0073H211.964V28.0055H231.96V33.0045H236.959V48.0017H231.96V53.0008H201.966ZM211.964 48.0017H226.961V33.0045H211.964V48.0017Z"/>
<path d="M272.953 57.9999V53.0008H247.957V18.0073H257.955V48.0017H267.954V18.0073H277.952V48.0017H282.951V57.9999H272.953Z"/>
<path d="M298.948 53.0008V48.0017H293.949V23.0064H298.948V18.0073H323.943V23.0064H328.942V48.0017H323.943V53.0008H298.948ZM303.947 48.0017H318.944V23.0064H303.947V48.0017Z"/>
</mask>
<path d="M22.9991 53.0008H19.8547V56.1452H22.9991V53.0008ZM22.9991 48.0017H26.1434V44.8574H22.9991V48.0017ZM18 48.0017H14.8556V51.1461H18V48.0017ZM18 43.0027V39.8583H14.8556V43.0027H18ZM22.9991 43.0027V46.147H26.1434V43.0027H22.9991ZM22.9991 28.0055H26.1434V24.8611H22.9991V28.0055ZM18 28.0055H14.8556V31.1498H18V28.0055ZM18 23.0064V19.862H14.8556V23.0064H18ZM22.9991 23.0064V26.1508H26.1434V23.0064H22.9991ZM22.9991 18.0073V14.8629H19.8547V18.0073H22.9991ZM32.9972 18.0073H36.1416V14.8629H32.9972V18.0073ZM32.9972 23.0064H29.8528V26.1508H32.9972V23.0064ZM37.9963 23.0064V26.1508H41.1407V23.0064H37.9963ZM37.9963 18.0073V14.8629H34.8519V18.0073H37.9963ZM47.9944 18.0073H51.1388V14.8629H47.9944V18.0073ZM47.9944 23.0064H44.85V26.1508H47.9944V23.0064ZM52.9935 23.0064H56.1379V19.862H52.9935V23.0064ZM52.9935 28.0055V31.1498H56.1379V28.0055H52.9935ZM47.9944 28.0055V24.8611H44.85V28.0055H47.9944ZM47.9944 43.0027H44.85V46.147H47.9944V43.0027ZM52.9935 43.0027H56.1379V39.8583H52.9935V43.0027ZM52.9935 48.0017V51.1461H56.1379V48.0017H52.9935ZM47.9944 48.0017V44.8574H44.85V48.0017H47.9944ZM47.9944 53.0008V56.1452H51.1388V53.0008H47.9944ZM37.9963 53.0008H34.8519V56.1452H37.9963V53.0008ZM37.9963 48.0017H41.1407V44.8574H37.9963V48.0017ZM32.9972 48.0017V44.8574H29.8528V48.0017H32.9972ZM32.9972 53.0008V56.1452H36.1416V53.0008H32.9972ZM32.9972 43.0027H29.8528V46.147H32.9972V43.0027ZM37.9963 43.0027V46.147H41.1407V43.0027H37.9963ZM37.9963 28.0055H41.1407V24.8611H37.9963V28.0055ZM32.9972 28.0055V24.8611H29.8528V28.0055H32.9972ZM78.9887 28.0055V24.8611H75.8443V28.0055H78.9887ZM83.9877 33.0045H80.8433V36.1489H83.9877V33.0045ZM88.9868 33.0045H92.1312V29.8602H88.9868V33.0045ZM88.9868 38.0036H85.8424V41.148H88.9868V38.0036ZM93.9859 38.0036H97.1302V34.8592H93.9859V38.0036ZM93.9859 48.0017H90.8415V51.1461H93.9859V48.0017ZM98.9849 48.0017H102.129V44.8574H98.9849V48.0017ZM98.9849 53.0008V56.1452H102.129V53.0008H98.9849ZM88.9868 53.0008H85.8424V56.1452H88.9868V53.0008ZM88.9868 48.0017H92.1312V44.8574H88.9868V48.0017ZM83.9877 48.0017H80.8433V51.1461H83.9877V48.0017ZM83.9877 38.0036H87.1321V34.8592H83.9877V38.0036ZM73.9896 38.0036V34.8592H70.8452V38.0036H73.9896ZM73.9896 53.0008V56.1452H77.134V53.0008H73.9896ZM63.9914 53.0008H60.8471V56.1452H63.9914V53.0008ZM63.9914 18.0073V14.8629H60.8471V18.0073H63.9914ZM73.9896 18.0073H77.134V14.8629H73.9896V18.0073ZM73.9896 33.0045H70.8452V36.1489H73.9896V33.0045ZM78.9887 33.0045V36.1489H82.133V33.0045H78.9887ZM98.9849 18.0073H102.129V14.8629H98.9849V18.0073ZM98.9849 23.0064V26.1508H102.129V23.0064H98.9849ZM93.9859 23.0064V19.862H90.8415V23.0064H93.9859ZM93.9859 28.0055V31.1498H97.1302V28.0055H93.9859ZM83.9877 23.0064V19.862H80.8433V23.0064H83.9877ZM88.9868 23.0064V26.1508H92.1312V23.0064H88.9868ZM88.9868 18.0073V14.8629H85.8424V18.0073H88.9868ZM114.982 53.0008H111.838V56.1452H114.982V53.0008ZM114.982 48.0017H118.126V44.8574H114.982V48.0017ZM109.983 48.0017H106.839V51.1461H109.983V48.0017ZM109.983 23.0064V19.862H106.839V23.0064H109.983ZM114.982 23.0064V26.1508H118.126V23.0064H114.982ZM114.982 18.0073V14.8629H111.838V18.0073H114.982ZM139.977 18.0073H143.122V14.8629H139.977V18.0073ZM139.977 23.0064H136.833V26.1508H139.977V23.0064ZM144.976 23.0064H148.121V19.862H144.976V23.0064ZM144.976 48.0017V51.1461H148.121V48.0017H144.976ZM139.977 48.0017V44.8574H136.833V48.0017H139.977ZM139.977 53.0008V56.1452H143.122V53.0008H139.977ZM119.981 48.0017H116.837V51.1461H119.981V48.0017ZM134.978 48.0017V51.1461H138.123V48.0017H134.978ZM134.978 23.0064H138.123V19.862H134.978V23.0064ZM119.981 23.0064V19.862H116.837V23.0064H119.981ZM155.974 53.0008H152.83V56.1452H155.974V53.0008ZM155.974 43.0027V39.8583H152.83V43.0027H155.974ZM160.973 43.0027V46.147H164.118V43.0027H160.973ZM160.973 38.0036V34.8592H157.829V38.0036H160.973ZM165.972 38.0036V41.148H169.117V38.0036H165.972ZM165.972 18.0073V14.8629H162.828V18.0073H165.972ZM190.968 18.0073H194.112V14.8629H190.968V18.0073ZM190.968 53.0008V56.1452H194.112V53.0008H190.968ZM180.97 53.0008H177.825V56.1452H180.97V53.0008ZM180.97 23.0064H184.114V19.862H180.97V23.0064ZM170.972 23.0064V19.862H167.827V23.0064H170.972ZM170.972 48.0017V51.1461H174.116V48.0017H170.972ZM165.972 48.0017V44.8574H162.828V48.0017H165.972ZM165.972 53.0008V56.1452H169.117V53.0008H165.972ZM201.966 53.0008H198.821V56.1452H201.966V53.0008ZM201.966 18.0073V14.8629H198.821V18.0073H201.966ZM211.964 18.0073H215.108V14.8629H211.964V18.0073ZM211.964 28.0055H208.82V31.1498H211.964V28.0055ZM231.96 28.0055H235.105V24.8611H231.96V28.0055ZM231.96 33.0045H228.816V36.1489H231.96V33.0045ZM236.959 33.0045H240.104V29.8602H236.959V33.0045ZM236.959 48.0017V51.1461H240.104V48.0017H236.959ZM231.96 48.0017V44.8574H228.816V48.0017H231.96ZM231.96 53.0008V56.1452H235.105V53.0008H231.96ZM211.964 48.0017H208.82V51.1461H211.964V48.0017ZM226.961 48.0017V51.1461H230.106V48.0017H226.961ZM226.961 33.0045H230.106V29.8602H226.961V33.0045ZM211.964 33.0045V29.8602H208.82V33.0045H211.964ZM272.953 57.9999H269.808V61.1443H272.953V57.9999ZM272.953 53.0008H276.097V49.8564H272.953V53.0008ZM247.957 53.0008H244.813V56.1452H247.957V53.0008ZM247.957 18.0073V14.8629H244.813V18.0073H247.957ZM257.955 18.0073H261.1V14.8629H257.955V18.0073ZM257.955 48.0017H254.811V51.1461H257.955V48.0017ZM267.954 48.0017V51.1461H271.098V48.0017H267.954ZM267.954 18.0073V14.8629H264.809V18.0073H267.954ZM277.952 18.0073H281.096V14.8629H277.952V18.0073ZM277.952 48.0017H274.807V51.1461H277.952V48.0017ZM282.951 48.0017H286.095V44.8574H282.951V48.0017ZM282.951 57.9999V61.1443H286.095V57.9999H282.951ZM298.948 53.0008H295.803V56.1452H298.948V53.0008ZM298.948 48.0017H302.092V44.8574H298.948V48.0017ZM293.949 48.0017H290.804V51.1461H293.949V48.0017ZM293.949 23.0064V19.862H290.804V23.0064H293.949ZM298.948 23.0064V26.1508H302.092V23.0064H298.948ZM298.948 18.0073V14.8629H295.803V18.0073H298.948ZM323.943 18.0073H327.087V14.8629H323.943V18.0073ZM323.943 23.0064H320.799V26.1508H323.943V23.0064ZM328.942 23.0064H332.087V19.862H328.942V23.0064ZM328.942 48.0017V51.1461H332.087V48.0017H328.942ZM323.943 48.0017V44.8574H320.799V48.0017H323.943ZM323.943 53.0008V56.1452H327.087V53.0008H323.943ZM303.947 48.0017H300.802V51.1461H303.947V48.0017ZM318.944 48.0017V51.1461H322.088V48.0017H318.944ZM318.944 23.0064H322.088V19.862H318.944V23.0064ZM303.947 23.0064V19.862H300.802V23.0064H303.947ZM26.1434 53.0008V48.0017H19.8547V53.0008H26.1434ZM22.9991 44.8574H18V51.1461H22.9991V44.8574ZM21.1444 48.0017V43.0027H14.8556V48.0017H21.1444ZM18 46.147H22.9991V39.8583H18V46.147ZM26.1434 43.0027V28.0055H19.8547V43.0027H26.1434ZM22.9991 24.8611H18V31.1498H22.9991V24.8611ZM21.1444 28.0055V23.0064H14.8556V28.0055H21.1444ZM18 26.1508H22.9991V19.862H18V26.1508ZM26.1434 23.0064V18.0073H19.8547V23.0064H26.1434ZM22.9991 21.1517H32.9972V14.8629H22.9991V21.1517ZM29.8528 18.0073V23.0064H36.1416V18.0073H29.8528ZM32.9972 26.1508H37.9963V19.862H32.9972V26.1508ZM41.1407 23.0064V18.0073H34.8519V23.0064H41.1407ZM37.9963 21.1517H47.9944V14.8629H37.9963V21.1517ZM44.85 18.0073V23.0064H51.1388V18.0073H44.85ZM47.9944 26.1508H52.9935V19.862H47.9944V26.1508ZM49.8491 23.0064V28.0055H56.1379V23.0064H49.8491ZM52.9935 24.8611H47.9944V31.1498H52.9935V24.8611ZM44.85 28.0055V43.0027H51.1388V28.0055H44.85ZM47.9944 46.147H52.9935V39.8583H47.9944V46.147ZM49.8491 43.0027V48.0017H56.1379V43.0027H49.8491ZM52.9935 44.8574H47.9944V51.1461H52.9935V44.8574ZM44.85 48.0017V53.0008H51.1388V48.0017H44.85ZM47.9944 49.8564H37.9963V56.1452H47.9944V49.8564ZM41.1407 53.0008V48.0017H34.8519V53.0008H41.1407ZM37.9963 44.8574H32.9972V51.1461H37.9963V44.8574ZM29.8528 48.0017V53.0008H36.1416V48.0017H29.8528ZM32.9972 49.8564H22.9991V56.1452H32.9972V49.8564ZM32.9972 46.147H37.9963V39.8583H32.9972V46.147ZM41.1407 43.0027V28.0055H34.8519V43.0027H41.1407ZM37.9963 24.8611H32.9972V31.1498H37.9963V24.8611ZM29.8528 28.0055V43.0027H36.1416V28.0055H29.8528ZM78.9887 31.1498H83.9877V24.8611H78.9887V31.1498ZM80.8433 28.0055V33.0045H87.1321V28.0055H80.8433ZM83.9877 36.1489H88.9868V29.8602H83.9877V36.1489ZM85.8424 33.0045V38.0036H92.1312V33.0045H85.8424ZM88.9868 41.148H93.9859V34.8592H88.9868V41.148ZM90.8415 38.0036V48.0017H97.1302V38.0036H90.8415ZM93.9859 51.1461H98.9849V44.8574H93.9859V51.1461ZM95.8406 48.0017V53.0008H102.129V48.0017H95.8406ZM98.9849 49.8564H88.9868V56.1452H98.9849V49.8564ZM92.1312 53.0008V48.0017H85.8424V53.0008H92.1312ZM88.9868 44.8574H83.9877V51.1461H88.9868V44.8574ZM87.1321 48.0017V38.0036H80.8433V48.0017H87.1321ZM83.9877 34.8592H73.9896V41.148H83.9877V34.8592ZM70.8452 38.0036V53.0008H77.134V38.0036H70.8452ZM73.9896 49.8564H63.9914V56.1452H73.9896V49.8564ZM67.1358 53.0008V18.0073H60.8471V53.0008H67.1358ZM63.9914 21.1517H73.9896V14.8629H63.9914V21.1517ZM70.8452 18.0073V33.0045H77.134V18.0073H70.8452ZM73.9896 36.1489H78.9887V29.8602H73.9896V36.1489ZM82.133 33.0045V28.0055H75.8443V33.0045H82.133ZM95.8406 18.0073V23.0064H102.129V18.0073H95.8406ZM98.9849 19.862H93.9859V26.1508H98.9849V19.862ZM90.8415 23.0064V28.0055H97.1302V23.0064H90.8415ZM93.9859 24.8611H83.9877V31.1498H93.9859V24.8611ZM87.1321 28.0055V23.0064H80.8433V28.0055H87.1321ZM83.9877 26.1508H88.9868V19.862H83.9877V26.1508ZM92.1312 23.0064V18.0073H85.8424V23.0064H92.1312ZM88.9868 21.1517H98.9849V14.8629H88.9868V21.1517ZM118.126 53.0008V48.0017H111.838V53.0008H118.126ZM114.982 44.8574H109.983V51.1461H114.982V44.8574ZM113.127 48.0017V23.0064H106.839V48.0017H113.127ZM109.983 26.1508H114.982V19.862H109.983V26.1508ZM118.126 23.0064V18.0073H111.838V23.0064H118.126ZM114.982 21.1517H139.977V14.8629H114.982V21.1517ZM136.833 18.0073V23.0064H143.122V18.0073H136.833ZM139.977 26.1508H144.976V19.862H139.977V26.1508ZM141.832 23.0064V48.0017H148.121V23.0064H141.832ZM144.976 44.8574H139.977V51.1461H144.976V44.8574ZM136.833 48.0017V53.0008H143.122V48.0017H136.833ZM139.977 49.8564H114.982V56.1452H139.977V49.8564ZM119.981 51.1461H134.978V44.8574H119.981V51.1461ZM138.123 48.0017V23.0064H131.834V48.0017H138.123ZM134.978 19.862H119.981V26.1508H134.978V19.862ZM116.837 23.0064V48.0017H123.125V23.0064H116.837ZM159.119 53.0008V43.0027H152.83V53.0008H159.119ZM155.974 46.147H160.973V39.8583H155.974V46.147ZM164.118 43.0027V38.0036H157.829V43.0027H164.118ZM160.973 41.148H165.972V34.8592H160.973V41.148ZM169.117 38.0036V18.0073H162.828V38.0036H169.117ZM165.972 21.1517H190.968V14.8629H165.972V21.1517ZM187.823 18.0073V53.0008H194.112V18.0073H187.823ZM190.968 49.8564H180.97V56.1452H190.968V49.8564ZM184.114 53.0008V23.0064H177.825V53.0008H184.114ZM180.97 19.862H170.972V26.1508H180.97V19.862ZM167.827 23.0064V48.0017H174.116V23.0064H167.827ZM170.972 44.8574H165.972V51.1461H170.972V44.8574ZM162.828 48.0017V53.0008H169.117V48.0017H162.828ZM165.972 49.8564H155.974V56.1452H165.972V49.8564ZM205.11 53.0008V18.0073H198.821V53.0008H205.11ZM201.966 21.1517H211.964V14.8629H201.966V21.1517ZM208.82 18.0073V28.0055H215.108V18.0073H208.82ZM211.964 31.1498H231.96V24.8611H211.964V31.1498ZM228.816 28.0055V33.0045H235.105V28.0055H228.816ZM231.96 36.1489H236.959V29.8602H231.96V36.1489ZM233.815 33.0045V48.0017H240.104V33.0045H233.815ZM236.959 44.8574H231.96V51.1461H236.959V44.8574ZM228.816 48.0017V53.0008H235.105V48.0017H228.816ZM231.96 49.8564H201.966V56.1452H231.96V49.8564ZM211.964 51.1461H226.961V44.8574H211.964V51.1461ZM230.106 48.0017V33.0045H223.817V48.0017H230.106ZM226.961 29.8602H211.964V36.1489H226.961V29.8602ZM208.82 33.0045V48.0017H215.108V33.0045H208.82ZM276.097 57.9999V53.0008H269.808V57.9999H276.097ZM272.953 49.8564H247.957V56.1452H272.953V49.8564ZM251.102 53.0008V18.0073H244.813V53.0008H251.102ZM247.957 21.1517H257.955V14.8629H247.957V21.1517ZM254.811 18.0073V48.0017H261.1V18.0073H254.811ZM257.955 51.1461H267.954V44.8574H257.955V51.1461ZM271.098 48.0017V18.0073H264.809V48.0017H271.098ZM267.954 21.1517H277.952V14.8629H267.954V21.1517ZM274.807 18.0073V48.0017H281.096V18.0073H274.807ZM277.952 51.1461H282.951V44.8574H277.952V51.1461ZM279.806 48.0017V57.9999H286.095V48.0017H279.806ZM282.951 54.8555H272.953V61.1443H282.951V54.8555ZM302.092 53.0008V48.0017H295.803V53.0008H302.092ZM298.948 44.8574H293.949V51.1461H298.948V44.8574ZM297.093 48.0017V23.0064H290.804V48.0017H297.093ZM293.949 26.1508H298.948V19.862H293.949V26.1508ZM302.092 23.0064V18.0073H295.803V23.0064H302.092ZM298.948 21.1517H323.943V14.8629H298.948V21.1517ZM320.799 18.0073V23.0064H327.087V18.0073H320.799ZM323.943 26.1508H328.942V19.862H323.943V26.1508ZM325.798 23.0064V48.0017H332.087V23.0064H325.798ZM328.942 44.8574H323.943V51.1461H328.942V44.8574ZM320.799 48.0017V53.0008H327.087V48.0017H320.799ZM323.943 49.8564H298.948V56.1452H323.943V49.8564ZM303.947 51.1461H318.944V44.8574H303.947V51.1461ZM322.088 48.0017V23.0064H315.8V48.0017H322.088ZM318.944 19.862H303.947V26.1508H318.944V19.862ZM300.802 23.0064V48.0017H307.091V23.0064H300.802Z" fill="#82D9FF" mask="url(#path-7-outside-4)"/>
</g>
<g filter="url(#filter4_f)">
<mask id="path-9-outside-5" maskUnits="userSpaceOnUse" x="16" y="16.0073" width="315" height="44" fill="black">
<rect fill="white" x="16" y="16.0073" width="315" height="44"/>
<path d="M22.9991 53.0008V48.0017H18V43.0027H22.9991V28.0055H18V23.0064H22.9991V18.0073H32.9972V23.0064H37.9963V18.0073H47.9944V23.0064H52.9935V28.0055H47.9944V43.0027H52.9935V48.0017H47.9944V53.0008H37.9963V48.0017H32.9972V53.0008H22.9991ZM32.9972 43.0027H37.9963V28.0055H32.9972V43.0027Z"/>
<path d="M78.9887 28.0055H83.9877V33.0045H88.9868V38.0036H93.9859V48.0017H98.9849V53.0008H88.9868V48.0017H83.9877V38.0036H73.9896V53.0008H63.9914V18.0073H73.9896V33.0045H78.9887V28.0055ZM98.9849 18.0073V23.0064H93.9859V28.0055H83.9877V23.0064H88.9868V18.0073H98.9849Z"/>
<path d="M114.982 53.0008V48.0017H109.983V23.0064H114.982V18.0073H139.977V23.0064H144.976V48.0017H139.977V53.0008H114.982ZM119.981 48.0017H134.978V23.0064H119.981V48.0017Z"/>
<path d="M155.974 53.0008V43.0027H160.973V38.0036H165.972V18.0073H190.968V53.0008H180.97V23.0064H170.972V48.0017H165.972V53.0008H155.974Z"/>
<path d="M201.966 53.0008V18.0073H211.964V28.0055H231.96V33.0045H236.959V48.0017H231.96V53.0008H201.966ZM211.964 48.0017H226.961V33.0045H211.964V48.0017Z"/>
<path d="M272.953 57.9999V53.0008H247.957V18.0073H257.955V48.0017H267.954V18.0073H277.952V48.0017H282.951V57.9999H272.953Z"/>
<path d="M298.948 53.0008V48.0017H293.949V23.0064H298.948V18.0073H323.943V23.0064H328.942V48.0017H323.943V53.0008H298.948ZM303.947 48.0017H318.944V23.0064H303.947V48.0017Z"/>
</mask>
<path d="M22.9991 53.0008H21.4269V54.573H22.9991V53.0008ZM22.9991 48.0017H24.5713V46.4296H22.9991V48.0017ZM18 48.0017H16.4278V49.5739H18V48.0017ZM18 43.0027V41.4305H16.4278V43.0027H18ZM22.9991 43.0027V44.5749H24.5713V43.0027H22.9991ZM22.9991 28.0055H24.5713V26.4333H22.9991V28.0055ZM18 28.0055H16.4278V29.5777H18V28.0055ZM18 23.0064V21.4342H16.4278V23.0064H18ZM22.9991 23.0064V24.5786H24.5713V23.0064H22.9991ZM22.9991 18.0073V16.4351H21.4269V18.0073H22.9991ZM32.9972 18.0073H34.5694V16.4351H32.9972V18.0073ZM32.9972 23.0064H31.425V24.5786H32.9972V23.0064ZM37.9963 23.0064V24.5786H39.5685V23.0064H37.9963ZM37.9963 18.0073V16.4351H36.4241V18.0073H37.9963ZM47.9944 18.0073H49.5666V16.4351H47.9944V18.0073ZM47.9944 23.0064H46.4222V24.5786H47.9944V23.0064ZM52.9935 23.0064H54.5657V21.4342H52.9935V23.0064ZM52.9935 28.0055V29.5777H54.5657V28.0055H52.9935ZM47.9944 28.0055V26.4333H46.4222V28.0055H47.9944ZM47.9944 43.0027H46.4222V44.5749H47.9944V43.0027ZM52.9935 43.0027H54.5657V41.4305H52.9935V43.0027ZM52.9935 48.0017V49.5739H54.5657V48.0017H52.9935ZM47.9944 48.0017V46.4296H46.4222V48.0017H47.9944ZM47.9944 53.0008V54.573H49.5666V53.0008H47.9944ZM37.9963 53.0008H36.4241V54.573H37.9963V53.0008ZM37.9963 48.0017H39.5685V46.4296H37.9963V48.0017ZM32.9972 48.0017V46.4296H31.425V48.0017H32.9972ZM32.9972 53.0008V54.573H34.5694V53.0008H32.9972ZM32.9972 43.0027H31.425V44.5749H32.9972V43.0027ZM37.9963 43.0027V44.5749H39.5685V43.0027H37.9963ZM37.9963 28.0055H39.5685V26.4333H37.9963V28.0055ZM32.9972 28.0055V26.4333H31.425V28.0055H32.9972ZM78.9887 28.0055V26.4333H77.4165V28.0055H78.9887ZM83.9877 33.0045H82.4155V34.5767H83.9877V33.0045ZM88.9868 33.0045H90.559V31.4323H88.9868V33.0045ZM88.9868 38.0036H87.4146V39.5758H88.9868V38.0036ZM93.9859 38.0036H95.5581V36.4314H93.9859V38.0036ZM93.9859 48.0017H92.4137V49.5739H93.9859V48.0017ZM98.9849 48.0017H100.557V46.4296H98.9849V48.0017ZM98.9849 53.0008V54.573H100.557V53.0008H98.9849ZM88.9868 53.0008H87.4146V54.573H88.9868V53.0008ZM88.9868 48.0017H90.559V46.4296H88.9868V48.0017ZM83.9877 48.0017H82.4155V49.5739H83.9877V48.0017ZM83.9877 38.0036H85.5599V36.4314H83.9877V38.0036ZM73.9896 38.0036V36.4314H72.4174V38.0036H73.9896ZM73.9896 53.0008V54.573H75.5618V53.0008H73.9896ZM63.9914 53.0008H62.4193V54.573H63.9914V53.0008ZM63.9914 18.0073V16.4351H62.4193V18.0073H63.9914ZM73.9896 18.0073H75.5618V16.4351H73.9896V18.0073ZM73.9896 33.0045H72.4174V34.5767H73.9896V33.0045ZM78.9887 33.0045V34.5767H80.5608V33.0045H78.9887ZM98.9849 18.0073H100.557V16.4351H98.9849V18.0073ZM98.9849 23.0064V24.5786H100.557V23.0064H98.9849ZM93.9859 23.0064V21.4342H92.4137V23.0064H93.9859ZM93.9859 28.0055V29.5777H95.5581V28.0055H93.9859ZM83.9877 23.0064V21.4342H82.4155V23.0064H83.9877ZM88.9868 23.0064V24.5786H90.559V23.0064H88.9868ZM88.9868 18.0073V16.4351H87.4146V18.0073H88.9868ZM114.982 53.0008H113.41V54.573H114.982V53.0008ZM114.982 48.0017H116.554V46.4296H114.982V48.0017ZM109.983 48.0017H108.411V49.5739H109.983V48.0017ZM109.983 23.0064V21.4342H108.411V23.0064H109.983ZM114.982 23.0064V24.5786H116.554V23.0064H114.982ZM114.982 18.0073V16.4351H113.41V18.0073H114.982ZM139.977 18.0073H141.549V16.4351H139.977V18.0073ZM139.977 23.0064H138.405V24.5786H139.977V23.0064ZM144.976 23.0064H146.549V21.4342H144.976V23.0064ZM144.976 48.0017V49.5739H146.549V48.0017H144.976ZM139.977 48.0017V46.4296H138.405V48.0017H139.977ZM139.977 53.0008V54.573H141.549V53.0008H139.977ZM119.981 48.0017H118.409V49.5739H119.981V48.0017ZM134.978 48.0017V49.5739H136.55V48.0017H134.978ZM134.978 23.0064H136.55V21.4342H134.978V23.0064ZM119.981 23.0064V21.4342H118.409V23.0064H119.981ZM155.974 53.0008H154.402V54.573H155.974V53.0008ZM155.974 43.0027V41.4305H154.402V43.0027H155.974ZM160.973 43.0027V44.5749H162.546V43.0027H160.973ZM160.973 38.0036V36.4314H159.401V38.0036H160.973ZM165.972 38.0036V39.5758H167.545V38.0036H165.972ZM165.972 18.0073V16.4351H164.4V18.0073H165.972ZM190.968 18.0073H192.54V16.4351H190.968V18.0073ZM190.968 53.0008V54.573H192.54V53.0008H190.968ZM180.97 53.0008H179.398V54.573H180.97V53.0008ZM180.97 23.0064H182.542V21.4342H180.97V23.0064ZM170.972 23.0064V21.4342H169.399V23.0064H170.972ZM170.972 48.0017V49.5739H172.544V48.0017H170.972ZM165.972 48.0017V46.4296H164.4V48.0017H165.972ZM165.972 53.0008V54.573H167.545V53.0008H165.972ZM201.966 53.0008H200.394V54.573H201.966V53.0008ZM201.966 18.0073V16.4351H200.394V18.0073H201.966ZM211.964 18.0073H213.536V16.4351H211.964V18.0073ZM211.964 28.0055H210.392V29.5777H211.964V28.0055ZM231.96 28.0055H233.532V26.4333H231.96V28.0055ZM231.96 33.0045H230.388V34.5767H231.96V33.0045ZM236.959 33.0045H238.531V31.4323H236.959V33.0045ZM236.959 48.0017V49.5739H238.531V48.0017H236.959ZM231.96 48.0017V46.4296H230.388V48.0017H231.96ZM231.96 53.0008V54.573H233.532V53.0008H231.96ZM211.964 48.0017H210.392V49.5739H211.964V48.0017ZM226.961 48.0017V49.5739H228.533V48.0017H226.961ZM226.961 33.0045H228.533V31.4323H226.961V33.0045ZM211.964 33.0045V31.4323H210.392V33.0045H211.964ZM272.953 57.9999H271.38V59.5721H272.953V57.9999ZM272.953 53.0008H274.525V51.4286H272.953V53.0008ZM247.957 53.0008H246.385V54.573H247.957V53.0008ZM247.957 18.0073V16.4351H246.385V18.0073H247.957ZM257.955 18.0073H259.528V16.4351H257.955V18.0073ZM257.955 48.0017H256.383V49.5739H257.955V48.0017ZM267.954 48.0017V49.5739H269.526V48.0017H267.954ZM267.954 18.0073V16.4351H266.381V18.0073H267.954ZM277.952 18.0073H279.524V16.4351H277.952V18.0073ZM277.952 48.0017H276.379V49.5739H277.952V48.0017ZM282.951 48.0017H284.523V46.4296H282.951V48.0017ZM282.951 57.9999V59.5721H284.523V57.9999H282.951ZM298.948 53.0008H297.376V54.573H298.948V53.0008ZM298.948 48.0017H300.52V46.4296H298.948V48.0017ZM293.949 48.0017H292.376V49.5739H293.949V48.0017ZM293.949 23.0064V21.4342H292.376V23.0064H293.949ZM298.948 23.0064V24.5786H300.52V23.0064H298.948ZM298.948 18.0073V16.4351H297.376V18.0073H298.948ZM323.943 18.0073H325.515V16.4351H323.943V18.0073ZM323.943 23.0064H322.371V24.5786H323.943V23.0064ZM328.942 23.0064H330.514V21.4342H328.942V23.0064ZM328.942 48.0017V49.5739H330.514V48.0017H328.942ZM323.943 48.0017V46.4296H322.371V48.0017H323.943ZM323.943 53.0008V54.573H325.515V53.0008H323.943ZM303.947 48.0017H302.375V49.5739H303.947V48.0017ZM318.944 48.0017V49.5739H320.516V48.0017H318.944ZM318.944 23.0064H320.516V21.4342H318.944V23.0064ZM303.947 23.0064V21.4342H302.375V23.0064H303.947ZM24.5713 53.0008V48.0017H21.4269V53.0008H24.5713ZM22.9991 46.4296H18V49.5739H22.9991V46.4296ZM19.5722 48.0017V43.0027H16.4278V48.0017H19.5722ZM18 44.5749H22.9991V41.4305H18V44.5749ZM24.5713 43.0027V28.0055H21.4269V43.0027H24.5713ZM22.9991 26.4333H18V29.5777H22.9991V26.4333ZM19.5722 28.0055V23.0064H16.4278V28.0055H19.5722ZM18 24.5786H22.9991V21.4342H18V24.5786ZM24.5713 23.0064V18.0073H21.4269V23.0064H24.5713ZM22.9991 19.5795H32.9972V16.4351H22.9991V19.5795ZM31.425 18.0073V23.0064H34.5694V18.0073H31.425ZM32.9972 24.5786H37.9963V21.4342H32.9972V24.5786ZM39.5685 23.0064V18.0073H36.4241V23.0064H39.5685ZM37.9963 19.5795H47.9944V16.4351H37.9963V19.5795ZM46.4222 18.0073V23.0064H49.5666V18.0073H46.4222ZM47.9944 24.5786H52.9935V21.4342H47.9944V24.5786ZM51.4213 23.0064V28.0055H54.5657V23.0064H51.4213ZM52.9935 26.4333H47.9944V29.5777H52.9935V26.4333ZM46.4222 28.0055V43.0027H49.5666V28.0055H46.4222ZM47.9944 44.5749H52.9935V41.4305H47.9944V44.5749ZM51.4213 43.0027V48.0017H54.5657V43.0027H51.4213ZM52.9935 46.4296H47.9944V49.5739H52.9935V46.4296ZM46.4222 48.0017V53.0008H49.5666V48.0017H46.4222ZM47.9944 51.4286H37.9963V54.573H47.9944V51.4286ZM39.5685 53.0008V48.0017H36.4241V53.0008H39.5685ZM37.9963 46.4296H32.9972V49.5739H37.9963V46.4296ZM31.425 48.0017V53.0008H34.5694V48.0017H31.425ZM32.9972 51.4286H22.9991V54.573H32.9972V51.4286ZM32.9972 44.5749H37.9963V41.4305H32.9972V44.5749ZM39.5685 43.0027V28.0055H36.4241V43.0027H39.5685ZM37.9963 26.4333H32.9972V29.5777H37.9963V26.4333ZM31.425 28.0055V43.0027H34.5694V28.0055H31.425ZM78.9887 29.5777H83.9877V26.4333H78.9887V29.5777ZM82.4155 28.0055V33.0045H85.5599V28.0055H82.4155ZM83.9877 34.5767H88.9868V31.4323H83.9877V34.5767ZM87.4146 33.0045V38.0036H90.559V33.0045H87.4146ZM88.9868 39.5758H93.9859V36.4314H88.9868V39.5758ZM92.4137 38.0036V48.0017H95.5581V38.0036H92.4137ZM93.9859 49.5739H98.9849V46.4296H93.9859V49.5739ZM97.4128 48.0017V53.0008H100.557V48.0017H97.4128ZM98.9849 51.4286H88.9868V54.573H98.9849V51.4286ZM90.559 53.0008V48.0017H87.4146V53.0008H90.559ZM88.9868 46.4296H83.9877V49.5739H88.9868V46.4296ZM85.5599 48.0017V38.0036H82.4155V48.0017H85.5599ZM83.9877 36.4314H73.9896V39.5758H83.9877V36.4314ZM72.4174 38.0036V53.0008H75.5618V38.0036H72.4174ZM73.9896 51.4286H63.9914V54.573H73.9896V51.4286ZM65.5636 53.0008V18.0073H62.4193V53.0008H65.5636ZM63.9914 19.5795H73.9896V16.4351H63.9914V19.5795ZM72.4174 18.0073V33.0045H75.5618V18.0073H72.4174ZM73.9896 34.5767H78.9887V31.4323H73.9896V34.5767ZM80.5608 33.0045V28.0055H77.4165V33.0045H80.5608ZM97.4128 18.0073V23.0064H100.557V18.0073H97.4128ZM98.9849 21.4342H93.9859V24.5786H98.9849V21.4342ZM92.4137 23.0064V28.0055H95.5581V23.0064H92.4137ZM93.9859 26.4333H83.9877V29.5777H93.9859V26.4333ZM85.5599 28.0055V23.0064H82.4155V28.0055H85.5599ZM83.9877 24.5786H88.9868V21.4342H83.9877V24.5786ZM90.559 23.0064V18.0073H87.4146V23.0064H90.559ZM88.9868 19.5795H98.9849V16.4351H88.9868V19.5795ZM116.554 53.0008V48.0017H113.41V53.0008H116.554ZM114.982 46.4296H109.983V49.5739H114.982V46.4296ZM111.555 48.0017V23.0064H108.411V48.0017H111.555ZM109.983 24.5786H114.982V21.4342H109.983V24.5786ZM116.554 23.0064V18.0073H113.41V23.0064H116.554ZM114.982 19.5795H139.977V16.4351H114.982V19.5795ZM138.405 18.0073V23.0064H141.549V18.0073H138.405ZM139.977 24.5786H144.976V21.4342H139.977V24.5786ZM143.404 23.0064V48.0017H146.549V23.0064H143.404ZM144.976 46.4296H139.977V49.5739H144.976V46.4296ZM138.405 48.0017V53.0008H141.549V48.0017H138.405ZM139.977 51.4286H114.982V54.573H139.977V51.4286ZM119.981 49.5739H134.978V46.4296H119.981V49.5739ZM136.55 48.0017V23.0064H133.406V48.0017H136.55ZM134.978 21.4342H119.981V24.5786H134.978V21.4342ZM118.409 23.0064V48.0017H121.553V23.0064H118.409ZM157.547 53.0008V43.0027H154.402V53.0008H157.547ZM155.974 44.5749H160.973V41.4305H155.974V44.5749ZM162.546 43.0027V38.0036H159.401V43.0027H162.546ZM160.973 39.5758H165.972V36.4314H160.973V39.5758ZM167.545 38.0036V18.0073H164.4V38.0036H167.545ZM165.972 19.5795H190.968V16.4351H165.972V19.5795ZM189.396 18.0073V53.0008H192.54V18.0073H189.396ZM190.968 51.4286H180.97V54.573H190.968V51.4286ZM182.542 53.0008V23.0064H179.398V53.0008H182.542ZM180.97 21.4342H170.972V24.5786H180.97V21.4342ZM169.399 23.0064V48.0017H172.544V23.0064H169.399ZM170.972 46.4296H165.972V49.5739H170.972V46.4296ZM164.4 48.0017V53.0008H167.545V48.0017H164.4ZM165.972 51.4286H155.974V54.573H165.972V51.4286ZM203.538 53.0008V18.0073H200.394V53.0008H203.538ZM201.966 19.5795H211.964V16.4351H201.966V19.5795ZM210.392 18.0073V28.0055H213.536V18.0073H210.392ZM211.964 29.5777H231.96V26.4333H211.964V29.5777ZM230.388 28.0055V33.0045H233.532V28.0055H230.388ZM231.96 34.5767H236.959V31.4323H231.96V34.5767ZM235.387 33.0045V48.0017H238.531V33.0045H235.387ZM236.959 46.4296H231.96V49.5739H236.959V46.4296ZM230.388 48.0017V53.0008H233.532V48.0017H230.388ZM231.96 51.4286H201.966V54.573H231.96V51.4286ZM211.964 49.5739H226.961V46.4296H211.964V49.5739ZM228.533 48.0017V33.0045H225.389V48.0017H228.533ZM226.961 31.4323H211.964V34.5767H226.961V31.4323ZM210.392 33.0045V48.0017H213.536V33.0045H210.392ZM274.525 57.9999V53.0008H271.38V57.9999H274.525ZM272.953 51.4286H247.957V54.573H272.953V51.4286ZM249.529 53.0008V18.0073H246.385V53.0008H249.529ZM247.957 19.5795H257.955V16.4351H247.957V19.5795ZM256.383 18.0073V48.0017H259.528V18.0073H256.383ZM257.955 49.5739H267.954V46.4296H257.955V49.5739ZM269.526 48.0017V18.0073H266.381V48.0017H269.526ZM267.954 19.5795H277.952V16.4351H267.954V19.5795ZM276.379 18.0073V48.0017H279.524V18.0073H276.379ZM277.952 49.5739H282.951V46.4296H277.952V49.5739ZM281.379 48.0017V57.9999H284.523V48.0017H281.379ZM282.951 56.4277H272.953V59.5721H282.951V56.4277ZM300.52 53.0008V48.0017H297.376V53.0008H300.52ZM298.948 46.4296H293.949V49.5739H298.948V46.4296ZM295.521 48.0017V23.0064H292.376V48.0017H295.521ZM293.949 24.5786H298.948V21.4342H293.949V24.5786ZM300.52 23.0064V18.0073H297.376V23.0064H300.52ZM298.948 19.5795H323.943V16.4351H298.948V19.5795ZM322.371 18.0073V23.0064H325.515V18.0073H322.371ZM323.943 24.5786H328.942V21.4342H323.943V24.5786ZM327.37 23.0064V48.0017H330.514V23.0064H327.37ZM328.942 46.4296H323.943V49.5739H328.942V46.4296ZM322.371 48.0017V53.0008H325.515V48.0017H322.371ZM323.943 51.4286H298.948V54.573H323.943V51.4286ZM303.947 49.5739H318.944V46.4296H303.947V49.5739ZM320.516 48.0017V23.0064H317.372V48.0017H320.516ZM318.944 21.4342H303.947V24.5786H318.944V21.4342ZM302.375 23.0064V48.0017H305.519V23.0064H302.375Z" fill="white" mask="url(#path-9-outside-5)"/>
</g>
<defs>
<filter id="filter0_f" x="0.98106" y="0.988384" width="344.98" height="74.0304" filterUnits="userSpaceOnUse" color-interpolation-filters="sRGB">
<feFlood flood-opacity="0" result="BackgroundImageFix"/>
<feBlend mode="normal" in="SourceGraphic" in2="BackgroundImageFix" result="shape"/>
<feGaussianBlur stdDeviation="5.95466" result="effect1_foregroundBlur"/>
</filter>
<filter id="filter1_f" x="7.34846" y="7.35579" width="332.245" height="61.2957" filterUnits="userSpaceOnUse" color-interpolation-filters="sRGB">
<feFlood flood-opacity="0" result="BackgroundImageFix"/>
<feBlend mode="normal" in="SourceGraphic" in2="BackgroundImageFix" result="shape"/>
<feGaussianBlur stdDeviation="1.98489" result="effect1_foregroundBlur"/>
</filter>
<filter id="filter2_ddi" x="7.72968" y="11.7068" width="331.483" height="60.5332" filterUnits="userSpaceOnUse" color-interpolation-filters="sRGB">
<feFlood flood-opacity="0" result="BackgroundImageFix"/>
<feColorMatrix in="SourceAlpha" type="matrix" values="0 0 0 0 0 0 0 0 0 0 0 0 0 0 0 0 0 0 127 0"/>
<feOffset dy="5.10961"/>
<feGaussianBlur stdDeviation="1.96523"/>
<feColorMatrix type="matrix" values="0 0 0 0 0 0 0 0 0 0.051 0 0 0 0 0.082 0 0 0 0.7 0"/>
<feBlend mode="multiply" in2="BackgroundImageFix" result="effect1_dropShadow"/>
<feColorMatrix in="SourceAlpha" type="matrix" values="0 0 0 0 0 0 0 0 0 0 0 0 0 0 0 0 0 0 127 0"/>
<feOffset dy="3.96977"/>
<feGaussianBlur stdDeviation="2.58035"/>
<feColorMatrix type="matrix" values="0 0 0 0 0 0 0 0 0 0.4 0 0 0 0 1 0 0 0 1 0"/>
<feBlend mode="color-dodge" in2="effect1_dropShadow" result="effect2_dropShadow"/>
<feBlend mode="normal" in="SourceGraphic" in2="effect2_dropShadow" result="shape"/>
<feColorMatrix in="SourceAlpha" type="matrix" values="0 0 0 0 0 0 0 0 0 0 0 0 0 0 0 0 0 0 127 0" result="hardAlpha"/>
<feOffset dx="-0.510961" dy="1.02192"/>
<feGaussianBlur stdDeviation="0.25548"/>
<feComposite in2="hardAlpha" operator="arithmetic" k2="-1" k3="1"/>
<feColorMatrix type="matrix" values="0 0 0 0 1 0 0 0 0 1 0 0 0 0 1 0 0 0 0.5 0"/>
<feBlend mode="normal" in2="shape" result="effect3_innerShadow"/>
</filter>
<filter id="filter3_f" x="14.0695" y="14.0768" width="318.803" height="47.8535" filterUnits="userSpaceOnUse" color-interpolation-filters="sRGB">
<feFlood flood-opacity="0" result="BackgroundImageFix"/>
<feBlend mode="normal" in="SourceGraphic" in2="BackgroundImageFix" result="shape"/>
<feGaussianBlur stdDeviation="0.393047" result="effect1_foregroundBlur"/>
</filter>
<filter id="filter4_f" x="15.9038" y="15.9111" width="315.135" height="44.1851" filterUnits="userSpaceOnUse" color-interpolation-filters="sRGB">
<feFlood flood-opacity="0" result="BackgroundImageFix"/>
<feBlend mode="normal" in="SourceGraphic" in2="BackgroundImageFix" result="shape"/>
<feGaussianBlur stdDeviation="0.262031" result="effect1_foregroundBlur"/>
</filter>
</defs>
</svg>
