<svg width="295" height="70" viewBox="0 0 295 70" fill="none" xmlns="http://www.w3.org/2000/svg">
<g style="mix-blend-mode:hard-light" filter="url(#filter0_f)">
<mask id="path-1-outside-1" maskUnits="userSpaceOnUse" x="9.93311" y="10.0073" width="275" height="50" fill="black">
<rect fill="white" x="9.93311" y="10.0073" width="275" height="50"/>
<path d="M19.9344 50.0008V45.0017H14.9331V40.0027H19.9344V25.0055H14.9331V20.0064H19.9344V15.0073H29.9369V20.0064H34.9382V15.0073H44.9407V20.0064H49.942V25.0055H44.9407V40.0027H49.942V45.0017H44.9407V50.0008H34.9382V45.0017H29.9369V50.0008H19.9344ZM29.9369 40.0027H34.9382V25.0055H29.9369V40.0027Z"/>
<path d="M60.9447 54.9999V45.0017H65.946V35.0036H70.9473V15.0073H95.9536V45.0017H100.955V54.9999H90.9523V50.0008H70.9473V54.9999H60.9447ZM75.9485 45.0017H85.951V20.0064H75.9485V45.0017Z"/>
<path d="M106.956 50.0008V15.0073H136.964V20.0064H141.965V35.0036H136.964V40.0027H116.959V50.0008H106.956ZM116.959 35.0036H131.963V20.0064H116.959V35.0036Z"/>
<path d="M152.968 50.0008V15.0073H162.97V35.0036H167.972V30.0045H172.973V25.0055H177.974V15.0073H187.977V50.0008H177.974V35.0036H172.973V40.0027H167.972V45.0017H162.97V50.0008H152.968Z"/>
<path d="M213.983 50.0008V45.0017H203.981V40.0027H198.98V25.0055H203.981V20.0064H213.983V15.0073H218.985V20.0064H228.987V25.0055H233.988V40.0027H228.987V45.0017H218.985V50.0008H213.983ZM208.982 40.0027H213.983V25.0055H208.982V40.0027ZM218.985 40.0027H223.986V25.0055H218.985V40.0027Z"/>
<path d="M259.995 50.0008V20.0064H249.992V15.0073H280V20.0064H269.998V50.0008H259.995Z"/>
</mask>
<path d="M19.9344 50.0008V45.0017H14.9331V40.0027H19.9344V25.0055H14.9331V20.0064H19.9344V15.0073H29.9369V20.0064H34.9382V15.0073H44.9407V20.0064H49.942V25.0055H44.9407V40.0027H49.942V45.0017H44.9407V50.0008H34.9382V45.0017H29.9369V50.0008H19.9344ZM29.9369 40.0027H34.9382V25.0055H29.9369V40.0027Z" stroke="#0094FF" stroke-width="8.88333" mask="url(#path-1-outside-1)"/>
<path d="M60.9447 54.9999V45.0017H65.946V35.0036H70.9473V15.0073H95.9536V45.0017H100.955V54.9999H90.9523V50.0008H70.9473V54.9999H60.9447ZM75.9485 45.0017H85.951V20.0064H75.9485V45.0017Z" stroke="#0094FF" stroke-width="8.88333" mask="url(#path-1-outside-1)"/>
<path d="M106.956 50.0008V15.0073H136.964V20.0064H141.965V35.0036H136.964V40.0027H116.959V50.0008H106.956ZM116.959 35.0036H131.963V20.0064H116.959V35.0036Z" stroke="#0094FF" stroke-width="8.88333" mask="url(#path-1-outside-1)"/>
<path d="M152.968 50.0008V15.0073H162.97V35.0036H167.972V30.0045H172.973V25.0055H177.974V15.0073H187.977V50.0008H177.974V35.0036H172.973V40.0027H167.972V45.0017H162.97V50.0008H152.968Z" stroke="#0094FF" stroke-width="8.88333" mask="url(#path-1-outside-1)"/>
<path d="M213.983 50.0008V45.0017H203.981V40.0027H198.98V25.0055H203.981V20.0064H213.983V15.0073H218.985V20.0064H228.987V25.0055H233.988V40.0027H228.987V45.0017H218.985V50.0008H213.983ZM208.982 40.0027H213.983V25.0055H208.982V40.0027ZM218.985 40.0027H223.986V25.0055H218.985V40.0027Z" stroke="#0094FF" stroke-width="8.88333" mask="url(#path-1-outside-1)"/>
<path d="M259.995 50.0008V20.0064H249.992V15.0073H280V20.0064H269.998V50.0008H259.995Z" stroke="#0094FF" stroke-width="8.88333" mask="url(#path-1-outside-1)"/>
</g>
<g style="mix-blend-mode:hard-light" filter="url(#filter1_f)">
<mask id="path-2-outside-2" maskUnits="userSpaceOnUse" x="8.93311" y="9.00732" width="277" height="52" fill="black">
<rect fill="white" x="8.93311" y="9.00732" width="277" height="52"/>
<path d="M19.9344 50.0008V45.0017H14.9331V40.0027H19.9344V25.0055H14.9331V20.0064H19.9344V15.0073H29.9369V20.0064H34.9382V15.0073H44.9407V20.0064H49.942V25.0055H44.9407V40.0027H49.942V45.0017H44.9407V50.0008H34.9382V45.0017H29.9369V50.0008H19.9344ZM29.9369 40.0027H34.9382V25.0055H29.9369V40.0027Z"/>
<path d="M60.9447 54.9999V45.0017H65.946V35.0036H70.9473V15.0073H95.9536V45.0017H100.955V54.9999H90.9523V50.0008H70.9473V54.9999H60.9447ZM75.9485 45.0017H85.951V20.0064H75.9485V45.0017Z"/>
<path d="M106.956 50.0008V15.0073H136.964V20.0064H141.965V35.0036H136.964V40.0027H116.959V50.0008H106.956ZM116.959 35.0036H131.963V20.0064H116.959V35.0036Z"/>
<path d="M152.968 50.0008V15.0073H162.97V35.0036H167.972V30.0045H172.973V25.0055H177.974V15.0073H187.977V50.0008H177.974V35.0036H172.973V40.0027H167.972V45.0017H162.97V50.0008H152.968Z"/>
<path d="M213.983 50.0008V45.0017H203.981V40.0027H198.98V25.0055H203.981V20.0064H213.983V15.0073H218.985V20.0064H228.987V25.0055H233.988V40.0027H228.987V45.0017H218.985V50.0008H213.983ZM208.982 40.0027H213.983V25.0055H208.982V40.0027ZM218.985 40.0027H223.986V25.0055H218.985V40.0027Z"/>
<path d="M259.995 50.0008V20.0064H249.992V15.0073H280V20.0064H269.998V50.0008H259.995Z"/>
</mask>
<path d="M19.9344 50.0008V45.0017H14.9331V40.0027H19.9344V25.0055H14.9331V20.0064H19.9344V15.0073H29.9369V20.0064H34.9382V15.0073H44.9407V20.0064H49.942V25.0055H44.9407V40.0027H49.942V45.0017H44.9407V50.0008H34.9382V45.0017H29.9369V50.0008H19.9344ZM29.9369 40.0027H34.9382V25.0055H29.9369V40.0027Z" stroke="#0094FF" stroke-width="11.6167" mask="url(#path-2-outside-2)"/>
<path d="M60.9447 54.9999V45.0017H65.946V35.0036H70.9473V15.0073H95.9536V45.0017H100.955V54.9999H90.9523V50.0008H70.9473V54.9999H60.9447ZM75.9485 45.0017H85.951V20.0064H75.9485V45.0017Z" stroke="#0094FF" stroke-width="11.6167" mask="url(#path-2-outside-2)"/>
<path d="M106.956 50.0008V15.0073H136.964V20.0064H141.965V35.0036H136.964V40.0027H116.959V50.0008H106.956ZM116.959 35.0036H131.963V20.0064H116.959V35.0036Z" stroke="#0094FF" stroke-width="11.6167" mask="url(#path-2-outside-2)"/>
<path d="M152.968 50.0008V15.0073H162.97V35.0036H167.972V30.0045H172.973V25.0055H177.974V15.0073H187.977V50.0008H177.974V35.0036H172.973V40.0027H167.972V45.0017H162.97V50.0008H152.968Z" stroke="#0094FF" stroke-width="11.6167" mask="url(#path-2-outside-2)"/>
<path d="M213.983 50.0008V45.0017H203.981V40.0027H198.98V25.0055H203.981V20.0064H213.983V15.0073H218.985V20.0064H228.987V25.0055H233.988V40.0027H228.987V45.0017H218.985V50.0008H213.983ZM208.982 40.0027H213.983V25.0055H208.982V40.0027ZM218.985 40.0027H223.986V25.0055H218.985V40.0027Z" stroke="#0094FF" stroke-width="11.6167" mask="url(#path-2-outside-2)"/>
<path d="M259.995 50.0008V20.0064H249.992V15.0073H280V20.0064H269.998V50.0008H259.995Z" stroke="#0094FF" stroke-width="11.6167" mask="url(#path-2-outside-2)"/>
</g>
<g style="mix-blend-mode:hard-light" filter="url(#filter2_ddi)">
<mask id="path-3-outside-3" maskUnits="userSpaceOnUse" x="9.93311" y="10.0073" width="275" height="50" fill="black">
<rect fill="white" x="9.93311" y="10.0073" width="275" height="50"/>
<path d="M19.9344 50.0008V45.0017H14.9331V40.0027H19.9344V25.0055H14.9331V20.0064H19.9344V15.0073H29.9369V20.0064H34.9382V15.0073H44.9407V20.0064H49.942V25.0055H44.9407V40.0027H49.942V45.0017H44.9407V50.0008H34.9382V45.0017H29.9369V50.0008H19.9344ZM29.9369 40.0027H34.9382V25.0055H29.9369V40.0027Z"/>
<path d="M60.9447 54.9999V45.0017H65.946V35.0036H70.9473V15.0073H95.9536V45.0017H100.955V54.9999H90.9523V50.0008H70.9473V54.9999H60.9447ZM75.9485 45.0017H85.951V20.0064H75.9485V45.0017Z"/>
<path d="M106.956 50.0008V15.0073H136.964V20.0064H141.965V35.0036H136.964V40.0027H116.959V50.0008H106.956ZM116.959 35.0036H131.963V20.0064H116.959V35.0036Z"/>
<path d="M152.968 50.0008V15.0073H162.97V35.0036H167.972V30.0045H172.973V25.0055H177.974V15.0073H187.977V50.0008H177.974V35.0036H172.973V40.0027H167.972V45.0017H162.97V50.0008H152.968Z"/>
<path d="M213.983 50.0008V45.0017H203.981V40.0027H198.98V25.0055H203.981V20.0064H213.983V15.0073H218.985V20.0064H228.987V25.0055H233.988V40.0027H228.987V45.0017H218.985V50.0008H213.983ZM208.982 40.0027H213.983V25.0055H208.982V40.0027ZM218.985 40.0027H223.986V25.0055H218.985V40.0027Z"/>
<path d="M259.995 50.0008V20.0064H249.992V15.0073H280V20.0064H269.998V50.0008H259.995Z"/>
</mask>
<path d="M19.9344 50.0008V45.0017H14.9331V40.0027H19.9344V25.0055H14.9331V20.0064H19.9344V15.0073H29.9369V20.0064H34.9382V15.0073H44.9407V20.0064H49.942V25.0055H44.9407V40.0027H49.942V45.0017H44.9407V50.0008H34.9382V45.0017H29.9369V50.0008H19.9344ZM29.9369 40.0027H34.9382V25.0055H29.9369V40.0027Z" stroke="#00B3FF" stroke-opacity="0.2" stroke-width="8.88333" mask="url(#path-3-outside-3)"/>
<path d="M60.9447 54.9999V45.0017H65.946V35.0036H70.9473V15.0073H95.9536V45.0017H100.955V54.9999H90.9523V50.0008H70.9473V54.9999H60.9447ZM75.9485 45.0017H85.951V20.0064H75.9485V45.0017Z" stroke="#00B3FF" stroke-opacity="0.2" stroke-width="8.88333" mask="url(#path-3-outside-3)"/>
<path d="M106.956 50.0008V15.0073H136.964V20.0064H141.965V35.0036H136.964V40.0027H116.959V50.0008H106.956ZM116.959 35.0036H131.963V20.0064H116.959V35.0036Z" stroke="#00B3FF" stroke-opacity="0.2" stroke-width="8.88333" mask="url(#path-3-outside-3)"/>
<path d="M152.968 50.0008V15.0073H162.97V35.0036H167.972V30.0045H172.973V25.0055H177.974V15.0073H187.977V50.0008H177.974V35.0036H172.973V40.0027H167.972V45.0017H162.97V50.0008H152.968Z" stroke="#00B3FF" stroke-opacity="0.2" stroke-width="8.88333" mask="url(#path-3-outside-3)"/>
<path d="M213.983 50.0008V45.0017H203.981V40.0027H198.98V25.0055H203.981V20.0064H213.983V15.0073H218.985V20.0064H228.987V25.0055H233.988V40.0027H228.987V45.0017H218.985V50.0008H213.983ZM208.982 40.0027H213.983V25.0055H208.982V40.0027ZM218.985 40.0027H223.986V25.0055H218.985V40.0027Z" stroke="#00B3FF" stroke-opacity="0.2" stroke-width="8.88333" mask="url(#path-3-outside-3)"/>
<path d="M259.995 50.0008V20.0064H249.992V15.0073H280V20.0064H269.998V50.0008H259.995Z" stroke="#00B3FF" stroke-opacity="0.2" stroke-width="8.88333" mask="url(#path-3-outside-3)"/>
</g>
<g filter="url(#filter3_f)">
<mask id="path-4-outside-4" maskUnits="userSpaceOnUse" x="11.9331" y="12.0073" width="271" height="46" fill="black">
<rect fill="white" x="11.9331" y="12.0073" width="271" height="46"/>
<path d="M19.9344 50.0008V45.0017H14.9331V40.0027H19.9344V25.0055H14.9331V20.0064H19.9344V15.0073H29.9369V20.0064H34.9382V15.0073H44.9407V20.0064H49.942V25.0055H44.9407V40.0027H49.942V45.0017H44.9407V50.0008H34.9382V45.0017H29.9369V50.0008H19.9344ZM29.9369 40.0027H34.9382V25.0055H29.9369V40.0027Z"/>
<path d="M60.9447 54.9999V45.0017H65.946V35.0036H70.9473V15.0073H95.9536V45.0017H100.955V54.9999H90.9523V50.0008H70.9473V54.9999H60.9447ZM75.9485 45.0017H85.951V20.0064H75.9485V45.0017Z"/>
<path d="M106.956 50.0008V15.0073H136.964V20.0064H141.965V35.0036H136.964V40.0027H116.959V50.0008H106.956ZM116.959 35.0036H131.963V20.0064H116.959V35.0036Z"/>
<path d="M152.968 50.0008V15.0073H162.97V35.0036H167.972V30.0045H172.973V25.0055H177.974V15.0073H187.977V50.0008H177.974V35.0036H172.973V40.0027H167.972V45.0017H162.97V50.0008H152.968Z"/>
<path d="M213.983 50.0008V45.0017H203.981V40.0027H198.98V25.0055H203.981V20.0064H213.983V15.0073H218.985V20.0064H228.987V25.0055H233.988V40.0027H228.987V45.0017H218.985V50.0008H213.983ZM208.982 40.0027H213.983V25.0055H208.982V40.0027ZM218.985 40.0027H223.986V25.0055H218.985V40.0027Z"/>
<path d="M259.995 50.0008V20.0064H249.992V15.0073H280V20.0064H269.998V50.0008H259.995Z"/>
</mask>
<path d="M19.9344 50.0008V45.0017H14.9331V40.0027H19.9344V25.0055H14.9331V20.0064H19.9344V15.0073H29.9369V20.0064H34.9382V15.0073H44.9407V20.0064H49.942V25.0055H44.9407V40.0027H49.942V45.0017H44.9407V50.0008H34.9382V45.0017H29.9369V50.0008H19.9344ZM29.9369 40.0027H34.9382V25.0055H29.9369V40.0027Z" stroke="#82D9FF" stroke-width="5.46667" mask="url(#path-4-outside-4)"/>
<path d="M60.9447 54.9999V45.0017H65.946V35.0036H70.9473V15.0073H95.9536V45.0017H100.955V54.9999H90.9523V50.0008H70.9473V54.9999H60.9447ZM75.9485 45.0017H85.951V20.0064H75.9485V45.0017Z" stroke="#82D9FF" stroke-width="5.46667" mask="url(#path-4-outside-4)"/>
<path d="M106.956 50.0008V15.0073H136.964V20.0064H141.965V35.0036H136.964V40.0027H116.959V50.0008H106.956ZM116.959 35.0036H131.963V20.0064H116.959V35.0036Z" stroke="#82D9FF" stroke-width="5.46667" mask="url(#path-4-outside-4)"/>
<path d="M152.968 50.0008V15.0073H162.97V35.0036H167.972V30.0045H172.973V25.0055H177.974V15.0073H187.977V50.0008H177.974V35.0036H172.973V40.0027H167.972V45.0017H162.97V50.0008H152.968Z" stroke="#82D9FF" stroke-width="5.46667" mask="url(#path-4-outside-4)"/>
<path d="M213.983 50.0008V45.0017H203.981V40.0027H198.98V25.0055H203.981V20.0064H213.983V15.0073H218.985V20.0064H228.987V25.0055H233.988V40.0027H228.987V45.0017H218.985V50.0008H213.983ZM208.982 40.0027H213.983V25.0055H208.982V40.0027ZM218.985 40.0027H223.986V25.0055H218.985V40.0027Z" stroke="#82D9FF" stroke-width="5.46667" mask="url(#path-4-outside-4)"/>
<path d="M259.995 50.0008V20.0064H249.992V15.0073H280V20.0064H269.998V50.0008H259.995Z" stroke="#82D9FF" stroke-width="5.46667" mask="url(#path-4-outside-4)"/>
</g>
<g filter="url(#filter4_f)">
<mask id="path-5-outside-5" maskUnits="userSpaceOnUse" x="12.9331" y="13.0073" width="269" height="44" fill="black">
<rect fill="white" x="12.9331" y="13.0073" width="269" height="44"/>
<path d="M19.9344 50.0008V45.0017H14.9331V40.0027H19.9344V25.0055H14.9331V20.0064H19.9344V15.0073H29.9369V20.0064H34.9382V15.0073H44.9407V20.0064H49.942V25.0055H44.9407V40.0027H49.942V45.0017H44.9407V50.0008H34.9382V45.0017H29.9369V50.0008H19.9344ZM29.9369 40.0027H34.9382V25.0055H29.9369V40.0027Z"/>
<path d="M60.9447 54.9999V45.0017H65.946V35.0036H70.9473V15.0073H95.9536V45.0017H100.955V54.9999H90.9523V50.0008H70.9473V54.9999H60.9447ZM75.9485 45.0017H85.951V20.0064H75.9485V45.0017Z"/>
<path d="M106.956 50.0008V15.0073H136.964V20.0064H141.965V35.0036H136.964V40.0027H116.959V50.0008H106.956ZM116.959 35.0036H131.963V20.0064H116.959V35.0036Z"/>
<path d="M152.968 50.0008V15.0073H162.97V35.0036H167.972V30.0045H172.973V25.0055H177.974V15.0073H187.977V50.0008H177.974V35.0036H172.973V40.0027H167.972V45.0017H162.97V50.0008H152.968Z"/>
<path d="M213.983 50.0008V45.0017H203.981V40.0027H198.98V25.0055H203.981V20.0064H213.983V15.0073H218.985V20.0064H228.987V25.0055H233.988V40.0027H228.987V45.0017H218.985V50.0008H213.983ZM208.982 40.0027H213.983V25.0055H208.982V40.0027ZM218.985 40.0027H223.986V25.0055H218.985V40.0027Z"/>
<path d="M259.995 50.0008V20.0064H249.992V15.0073H280V20.0064H269.998V50.0008H259.995Z"/>
</mask>
<path d="M19.9344 50.0008V45.0017H14.9331V40.0027H19.9344V25.0055H14.9331V20.0064H19.9344V15.0073H29.9369V20.0064H34.9382V15.0073H44.9407V20.0064H49.942V25.0055H44.9407V40.0027H49.942V45.0017H44.9407V50.0008H34.9382V45.0017H29.9369V50.0008H19.9344ZM29.9369 40.0027H34.9382V25.0055H29.9369V40.0027Z" stroke="white" stroke-width="2.73333" mask="url(#path-5-outside-5)"/>
<path d="M60.9447 54.9999V45.0017H65.946V35.0036H70.9473V15.0073H95.9536V45.0017H100.955V54.9999H90.9523V50.0008H70.9473V54.9999H60.9447ZM75.9485 45.0017H85.951V20.0064H75.9485V45.0017Z" stroke="white" stroke-width="2.73333" mask="url(#path-5-outside-5)"/>
<path d="M106.956 50.0008V15.0073H136.964V20.0064H141.965V35.0036H136.964V40.0027H116.959V50.0008H106.956ZM116.959 35.0036H131.963V20.0064H116.959V35.0036Z" stroke="white" stroke-width="2.73333" mask="url(#path-5-outside-5)"/>
<path d="M152.968 50.0008V15.0073H162.97V35.0036H167.972V30.0045H172.973V25.0055H177.974V15.0073H187.977V50.0008H177.974V35.0036H172.973V40.0027H167.972V45.0017H162.97V50.0008H152.968Z" stroke="white" stroke-width="2.73333" mask="url(#path-5-outside-5)"/>
<path d="M213.983 50.0008V45.0017H203.981V40.0027H198.98V25.0055H203.981V20.0064H213.983V15.0073H218.985V20.0064H228.987V25.0055H233.988V40.0027H228.987V45.0017H218.985V50.0008H213.983ZM208.982 40.0027H213.983V25.0055H208.982V40.0027ZM218.985 40.0027H223.986V25.0055H218.985V40.0027Z" stroke="white" stroke-width="2.73333" mask="url(#path-5-outside-5)"/>
<path d="M259.995 50.0008V20.0064H249.992V15.0073H280V20.0064H269.998V50.0008H259.995Z" stroke="white" stroke-width="2.73333" mask="url(#path-5-outside-5)"/>
</g>
<defs>
<filter id="filter0_f" x="0.138955" y="0.213174" width="294.655" height="69.5809" filterUnits="userSpaceOnUse" color-interpolation-filters="sRGB">
<feFlood flood-opacity="0" result="BackgroundImageFix"/>
<feBlend mode="normal" in="SourceGraphic" in2="BackgroundImageFix" result="shape"/>
<feGaussianBlur stdDeviation="5.17625" result="effect1_foregroundBlur"/>
</filter>
<filter id="filter1_f" x="5.67392" y="5.74814" width="283.585" height="58.5109" filterUnits="userSpaceOnUse" color-interpolation-filters="sRGB">
<feFlood flood-opacity="0" result="BackgroundImageFix"/>
<feBlend mode="normal" in="SourceGraphic" in2="BackgroundImageFix" result="shape"/>
<feGaussianBlur stdDeviation="1.72542" result="effect1_foregroundBlur"/>
</filter>
<filter id="filter2_ddi" x="6.00537" y="9.53042" width="282.922" height="57.8481" filterUnits="userSpaceOnUse" color-interpolation-filters="sRGB">
<feFlood flood-opacity="0" result="BackgroundImageFix"/>
<feColorMatrix in="SourceAlpha" type="matrix" values="0 0 0 0 0 0 0 0 0 0 0 0 0 0 0 0 0 0 127 0"/>
<feOffset dy="4.44167"/>
<feGaussianBlur stdDeviation="1.70833"/>
<feColorMatrix type="matrix" values="0 0 0 0 0 0 0 0 0 0.051 0 0 0 0 0.082 0 0 0 0.7 0"/>
<feBlend mode="multiply" in2="BackgroundImageFix" result="effect1_dropShadow"/>
<feColorMatrix in="SourceAlpha" type="matrix" values="0 0 0 0 0 0 0 0 0 0 0 0 0 0 0 0 0 0 127 0"/>
<feOffset dy="3.45083"/>
<feGaussianBlur stdDeviation="2.24304"/>
<feColorMatrix type="matrix" values="0 0 0 0 0 0 0 0 0 0.4 0 0 0 0 1 0 0 0 1 0"/>
<feBlend mode="color-dodge" in2="effect1_dropShadow" result="effect2_dropShadow"/>
<feBlend mode="normal" in="SourceGraphic" in2="effect2_dropShadow" result="shape"/>
<feColorMatrix in="SourceAlpha" type="matrix" values="0 0 0 0 0 0 0 0 0 0 0 0 0 0 0 0 0 0 127 0" result="hardAlpha"/>
<feOffset dx="-0.444167" dy="0.888333"/>
<feGaussianBlur stdDeviation="0.222083"/>
<feComposite in2="hardAlpha" operator="arithmetic" k2="-1" k3="1"/>
<feColorMatrix type="matrix" values="0 0 0 0 1 0 0 0 0 1 0 0 0 0 1 0 0 0 0.5 0"/>
<feBlend mode="normal" in2="shape" result="effect3_innerShadow"/>
</filter>
<filter id="filter3_f" x="11.5164" y="11.5907" width="271.9" height="46.8259" filterUnits="userSpaceOnUse" color-interpolation-filters="sRGB">
<feFlood flood-opacity="0" result="BackgroundImageFix"/>
<feBlend mode="normal" in="SourceGraphic" in2="BackgroundImageFix" result="shape"/>
<feGaussianBlur stdDeviation="0.341667" result="effect1_foregroundBlur"/>
</filter>
<filter id="filter4_f" x="13.1109" y="13.1851" width="268.711" height="43.637" filterUnits="userSpaceOnUse" color-interpolation-filters="sRGB">
<feFlood flood-opacity="0" result="BackgroundImageFix"/>
<feBlend mode="normal" in="SourceGraphic" in2="BackgroundImageFix" result="shape"/>
<feGaussianBlur stdDeviation="0.227778" result="effect1_foregroundBlur"/>
</filter>
</defs>
</svg>
