<svg width="922" height="187" viewBox="0 0 922 187" fill="none" xmlns="http://www.w3.org/2000/svg">
<path d="M827.878 41.3355L767.869 154.286L804.345 146.639L827.878 101.93L839.644 154.286L865.524 151.343L922 47.8068L886.115 50.7496L854.939 113.106L838.463 48.9829L827.878 41.3355Z" fill="#FF002E"/>
<path d="M618.102 107.494L649.378 54.2156L655.653 29.8138L555.645 69.4242L534.075 142.764L558.194 165.121L618.952 162.572L625.135 151.098L632.581 157.93L649.129 155.357V142.764L618.102 107.494ZM602.149 134.675L574.862 140.014L570.546 132.563L584.075 78.6368L649.378 54.2156L618.102 107.494L600.954 100.561L596.907 125.199L603.925 131.636L602.149 134.675Z" fill="#FF002E"/>
<path d="M815.017 9.17084L726.276 39.0791L625.769 177.339L641.458 168.515L664.99 162.961L685.581 135.506L740.981 133.71L750.788 174.257L785.108 186.172L751.768 57.7202L806.678 26.3429L815.017 9.17084ZM686.565 133.211L724.807 82.7126L732.162 94.7575L738.35 122.318L686.565 133.211Z" fill="#FF002E"/>
<path d="M432.791 59.5397L421.831 44.2975L299.322 31.7341L246.034 139.577L266.999 163.873L288.439 100.984L392.772 138.146L412.781 116.706L345.658 88.6511L432.791 59.5397ZM300.82 69.5443L308.918 54.2973H388.48L312.73 75.7372L300.82 69.5443Z" fill="#FF002E"/>
<path d="M157.582 66.7694L177.092 57.8209L173.894 131.511L222.722 101.186L255.136 26.9333L261.781 51.3352L268.919 63.6682L232.708 166.667L227.192 162.99L220.476 134.598L160.534 168.515L139.459 149.5L157.582 66.7694Z" fill="#FF002E"/>
<path d="M157.865 12.9393L147.937 35.8722L135.801 44.331L121.826 93.2356L67.7465 93.37L79.8826 43.7309L52.4372 51.6568L6 184.794L18.501 180.752L28.4289 164.939L45.3417 153.542L56.0088 117.273L116.68 117.138L104.544 166.777L125.504 159.053L165.954 10.1309L157.865 12.9393Z" fill="#FF002E"/>
<path d="M559.369 7L470.629 36.9083L370.121 175.168L385.81 166.344L409.343 160.79L429.933 133.335L485.333 131.539L495.141 172.086L529.461 184.001L496.12 55.5493L551.031 24.1721L559.369 7ZM430.917 131.04L469.16 80.5417L476.514 92.5866L482.702 120.147L430.917 131.04Z" fill="#FF002E"/>
<path d="M821.878 34.3355L761.869 147.286L798.345 139.639L821.878 94.9297L833.644 147.286L859.524 144.343L916 40.8068L880.115 43.7496L848.939 106.106L832.463 41.9829L821.878 34.3355Z" fill="#FFE500"/>
<path d="M612.102 100.494L643.378 47.2156L649.653 22.8138L549.645 62.4242L528.075 135.764L552.194 158.121L612.952 155.572L619.135 144.098L626.581 150.93L643.129 148.357V135.764L612.102 100.494ZM596.149 127.675L568.862 133.014L564.546 125.563L578.075 71.6368L643.378 47.2156L612.102 100.494L594.954 93.5615L590.907 118.199L597.925 124.636L596.149 127.675Z" fill="#FFE500"/>
<path d="M809.017 2.17084L720.276 32.0791L619.769 170.339L635.458 161.515L658.99 155.961L679.581 128.506L734.981 126.71L744.788 167.257L779.108 179.172L745.768 50.7202L800.678 19.3429L809.017 2.17084ZM680.565 126.211L718.807 75.7126L726.162 87.7575L732.35 115.318L680.565 126.211Z" fill="#FFE500"/>
<path d="M426.791 52.5397L415.831 37.2975L293.322 24.7341L240.034 132.577L260.999 156.873L282.439 93.984L386.772 131.146L406.781 109.706L339.658 81.6511L426.791 52.5397ZM294.82 62.5443L302.918 47.2973H382.48L306.73 68.7372L294.82 62.5443Z" fill="#FFE500"/>
<path d="M151.582 59.7694L171.092 50.8209L167.894 124.511L216.722 94.1855L249.136 19.9333L255.781 44.3352L262.919 56.6682L226.708 159.667L221.192 155.99L214.476 127.598L154.534 161.515L133.459 142.5L151.582 59.7694Z" fill="#FFE500"/>
<path d="M151.865 5.9393L141.937 28.8722L129.801 37.331L115.826 86.2356L61.7465 86.37L73.8826 36.7309L46.4372 44.6568L0 177.794L12.501 173.752L22.4289 157.939L39.3417 146.542L50.0088 110.273L110.68 110.138L98.5437 159.777L119.504 152.053L159.954 3.13091L151.865 5.9393Z" fill="#FFE500"/>
<path d="M553.369 0L464.629 29.9083L364.121 168.168L379.81 159.344L403.343 153.79L423.933 126.335L479.333 124.539L489.141 165.086L523.461 177.001L490.12 48.5493L545.031 17.1721L553.369 0ZM424.917 124.04L463.16 73.5417L470.514 85.5866L476.702 113.147L424.917 124.04Z" fill="#FFE500"/>
</svg>
