<svg width="375" height="216" viewBox="0 0 375 216" fill="none" xmlns="http://www.w3.org/2000/svg">
<path d="M284.812 12.011L284.812 12.0111C280.925 15.9097 275.751 18.0594 270.256 18.0594H104.753C99.2583 18.0594 94.0843 15.9097 90.1967 12.0111L80.7524 2.54007C79.4408 1.22486 77.703 0.509039 75.8525 0.509039H0.5V215.5H152.895C154.743 215.5 156.482 214.776 157.795 213.468C157.795 213.468 157.795 213.468 157.796 213.468L192.787 178.377C196.675 174.479 201.849 172.329 207.344 172.329H367.574C371.397 172.329 374.5 169.211 374.5 165.382V0.5H299.156C297.308 0.5 295.57 1.22345 294.257 2.53087L284.812 12.011ZM284.812 12.011L294.256 2.53218L284.812 12.011Z" stroke="black"/>
</svg>
